MontaguSlab-Bold14pt.ufo
<glyph name="quotedbl" format="2">
  <advance width="1342"/>
  <unicode hex="0022"/>
  <outline>
    <contour>
      <point x="168" y="727" type="curve"/>
      <point x="377" y="727" type="line"/>
      <point x="485" y="804"/>
      <point x="637" y="1007"/>
      <point x="637" y="1205" type="curve" smooth="yes"/>
      <point x="637" y="1411"/>
      <point x="509" y="1522"/>
      <point x="344" y="1522" type="curve" smooth="yes"/>
      <point x="188" y="1522"/>
      <point x="82" y="1426"/>
      <point x="82" y="1287" type="curve" smooth="yes"/>
      <point x="82" y="1136"/>
      <point x="201" y="1044"/>
      <point x="395" y="1044" type="curve"/>
      <point x="366" y="941"/>
      <point x="283" y="834"/>
    </contour>
    <contour>
      <point x="791" y="727" type="curve"/>
      <point x="1000" y="727" type="line"/>
      <point x="1108" y="804"/>
      <point x="1260" y="1007"/>
      <point x="1260" y="1205" type="curve" smooth="yes"/>
      <point x="1260" y="1411"/>
      <point x="1132" y="1522"/>
      <point x="967" y="1522" type="curve" smooth="yes"/>
      <point x="811" y="1522"/>
      <point x="705" y="1426"/>
      <point x="705" y="1287" type="curve" smooth="yes"/>
      <point x="705" y="1136"/>
      <point x="824" y="1044"/>
      <point x="1018" y="1044" type="curve"/>
      <point x="989" y="941"/>
      <point x="906" y="834"/>
    </contour>
  </outline>
</glyph>
<glyph name="parenright" format="2">
  <advance width="764"/>
  <unicode hex="0029"/>
  <outline>
    <contour>
      <point x="236" y="630" type="curve"/>
      <point x="642" y="630" type="line"/>
      <point x="642" y="1177"/>
      <point x="419" y="1511"/>
      <point x="262" y="1680" type="curve"/>
      <point x="28" y="1680" type="line"/>
      <point x="136" y="1404"/>
      <point x="236" y="1098"/>
    </contour>
    <contour>
      <point x="28" y="-420" type="curve"/>
      <point x="262" y="-420" type="line"/>
      <point x="419" y="-251"/>
      <point x="642" y="83"/>
      <point x="642" y="630" type="curve"/>
      <point x="236" y="630" type="line"/>
      <point x="236" y="162"/>
      <point x="136" y="-144"/>
    </contour>
  </outline>
</glyph>
<glyph name="plus" format="2">
  <advance width="1340"/>
  <unicode hex="002B"/>
  <outline>
    <contour>
      <point x="505" y="214" type="line"/>
      <point x="835" y="214" type="line"/>
      <point x="835" y="1290" type="line"/>
      <point x="505" y="1290" type="line"/>
    </contour>
    <contour>
      <point x="139" y="596" type="line"/>
      <point x="1201" y="596" type="line"/>
      <point x="1201" y="908" type="line"/>
      <point x="139" y="908" type="line"/>
    </contour>
  </outline>
</glyph>
<glyph name="four" format="2">
  <advance width="1424"/>
  <unicode hex="0034"/>
  <outline>
    <contour>
      <point x="476" y="0" type="line"/>
      <point x="1234" y="0" type="line"/>
      <point x="1234" y="210" type="line"/>
      <point x="1084" y="210" type="line"/>
      <point x="1084" y="1500" type="line"/>
      <point x="700" y="1500" type="line"/>
      <point x="680" y="1425" type="line"/>
      <point x="680" y="210" type="line"/>
      <point x="476" y="210" type="line"/>
    </contour>
    <contour>
      <point x="-14" y="450" type="line"/>
      <point x="1384" y="450" type="line"/>
      <point x="1384" y="680" type="line"/>
      <point x="68" y="680" type="line"/>
      <point x="-14" y="660" type="line"/>
    </contour>
    <contour>
      <point x="-14" y="660" type="line"/>
      <point x="264" y="660" type="line"/>
      <point x="696" y="1168" type="line"/>
      <point x="700" y="1500" type="line"/>
    </contour>
  </outline>
</glyph>
<glyph name="nine" format="2">
  <advance width="1493"/>
  <unicode hex="0039"/>
  <outline>
    <contour>
      <point x="1425" y="800" type="curve"/>
      <point x="983" y="755" type="line"/>
      <point x="1001" y="393"/>
      <point x="837" y="178"/>
      <point x="627" y="178" type="curve" smooth="yes"/>
      <point x="490" y="178"/>
      <point x="389" y="240"/>
      <point x="358" y="325" type="curve"/>
      <point x="360" y="202" type="line"/>
      <point x="486" y="202"/>
      <point x="566" y="238"/>
      <point x="566" y="342" type="curve" smooth="yes"/>
      <point x="566" y="420"/>
      <point x="481" y="478"/>
      <point x="352" y="478" type="curve" smooth="yes"/>
      <point x="228" y="478"/>
      <point x="129" y="414"/>
      <point x="129" y="288" type="curve" smooth="yes"/>
      <point x="129" y="106"/>
      <point x="362" y="-22"/>
      <point x="664" y="-22" type="curve" smooth="yes"/>
      <point x="1151" y="-22"/>
      <point x="1430" y="300"/>
    </contour>
    <contour>
      <point x="723" y="1522" type="curve" smooth="yes"/>
      <point x="316" y="1522"/>
      <point x="70" y="1323"/>
      <point x="70" y="1018" type="curve" smooth="yes"/>
      <point x="70" y="716"/>
      <point x="309" y="546"/>
      <point x="603" y="546" type="curve" smooth="yes"/>
      <point x="803" y="546"/>
      <point x="920" y="635"/>
      <point x="983" y="755" type="curve"/>
      <point x="1425" y="800" type="line"/>
      <point x="1428" y="1302"/>
      <point x="1128" y="1522"/>
    </contour>
    <contour>
      <point x="724" y="1288" type="curve" smooth="yes"/>
      <point x="873" y="1288"/>
      <point x="960" y="1192"/>
      <point x="960" y="1038" type="curve" smooth="yes"/>
      <point x="960" y="888"/>
      <point x="873" y="788"/>
      <point x="724" y="788" type="curve" smooth="yes"/>
      <point x="575" y="788"/>
      <point x="488" y="884"/>
      <point x="488" y="1038" type="curve" smooth="yes"/>
      <point x="488" y="1192"/>
      <point x="575" y="1288"/>
    </contour>
  </outline>
</glyph>
<glyph name="colon" format="2">
  <advance width="678"/>
  <unicode hex="003A"/>
  <outline>
    <contour>
      <point x="339" y="691" type="curve" smooth="yes"/>
      <point x="495" y="691"/>
      <point x="596" y="792"/>
      <point x="596" y="937" type="curve" smooth="yes"/>
      <point x="596" y="1082"/>
      <point x="495" y="1183"/>
      <point x="339" y="1183" type="curve" smooth="yes"/>
      <point x="184" y="1183"/>
      <point x="82" y="1082"/>
      <point x="82" y="937" type="curve" smooth="yes"/>
      <point x="82" y="792"/>
      <point x="184" y="691"/>
    </contour>
    <contour>
      <point x="339" y="-22" type="curve" smooth="yes"/>
      <point x="495" y="-22"/>
      <point x="596" y="79"/>
      <point x="596" y="224" type="curve" smooth="yes"/>
      <point x="596" y="369"/>
      <point x="495" y="470"/>
      <point x="339" y="470" type="curve" smooth="yes"/>
      <point x="184" y="470"/>
      <point x="82" y="369"/>
      <point x="82" y="224" type="curve" smooth="yes"/>
      <point x="82" y="79"/>
      <point x="184" y="-22"/>
    </contour>
  </outline>
</glyph>
<glyph name="semicolon" format="2">
  <advance width="699"/>
  <unicode hex="003B"/>
  <outline>
    <contour>
      <point x="339" y="690" type="curve" smooth="yes"/>
      <point x="495" y="690"/>
      <point x="596" y="791"/>
      <point x="596" y="936" type="curve" smooth="yes"/>
      <point x="596" y="1081"/>
      <point x="495" y="1182"/>
      <point x="339" y="1182" type="curve" smooth="yes"/>
      <point x="184" y="1182"/>
      <point x="82" y="1081"/>
      <point x="82" y="936" type="curve" smooth="yes"/>
      <point x="82" y="791"/>
      <point x="184" y="690"/>
    </contour>
    <contour>
      <point x="172" y="-326" type="curve"/>
      <point x="372" y="-326" type="line"/>
      <point x="475" y="-246"/>
      <point x="617" y="-39"/>
      <point x="617" y="165" type="curve" smooth="yes"/>
      <point x="617" y="367"/>
      <point x="495" y="470"/>
      <point x="340" y="470" type="curve" smooth="yes"/>
      <point x="184" y="470"/>
      <point x="82" y="372"/>
      <point x="82" y="231" type="curve" smooth="yes"/>
      <point x="82" y="82"/>
      <point x="185" y="-7"/>
      <point x="357" y="-7" type="curve"/>
      <point x="336" y="-107"/>
      <point x="276" y="-220"/>
    </contour>
  </outline>
</glyph>
<glyph name="equal" format="2">
  <advance width="1340"/>
  <unicode hex="003D"/>
  <outline>
    <contour>
      <point x="139" y="834" type="line"/>
      <point x="1201" y="834" type="line"/>
      <point x="1201" y="1146" type="line"/>
      <point x="139" y="1146" type="line"/>
    </contour>
    <contour>
      <point x="139" y="358" type="line"/>
      <point x="1201" y="358" type="line"/>
      <point x="1201" y="670" type="line"/>
      <point x="139" y="670" type="line"/>
    </contour>
  </outline>
</glyph>
<glyph name="B" format="2">
  <advance width="1658"/>
  <unicode hex="0042"/>
  <anchor x="829" y="0" name="bottom"/>
  <anchor x="829" y="1500" name="top"/>
  <outline>
    <contour>
      <point x="62" y="0" type="line"/>
      <point x="647" y="0" type="line"/>
      <point x="647" y="1500" type="line"/>
      <point x="65" y="1500" type="line"/>
      <point x="65" y="1286" type="line"/>
      <point x="227" y="1286" type="line"/>
      <point x="227" y="214" type="line"/>
      <point x="62" y="214" type="line"/>
    </contour>
    <contour>
      <point x="647" y="0" type="line"/>
      <point x="1076" y="0" type="line" smooth="yes"/>
      <point x="1398" y="0"/>
      <point x="1608" y="128"/>
      <point x="1608" y="408" type="curve" smooth="yes"/>
      <point x="1608" y="679"/>
      <point x="1398" y="792"/>
      <point x="1076" y="792" type="curve" smooth="yes"/>
      <point x="647" y="792" type="line"/>
      <point x="647" y="653" type="line"/>
      <point x="938" y="653" type="line" smooth="yes"/>
      <point x="1085" y="653"/>
      <point x="1178" y="579"/>
      <point x="1178" y="439" type="curve" smooth="yes"/>
      <point x="1178" y="299"/>
      <point x="1085" y="224"/>
      <point x="938" y="224" type="curve" smooth="yes"/>
      <point x="647" y="224" type="line"/>
    </contour>
    <contour>
      <point x="647" y="754" type="line"/>
      <point x="1000" y="754" type="line" smooth="yes"/>
      <point x="1312" y="754"/>
      <point x="1524" y="865"/>
      <point x="1524" y="1118" type="curve" smooth="yes"/>
      <point x="1524" y="1380"/>
      <point x="1312" y="1500"/>
      <point x="1000" y="1500" type="curve" smooth="yes"/>
      <point x="647" y="1500" type="line"/>
      <point x="647" y="1276" type="line"/>
      <point x="871" y="1276" type="line" smooth="yes"/>
      <point x="1010" y="1276"/>
      <point x="1094" y="1209"/>
      <point x="1094" y="1076" type="curve" smooth="yes"/>
      <point x="1094" y="943"/>
      <point x="1010" y="877"/>
      <point x="871" y="877" type="curve" smooth="yes"/>
      <point x="647" y="877" type="line"/>
    </contour>
  </outline>
</glyph>
<glyph name="F" format="2">
  <advance width="1560"/>
  <unicode hex="0046"/>
  <outline>
    <contour>
      <point x="62" y="0" type="line"/>
      <point x="842" y="0" type="line"/>
      <point x="842" y="214" type="line"/>
      <point x="632" y="214" type="line"/>
      <point x="632" y="1500" type="line"/>
      <point x="68" y="1500" type="line"/>
      <point x="68" y="1289" type="line"/>
      <point x="212" y="1289" type="line"/>
      <point x="212" y="214" type="line"/>
      <point x="62" y="214" type="line"/>
    </contour>
    <contour>
      <point x="871" y="422" type="curve" smooth="yes"/>
      <point x="871" y="344" type="line"/>
      <point x="1095" y="344" type="line"/>
      <point x="1095" y="652" type="line"/>
      <point x="661" y="652" type="line" smooth="yes"/>
      <point x="811" y="652"/>
      <point x="871" y="582"/>
    </contour>
    <contour>
      <point x="632" y="652" type="line"/>
      <point x="1095" y="652" type="line"/>
      <point x="1095" y="872" type="line"/>
      <point x="632" y="872" type="line"/>
    </contour>
    <contour>
      <point x="661" y="872" type="curve" smooth="yes"/>
      <point x="1095" y="872" type="line"/>
      <point x="1095" y="1136" type="line"/>
      <point x="871" y="1136" type="line"/>
      <point x="871" y="1102" type="line" smooth="yes"/>
      <point x="871" y="942"/>
      <point x="811" y="872"/>
    </contour>
    <contour>
      <point x="632" y="1276" type="line"/>
      <point x="1494" y="1276" type="line"/>
      <point x="1494" y="1500" type="line"/>
      <point x="632" y="1500" type="line"/>
    </contour>
    <contour>
      <point x="1262" y="1036" type="curve" smooth="yes"/>
      <point x="1262" y="940" type="line"/>
      <point x="1494" y="940" type="line"/>
      <point x="1494" y="1276" type="line"/>
      <point x="1042" y="1276" type="line" smooth="yes"/>
      <point x="1202" y="1276"/>
      <point x="1262" y="1206"/>
    </contour>
  </outline>
</glyph>
<glyph name="H" format="2">
  <advance width="1837"/>
  <unicode hex="0048"/>
  <anchor x="919" y="0" name="bottom"/>
  <anchor x="919" y="750" name="center"/>
  <anchor x="919" y="1500" name="top"/>
  <anchor x="20" y="1500" name="topleft"/>
  <outline>
    <contour>
      <point x="62" y="0" type="line"/>
      <point x="824" y="0" type="line"/>
      <point x="824" y="214" type="line"/>
      <point x="647" y="214" type="line"/>
      <point x="647" y="1286" type="line"/>
      <point x="824" y="1286" type="line"/>
      <point x="824" y="1500" type="line"/>
      <point x="65" y="1500" type="line"/>
      <point x="65" y="1286" type="line"/>
      <point x="227" y="1286" type="line"/>
      <point x="227" y="214" type="line"/>
      <point x="62" y="214" type="line"/>
    </contour>
    <contour>
      <point x="1016" y="0" type="line"/>
      <point x="1775" y="0" type="line"/>
      <point x="1775" y="214" type="line"/>
      <point x="1613" y="214" type="line"/>
      <point x="1613" y="1286" type="line"/>
      <point x="1775" y="1286" type="line"/>
      <point x="1775" y="1500" type="line"/>
      <point x="1016" y="1500" type="line"/>
      <point x="1016" y="1286" type="line"/>
      <point x="1193" y="1286" type="line"/>
      <point x="1193" y="214" type="line"/>
      <point x="1016" y="214" type="line"/>
    </contour>
    <contour>
      <point x="647" y="639" type="line"/>
      <point x="1193" y="639" type="line"/>
      <point x="1193" y="847" type="line"/>
      <point x="647" y="847" type="line"/>
    </contour>
  </outline>
</glyph>
<glyph name="K" format="2">
  <advance width="1730"/>
  <unicode hex="004B"/>
  <anchor x="857" y="0" name="bottom"/>
  <anchor x="857" y="1500" name="top"/>
  <outline>
    <contour>
      <point x="555" y="436" type="line"/>
      <point x="1510" y="1286" type="line"/>
      <point x="1643" y="1286" type="line"/>
      <point x="1643" y="1500" type="line"/>
      <point x="956" y="1500" type="line"/>
      <point x="956" y="1286" type="line"/>
      <point x="1145" y="1286" type="line"/>
      <point x="395" y="624" type="line"/>
    </contour>
    <contour>
      <point x="62" y="0" type="line"/>
      <point x="788" y="0" type="line"/>
      <point x="788" y="214" type="line"/>
      <point x="647" y="214" type="line"/>
      <point x="647" y="1286" type="line"/>
      <point x="809" y="1286" type="line"/>
      <point x="809" y="1500" type="line"/>
      <point x="65" y="1500" type="line"/>
      <point x="65" y="1286" type="line"/>
      <point x="227" y="1286" type="line"/>
      <point x="227" y="214" type="line"/>
      <point x="62" y="214" type="line"/>
    </contour>
    <contour>
      <point x="898" y="0" type="line"/>
      <point x="1679" y="0" type="line"/>
      <point x="1679" y="214" type="line"/>
      <point x="1559" y="214" type="line"/>
      <point x="999" y="942" type="line"/>
      <point x="708" y="676" type="line"/>
      <point x="1044" y="214" type="line"/>
      <point x="898" y="214" type="line"/>
    </contour>
  </outline>
</glyph>
<glyph name="L" format="2">
  <advance width="1535"/>
  <unicode hex="004C"/>
  <anchor x="768" y="0" name="bottom"/>
  <anchor x="437" y="1260" name="center"/>
  <anchor x="437" y="1500" name="top"/>
  <anchor x="835" y="1500" name="topright"/>
  <outline>
    <contour>
      <point x="62" y="0" type="line"/>
      <point x="647" y="0" type="line"/>
      <point x="647" y="1286" type="line"/>
      <point x="854" y="1286" type="line"/>
      <point x="854" y="1500" type="line"/>
      <point x="65" y="1500" type="line"/>
      <point x="65" y="1286" type="line"/>
      <point x="227" y="1286" type="line"/>
      <point x="227" y="214" type="line"/>
      <point x="62" y="214" type="line"/>
    </contour>
    <contour>
      <point x="647" y="0" type="line"/>
      <point x="1467" y="0" type="line"/>
      <point x="1467" y="224" type="line"/>
      <point x="647" y="224" type="line"/>
    </contour>
    <contour>
      <point x="1015" y="224" type="curve" smooth="yes"/>
      <point x="1467" y="224" type="line"/>
      <point x="1467" y="540" type="line"/>
      <point x="1235" y="540" type="line"/>
      <point x="1235" y="464" type="line" smooth="yes"/>
      <point x="1235" y="294"/>
      <point x="1175" y="224"/>
    </contour>
  </outline>
</glyph>
<glyph name="M" format="2">
  <advance width="2295"/>
  <unicode hex="004D"/>
  <anchor x="1078" y="0" name="bottom"/>
  <anchor x="1148" y="1500" name="top"/>
  <outline>
    <contour>
      <point x="914" y="0" type="line"/>
      <point x="1225" y="0" type="line"/>
      <point x="1652" y="971" type="line"/>
      <point x="1652" y="1500" type="line"/>
      <point x="1604" y="1500" type="line"/>
      <point x="1121" y="395" type="line"/>
      <point x="1184" y="395" type="line"/>
      <point x="667" y="1500" type="line"/>
      <point x="487" y="1500" type="line"/>
      <point x="487" y="911" type="line"/>
    </contour>
    <contour>
      <point x="62" y="0" type="line"/>
      <point x="667" y="0" type="line"/>
      <point x="667" y="214" type="line"/>
      <point x="487" y="214" type="line"/>
      <point x="487" y="1500" type="line"/>
      <point x="65" y="1500" type="line"/>
      <point x="65" y="1286" type="line"/>
      <point x="227" y="1286" type="line"/>
      <point x="227" y="214" type="line"/>
      <point x="62" y="214" type="line"/>
    </contour>
    <contour>
      <point x="1472" y="0" type="line"/>
      <point x="2233" y="0" type="line"/>
      <point x="2233" y="214" type="line"/>
      <point x="2068" y="214" type="line"/>
      <point x="2068" y="1286" type="line"/>
      <point x="2230" y="1286" type="line"/>
      <point x="2230" y="1500" type="line"/>
      <point x="1652" y="1500" type="line"/>
      <point x="1652" y="214" type="line"/>
      <point x="1472" y="214" type="line"/>
    </contour>
  </outline>
</glyph>
<glyph name="P" format="2">
  <advance width="1614"/>
  <unicode hex="0050"/>
  <anchor x="807" y="0" name="bottom"/>
  <anchor x="807" y="1500" name="top"/>
  <outline>
    <contour>
      <point x="62" y="0" type="line"/>
      <point x="917" y="0" type="line"/>
      <point x="917" y="214" type="line"/>
      <point x="647" y="214" type="line"/>
      <point x="647" y="1500" type="line"/>
      <point x="65" y="1500" type="line"/>
      <point x="65" y="1286" type="line"/>
      <point x="227" y="1286" type="line"/>
      <point x="227" y="214" type="line"/>
      <point x="62" y="214" type="line"/>
    </contour>
    <contour>
      <point x="647" y="598" type="line"/>
      <point x="1029" y="598" type="line" smooth="yes"/>
      <point x="1362" y="598"/>
      <point x="1582" y="749"/>
      <point x="1582" y="1049" type="curve" smooth="yes"/>
      <point x="1582" y="1349"/>
      <point x="1362" y="1500"/>
      <point x="1029" y="1500" type="curve" smooth="yes"/>
      <point x="647" y="1500" type="line"/>
      <point x="647" y="1276" type="line"/>
      <point x="893" y="1276" type="line" smooth="yes"/>
      <point x="1054" y="1276"/>
      <point x="1152" y="1203"/>
      <point x="1152" y="1049" type="curve" smooth="yes"/>
      <point x="1152" y="895"/>
      <point x="1054" y="822"/>
      <point x="893" y="822" type="curve" smooth="yes"/>
      <point x="647" y="822" type="line"/>
    </contour>
  </outline>
</glyph>
<glyph name="T" format="2">
  <advance width="1744"/>
  <unicode hex="0054"/>
  <anchor x="872" y="0" name="bottom"/>
  <anchor x="872" y="710" name="center"/>
  <anchor x="872" y="1500" name="top"/>
  <outline>
    <contour>
      <point x="452" y="0" type="line"/>
      <point x="1292" y="0" type="line"/>
      <point x="1292" y="214" type="line"/>
      <point x="1082" y="214" type="line"/>
      <point x="1082" y="1500" type="line"/>
      <point x="662" y="1500" type="line"/>
      <point x="662" y="214" type="line"/>
      <point x="452" y="214" type="line"/>
    </contour>
    <contour>
      <point x="68" y="940" type="line"/>
      <point x="300" y="940" type="line"/>
      <point x="300" y="1044" type="line" smooth="yes"/>
      <point x="300" y="1214"/>
      <point x="360" y="1284"/>
      <point x="520" y="1284" type="curve" smooth="yes"/>
      <point x="68" y="1284" type="line"/>
    </contour>
    <contour>
      <point x="68" y="1284" type="line"/>
      <point x="1676" y="1284" type="line"/>
      <point x="1676" y="1500" type="line"/>
      <point x="68" y="1500" type="line"/>
    </contour>
    <contour>
      <point x="1444" y="1044" type="curve" smooth="yes"/>
      <point x="1444" y="940" type="line"/>
      <point x="1676" y="940" type="line"/>
      <point x="1676" y="1284" type="line"/>
      <point x="1224" y="1284" type="line" smooth="yes"/>
      <point x="1384" y="1284"/>
      <point x="1444" y="1214"/>
    </contour>
  </outline>
</glyph>
<glyph name="V" format="2">
  <advance width="1824"/>
  <unicode hex="0056"/>
  <anchor x="912" y="0" name="bottom"/>
  <anchor x="912" y="1500" name="top"/>
  <outline>
    <contour>
      <point x="718" y="0" type="line"/>
      <point x="1106" y="0" type="line"/>
      <point x="1651" y="1286" type="line"/>
      <point x="1790" y="1286" type="line"/>
      <point x="1790" y="1500" type="line"/>
      <point x="1164" y="1500" type="line"/>
      <point x="1164" y="1286" type="line"/>
      <point x="1370" y="1286" type="line"/>
      <point x="929" y="231" type="line"/>
      <point x="1060" y="230" type="line"/>
      <point x="630" y="1286" type="line"/>
      <point x="838" y="1286" type="line"/>
      <point x="838" y="1500" type="line"/>
      <point x="34" y="1500" type="line"/>
      <point x="34" y="1286" type="line"/>
      <point x="173" y="1286" type="line"/>
    </contour>
  </outline>
</glyph>
<glyph name="W" format="2">
  <advance width="2542"/>
  <unicode hex="0057"/>
  <anchor x="1271" y="0" name="bottom"/>
  <anchor x="1306" y="1500" name="top"/>
  <outline>
    <contour>
      <point x="1536" y="0" type="line"/>
      <point x="1908" y="0" type="line"/>
      <point x="2376" y="1286" type="line"/>
      <point x="2508" y="1286" type="line"/>
      <point x="2508" y="1500" type="line"/>
      <point x="1897" y="1500" type="line"/>
      <point x="1897" y="1286" type="line"/>
      <point x="2104" y="1286" type="line"/>
      <point x="1722" y="231" type="line"/>
      <point x="1862" y="230" type="line"/>
      <point x="1485" y="1286" type="line"/>
      <point x="1692" y="1286" type="line"/>
      <point x="1692" y="1500" type="line"/>
      <point x="930" y="1500" type="line"/>
      <point x="930" y="1286" type="line"/>
      <point x="1068" y="1286" type="line"/>
    </contour>
    <contour>
      <point x="619" y="0" type="line"/>
      <point x="1004" y="0" type="line"/>
      <point x="1330" y="895" type="line"/>
      <point x="1202" y="1257" type="line"/>
      <point x="830" y="231" type="line"/>
      <point x="970" y="230" type="line"/>
      <point x="593" y="1286" type="line"/>
      <point x="740" y="1286" type="line"/>
      <point x="740" y="1500" type="line"/>
      <point x="34" y="1500" type="line"/>
      <point x="34" y="1286" type="line"/>
      <point x="151" y="1286" type="line"/>
    </contour>
  </outline>
</glyph>
<glyph name="X" format="2">
  <advance width="1787"/>
  <unicode hex="0058"/>
  <anchor x="894" y="0" name="bottom"/>
  <anchor x="894" y="1500" name="top"/>
  <outline>
    <contour>
      <point x="68" y="0" type="line"/>
      <point x="715" y="0" type="line"/>
      <point x="715" y="214" type="line"/>
      <point x="541" y="214" type="line"/>
      <point x="886" y="630" type="line"/>
      <point x="746" y="630" type="line"/>
      <point x="1070" y="214" type="line"/>
      <point x="891" y="214" type="line"/>
      <point x="891" y="0" type="line"/>
      <point x="1736" y="0" type="line"/>
      <point x="1736" y="214" type="line"/>
      <point x="1598" y="214" type="line"/>
      <point x="1086" y="853" type="line"/>
      <point x="742" y="853" type="line"/>
      <point x="209" y="214" type="line"/>
      <point x="68" y="214" type="line"/>
    </contour>
    <contour>
      <point x="690" y="677" type="line"/>
      <point x="1034" y="677" type="line"/>
      <point x="1542" y="1286" type="line"/>
      <point x="1680" y="1286" type="line"/>
      <point x="1680" y="1500" type="line"/>
      <point x="1049" y="1500" type="line"/>
      <point x="1049" y="1286" type="line"/>
      <point x="1210" y="1286" type="line"/>
      <point x="890" y="900" type="line"/>
      <point x="1030" y="900" type="line"/>
      <point x="729" y="1286" type="line"/>
      <point x="896" y="1286" type="line"/>
      <point x="896" y="1500" type="line"/>
      <point x="67" y="1500" type="line"/>
      <point x="67" y="1286" type="line"/>
      <point x="202" y="1286" type="line"/>
    </contour>
  </outline>
</glyph>
<glyph name="bracketleft" format="2">
  <advance width="836"/>
  <unicode hex="005B"/>
  <outline>
    <contour>
      <point x="186" y="-420" type="line"/>
      <point x="584" y="-420" type="line"/>
      <point x="584" y="1680" type="line"/>
      <point x="186" y="1680" type="line"/>
    </contour>
    <contour>
      <point x="186" y="-420" type="line"/>
      <point x="764" y="-420" type="line"/>
      <point x="764" y="-204" type="line"/>
      <point x="186" y="-204" type="line"/>
    </contour>
    <contour>
      <point x="186" y="1464" type="line"/>
      <point x="764" y="1464" type="line"/>
      <point x="764" y="1680" type="line"/>
      <point x="186" y="1680" type="line"/>
    </contour>
  </outline>
</glyph>
<glyph name="backslash" format="2">
  <advance width="696"/>
  <unicode hex="005C"/>
  <outline>
    <contour>
      <point x="668" y="0" type="line"/>
      <point x="292" y="1500" type="line"/>
      <point x="28" y="1500" type="line"/>
      <point x="404" y="0" type="line"/>
    </contour>
  </outline>
</glyph>
<glyph name="bracketright" format="2">
  <advance width="836"/>
  <unicode hex="005D"/>
  <outline>
    <contour>
      <point x="650" y="-420" type="line"/>
      <point x="650" y="1680" type="line"/>
      <point x="252" y="1680" type="line"/>
      <point x="252" y="-420" type="line"/>
    </contour>
    <contour>
      <point x="650" y="-420" type="line"/>
      <point x="650" y="-204" type="line"/>
      <point x="72" y="-204" type="line"/>
      <point x="72" y="-420" type="line"/>
    </contour>
    <contour>
      <point x="650" y="1464" type="line"/>
      <point x="650" y="1680" type="line"/>
      <point x="72" y="1680" type="line"/>
      <point x="72" y="1464" type="line"/>
    </contour>
  </outline>
</glyph>
<glyph name="underscore" format="2">
  <advance width="1454"/>
  <unicode hex="005F"/>
  <outline>
    <contour>
      <point x="139" y="-384" type="line"/>
      <point x="1315" y="-384" type="line"/>
      <point x="1315" y="-60" type="line"/>
      <point x="139" y="-60" type="line"/>
    </contour>
  </outline>
</glyph>
<glyph name="grave" format="2">
  <advance width="700"/>
  <unicode hex="0060"/>
  <anchor x="457" y="1160" name="_top"/>
  <outline>
    <contour>
      <point x="358" y="1290" type="line"/>
      <point x="620" y="1290" type="line"/>
      <point x="488" y="1590" type="line"/>
      <point x="80" y="1590" type="line"/>
    </contour>
  </outline>
</glyph>
<glyph name="b" format="2">
  <advance width="1567"/>
  <unicode hex="0062"/>
  <anchor x="777" y="0" name="bottom"/>
  <anchor x="777" y="1580" name="top"/>
  <outline>
    <contour>
      <point x="936" y="-22" type="curve" smooth="yes"/>
      <point x="1250" y="-22"/>
      <point x="1475" y="194"/>
      <point x="1475" y="580" type="curve" smooth="yes"/>
      <point x="1475" y="966"/>
      <point x="1250" y="1182"/>
      <point x="940" y="1182" type="curve" smooth="yes"/>
      <point x="614" y="1182"/>
      <point x="500" y="956"/>
      <point x="500" y="580" type="curve"/>
      <point x="472" y="580" type="line"/>
      <point x="472" y="214"/>
      <point x="614" y="-22"/>
    </contour>
    <contour>
      <point x="793" y="230" type="curve" smooth="yes"/>
      <point x="639" y="230"/>
      <point x="549" y="350"/>
      <point x="549" y="580" type="curve" smooth="yes"/>
      <point x="549" y="810"/>
      <point x="639" y="930"/>
      <point x="793" y="930" type="curve" smooth="yes"/>
      <point x="945" y="930"/>
      <point x="1035" y="810"/>
      <point x="1035" y="580" type="curve" smooth="yes"/>
      <point x="1035" y="350"/>
      <point x="945" y="230"/>
    </contour>
    <contour>
      <point x="169" y="0" type="line"/>
      <point x="539" y="0" type="line"/>
      <point x="539" y="262" type="line"/>
      <point x="508" y="581" type="line"/>
      <point x="569" y="838" type="line"/>
      <point x="569" y="1580" type="line"/>
      <point x="34" y="1580" type="line"/>
      <point x="34" y="1373" type="line"/>
      <point x="169" y="1373" type="line"/>
    </contour>
  </outline>
</glyph>
<glyph name="e" format="2">
  <advance width="1368"/>
  <unicode hex="0065"/>
  <anchor x="680" y="0" name="bottom"/>
  <anchor x="1005" y="0" name="ogonek"/>
  <anchor x="680" y="1160" name="top"/>
  <outline>
    <contour>
      <point x="699" y="-26" type="curve" smooth="yes"/>
      <point x="1069" y="-26"/>
      <point x="1251" y="207"/>
      <point x="1274" y="440" type="curve"/>
      <point x="1022" y="440" type="line"/>
      <point x="988" y="341"/>
      <point x="913" y="267"/>
      <point x="765" y="267" type="curve" smooth="yes"/>
      <point x="586" y="267"/>
      <point x="474" y="399"/>
      <point x="474" y="610" type="curve" smooth="yes"/>
      <point x="474" y="873"/>
      <point x="554" y="970"/>
      <point x="695" y="970" type="curve"/>
      <point x="683" y="1186" type="line"/>
      <point x="334" y="1186"/>
      <point x="82" y="970"/>
      <point x="82" y="580" type="curve" smooth="yes"/>
      <point x="82" y="189"/>
      <point x="337" y="-26"/>
    </contour>
    <contour>
      <point x="262" y="560" type="line"/>
      <point x="1278" y="560" type="line"/>
      <point x="1278" y="657" type="line"/>
      <point x="884" y="758" type="line"/>
      <point x="262" y="758" type="line"/>
    </contour>
    <contour>
      <point x="884" y="758" type="curve"/>
      <point x="1278" y="657" type="line"/>
      <point x="1278" y="972"/>
      <point x="1069" y="1186"/>
      <point x="683" y="1186" type="curve"/>
      <point x="695" y="970" type="line"/>
      <point x="818" y="970"/>
      <point x="880" y="873"/>
    </contour>
  </outline>
</glyph>
<glyph name="h" format="2">
  <advance width="1541"/>
  <unicode hex="0068"/>
  <anchor x="767" y="0" name="bottom"/>
  <anchor x="767" y="790" name="center"/>
  <anchor x="417" y="1580" name="top"/>
  <outline>
    <contour>
      <point x="72" y="0" type="line"/>
      <point x="730" y="0" type="line"/>
      <point x="730" y="210" type="line"/>
      <point x="631" y="210" type="line"/>
      <point x="631" y="1580" type="line"/>
      <point x="87" y="1580" type="line"/>
      <point x="87" y="1370" type="line"/>
      <point x="231" y="1370" type="line"/>
      <point x="231" y="210" type="line"/>
      <point x="72" y="210" type="line"/>
    </contour>
    <contour>
      <point x="850" y="0" type="line"/>
      <point x="1463" y="0" type="line"/>
      <point x="1463" y="210" type="line"/>
      <point x="1349" y="210" type="line"/>
      <point x="1349" y="779" type="line" smooth="yes"/>
      <point x="1349" y="1060"/>
      <point x="1194" y="1183"/>
      <point x="976" y="1183" type="curve" smooth="yes"/>
      <point x="676" y="1183"/>
      <point x="598" y="1001"/>
      <point x="598" y="720" type="curve"/>
      <point x="631" y="722" type="line"/>
      <point x="631" y="868"/>
      <point x="711" y="919"/>
      <point x="802" y="919" type="curve" smooth="yes"/>
      <point x="890" y="919"/>
      <point x="949" y="868"/>
      <point x="949" y="768" type="curve" smooth="yes"/>
      <point x="949" y="210" type="line"/>
      <point x="850" y="210" type="line"/>
    </contour>
  </outline>
</glyph>
<glyph name="i" format="2">
  <advance width="847"/>
  <unicode hex="0069"/>
  <anchor x="401" y="0" name="bottom"/>
  <anchor x="637" y="0" name="ogonek"/>
  <anchor x="423" y="1584" name="top"/>
  <outline>
    <contour>
      <point x="78" y="0" type="line"/>
      <point x="775" y="0" type="line"/>
      <point x="775" y="210" type="line"/>
      <point x="637" y="210" type="line"/>
      <point x="637" y="1160" type="line"/>
      <point x="93" y="1160" type="line"/>
      <point x="93" y="950" type="line"/>
      <point x="237" y="950" type="line"/>
      <point x="237" y="210" type="line"/>
      <point x="78" y="210" type="line"/>
    </contour>
    <contour>
      <point x="423" y="1244" type="curve" smooth="yes"/>
      <point x="567" y="1244"/>
      <point x="667" y="1325"/>
      <point x="667" y="1458" type="curve" smooth="yes"/>
      <point x="667" y="1590"/>
      <point x="567" y="1672"/>
      <point x="423" y="1672" type="curve" smooth="yes"/>
      <point x="279" y="1672"/>
      <point x="179" y="1590"/>
      <point x="179" y="1458" type="curve" smooth="yes"/>
      <point x="179" y="1325"/>
      <point x="279" y="1244"/>
    </contour>
  </outline>
</glyph>
<glyph name="j" format="2">
  <advance width="780"/>
  <unicode hex="006A"/>
  <anchor x="390" y="-440" name="bottom"/>
  <anchor x="420" y="1584" name="top"/>
  <outline>
    <contour>
      <point x="226" y="-115" type="line"/>
      <point x="630" y="54" type="line"/>
      <point x="630" y="1160" type="line"/>
      <point x="82" y="1160" type="line"/>
      <point x="82" y="950" type="line"/>
      <point x="226" y="950" type="line"/>
    </contour>
    <contour>
      <point x="110" y="-452" type="curve"/>
      <point x="72" y="-282" type="line"/>
      <point x="20" y="-282"/>
      <point x="-18" y="-253"/>
      <point x="-39" y="-219" type="curve"/>
      <point x="-68" y="-320" type="line"/>
      <point x="53" y="-320"/>
      <point x="145" y="-296"/>
      <point x="145" y="-180" type="curve" smooth="yes"/>
      <point x="145" y="-86"/>
      <point x="60" y="-40"/>
      <point x="-40" y="-40" type="curve" smooth="yes"/>
      <point x="-178" y="-40"/>
      <point x="-252" y="-122"/>
      <point x="-252" y="-216" type="curve" smooth="yes"/>
      <point x="-252" y="-358"/>
      <point x="-103" y="-452"/>
    </contour>
    <contour>
      <point x="72" y="-282" type="curve"/>
      <point x="110" y="-452" type="line"/>
      <point x="384" y="-452"/>
      <point x="630" y="-295"/>
      <point x="630" y="54" type="curve"/>
      <point x="226" y="-115" type="line"/>
      <point x="226" y="-235"/>
      <point x="168" y="-282"/>
    </contour>
    <contour>
      <point x="420" y="1244" type="curve" smooth="yes"/>
      <point x="564" y="1244"/>
      <point x="664" y="1325"/>
      <point x="664" y="1458" type="curve" smooth="yes"/>
      <point x="664" y="1590"/>
      <point x="564" y="1672"/>
      <point x="420" y="1672" type="curve" smooth="yes"/>
      <point x="276" y="1672"/>
      <point x="176" y="1590"/>
      <point x="176" y="1458" type="curve" smooth="yes"/>
      <point x="176" y="1325"/>
      <point x="276" y="1244"/>
    </contour>
  </outline>
</glyph>
<glyph name="k" format="2">
  <advance width="1532"/>
  <unicode hex="006B"/>
  <anchor x="778" y="0" name="bottom"/>
  <anchor x="778" y="1580" name="top"/>
  <outline>
    <contour>
      <point x="72" y="0" type="line"/>
      <point x="709" y="0" type="line"/>
      <point x="709" y="210" type="line"/>
      <point x="622" y="210" type="line"/>
      <point x="623" y="1580" type="line"/>
      <point x="79" y="1580" type="line"/>
      <point x="79" y="1370" type="line"/>
      <point x="223" y="1370" type="line"/>
      <point x="222" y="210" type="line"/>
      <point x="72" y="210" type="line"/>
    </contour>
    <contour>
      <point x="814" y="0" type="line"/>
      <point x="1481" y="0" type="line"/>
      <point x="1481" y="210" type="line"/>
      <point x="1374" y="210" type="line"/>
      <point x="961" y="799" type="line"/>
      <point x="688" y="553" type="line"/>
      <point x="916" y="210" type="line"/>
      <point x="814" y="210" type="line"/>
    </contour>
    <contour>
      <point x="602" y="318" type="line"/>
      <point x="1309" y="950" type="line"/>
      <point x="1439" y="950" type="line"/>
      <point x="1439" y="1160" type="line"/>
      <point x="768" y="1160" type="line"/>
      <point x="768" y="950" type="line"/>
      <point x="959" y="950" type="line"/>
      <point x="444" y="482" type="line"/>
    </contour>
  </outline>
</glyph>
<glyph name="l" format="2">
  <advance width="836"/>
  <unicode hex="006C"/>
  <anchor x="422" y="0" name="bottom"/>
  <anchor x="432" y="1160" name="center"/>
  <anchor x="412" y="1580" name="top"/>
  <anchor x="626" y="1580" name="topright"/>
  <outline>
    <contour>
      <point x="72" y="0" type="line"/>
      <point x="764" y="0" type="line"/>
      <point x="764" y="210" type="line"/>
      <point x="626" y="210" type="line"/>
      <point x="626" y="1580" type="line"/>
      <point x="78" y="1580" type="line"/>
      <point x="78" y="1370" type="line"/>
      <point x="222" y="1370" type="line"/>
      <point x="222" y="210" type="line"/>
      <point x="72" y="210" type="line"/>
    </contour>
  </outline>
</glyph>
<glyph name="m" format="2">
  <advance width="2183"/>
  <unicode hex="006D"/>
  <anchor x="1091" y="0" name="bottom"/>
  <anchor x="1091" y="1160" name="top"/>
  <outline>
    <contour>
      <point x="78" y="0" type="line"/>
      <point x="724" y="0" type="line"/>
      <point x="724" y="210" type="line"/>
      <point x="631" y="210" type="line"/>
      <point x="631" y="790" type="line"/>
      <point x="581" y="782" type="line"/>
      <point x="581" y="1160" type="line"/>
      <point x="93" y="1160" type="line"/>
      <point x="93" y="950" type="line"/>
      <point x="237" y="950" type="line"/>
      <point x="237" y="210" type="line"/>
      <point x="78" y="210" type="line"/>
    </contour>
    <contour>
      <point x="824" y="0" type="line"/>
      <point x="1404" y="0" type="line"/>
      <point x="1404" y="210" type="line"/>
      <point x="1311" y="210" type="line"/>
      <point x="1311" y="790" type="line" smooth="yes"/>
      <point x="1311" y="1065"/>
      <point x="1160" y="1186"/>
      <point x="946" y="1186" type="curve" smooth="yes"/>
      <point x="644" y="1186"/>
      <point x="568" y="1007"/>
      <point x="568" y="731" type="curve"/>
      <point x="631" y="733" type="line"/>
      <point x="631" y="873"/>
      <point x="703" y="922"/>
      <point x="786" y="922" type="curve" smooth="yes"/>
      <point x="865" y="922"/>
      <point x="917" y="874"/>
      <point x="917" y="779" type="curve" smooth="yes"/>
      <point x="917" y="210" type="line"/>
      <point x="824" y="210" type="line"/>
    </contour>
    <contour>
      <point x="1504" y="0" type="line"/>
      <point x="2105" y="0" type="line"/>
      <point x="2105" y="210" type="line"/>
      <point x="1991" y="210" type="line"/>
      <point x="1991" y="790" type="line" smooth="yes"/>
      <point x="1991" y="1065"/>
      <point x="1842" y="1186"/>
      <point x="1634" y="1186" type="curve" smooth="yes"/>
      <point x="1338" y="1186"/>
      <point x="1264" y="1007"/>
      <point x="1264" y="731" type="curve"/>
      <point x="1311" y="733" type="line"/>
      <point x="1311" y="873"/>
      <point x="1383" y="922"/>
      <point x="1466" y="922" type="curve" smooth="yes"/>
      <point x="1545" y="922"/>
      <point x="1597" y="874"/>
      <point x="1597" y="779" type="curve" smooth="yes"/>
      <point x="1597" y="210" type="line"/>
      <point x="1504" y="210" type="line"/>
    </contour>
  </outline>
</glyph>
<glyph name="n" format="2">
  <advance width="1547"/>
  <unicode hex="006E"/>
  <anchor x="773" y="0" name="bottom"/>
  <anchor x="767" y="1160" name="top"/>
  <outline>
    <contour>
      <point x="856" y="0" type="line"/>
      <point x="1469" y="0" type="line"/>
      <point x="1469" y="210" type="line"/>
      <point x="1355" y="210" type="line"/>
      <point x="1355" y="783" type="line" smooth="yes"/>
      <point x="1355" y="1064"/>
      <point x="1194" y="1187"/>
      <point x="968" y="1187" type="curve" smooth="yes"/>
      <point x="652" y="1187"/>
      <point x="570" y="1005"/>
      <point x="570" y="724" type="curve"/>
      <point x="637" y="726" type="line"/>
      <point x="637" y="872"/>
      <point x="717" y="923"/>
      <point x="808" y="923" type="curve" smooth="yes"/>
      <point x="896" y="923"/>
      <point x="955" y="872"/>
      <point x="955" y="772" type="curve" smooth="yes"/>
      <point x="955" y="210" type="line"/>
      <point x="856" y="210" type="line"/>
    </contour>
    <contour>
      <point x="78" y="0" type="line"/>
      <point x="736" y="0" type="line"/>
      <point x="736" y="210" type="line"/>
      <point x="637" y="210" type="line"/>
      <point x="637" y="783" type="line"/>
      <point x="587" y="775" type="line"/>
      <point x="587" y="1160" type="line"/>
      <point x="93" y="1160" type="line"/>
      <point x="93" y="950" type="line"/>
      <point x="237" y="950" type="line"/>
      <point x="237" y="210" type="line"/>
      <point x="78" y="210" type="line"/>
    </contour>
  </outline>
</glyph>
<glyph name="p" format="2">
  <advance width="1610"/>
  <unicode hex="0070"/>
  <anchor x="805" y="0" name="bottom"/>
  <anchor x="805" y="1160" name="top"/>
  <outline>
    <contour>
      <point x="983" y="-22" type="curve" smooth="yes"/>
      <point x="1293" y="-22"/>
      <point x="1518" y="194"/>
      <point x="1518" y="580" type="curve" smooth="yes"/>
      <point x="1518" y="966"/>
      <point x="1293" y="1182"/>
      <point x="979" y="1182" type="curve" smooth="yes"/>
      <point x="657" y="1182"/>
      <point x="515" y="956"/>
      <point x="515" y="580" type="curve"/>
      <point x="543" y="580" type="line"/>
      <point x="543" y="194"/>
      <point x="657" y="-22"/>
    </contour>
    <contour>
      <point x="836" y="230" type="curve" smooth="yes"/>
      <point x="682" y="230"/>
      <point x="592" y="350"/>
      <point x="592" y="580" type="curve" smooth="yes"/>
      <point x="592" y="810"/>
      <point x="682" y="930"/>
      <point x="836" y="930" type="curve" smooth="yes"/>
      <point x="988" y="930"/>
      <point x="1078" y="810"/>
      <point x="1078" y="580" type="curve" smooth="yes"/>
      <point x="1078" y="350"/>
      <point x="988" y="230"/>
    </contour>
    <contour>
      <point x="62" y="-420" type="line"/>
      <point x="792" y="-420" type="line"/>
      <point x="792" y="-210" type="line"/>
      <point x="612" y="-210" type="line"/>
      <point x="612" y="334" type="line"/>
      <point x="557" y="581" type="line"/>
      <point x="582" y="746" type="line"/>
      <point x="582" y="1160" type="line"/>
      <point x="68" y="1160" type="line"/>
      <point x="68" y="950" type="line"/>
      <point x="212" y="950" type="line"/>
      <point x="212" y="-210" type="line"/>
      <point x="62" y="-210" type="line"/>
    </contour>
  </outline>
</glyph>
<glyph name="q" format="2">
  <advance width="1556"/>
  <unicode hex="0071"/>
  <anchor x="788" y="0" name="bottom"/>
  <anchor x="788" y="1160" name="top"/>
  <outline>
    <contour>
      <point x="627" y="-22" type="curve" smooth="yes"/>
      <point x="953" y="-22"/>
      <point x="1067" y="204"/>
      <point x="1067" y="580" type="curve"/>
      <point x="1095" y="580" type="line"/>
      <point x="1095" y="946"/>
      <point x="953" y="1182"/>
      <point x="631" y="1182" type="curve" smooth="yes"/>
      <point x="317" y="1182"/>
      <point x="92" y="966"/>
      <point x="92" y="580" type="curve" smooth="yes"/>
      <point x="92" y="194"/>
      <point x="317" y="-22"/>
    </contour>
    <contour>
      <point x="774" y="230" type="curve" smooth="yes"/>
      <point x="622" y="230"/>
      <point x="532" y="350"/>
      <point x="532" y="580" type="curve" smooth="yes"/>
      <point x="532" y="810"/>
      <point x="622" y="930"/>
      <point x="774" y="930" type="curve" smooth="yes"/>
      <point x="928" y="930"/>
      <point x="1018" y="810"/>
      <point x="1018" y="580" type="curve" smooth="yes"/>
      <point x="1018" y="350"/>
      <point x="928" y="230"/>
    </contour>
    <contour>
      <point x="818" y="-420" type="line"/>
      <point x="1536" y="-420" type="line"/>
      <point x="1536" y="-206" type="line"/>
      <point x="1398" y="-206" type="line"/>
      <point x="1398" y="1160" type="line"/>
      <point x="1028" y="1160" type="line"/>
      <point x="1028" y="744" type="line"/>
      <point x="1045" y="581" type="line"/>
      <point x="998" y="334" type="line"/>
      <point x="998" y="-206" type="line"/>
      <point x="818" y="-206" type="line"/>
    </contour>
  </outline>
</glyph>
<glyph name="r" format="2">
  <advance width="1306"/>
  <unicode hex="0072"/>
  <anchor x="469" y="0" name="bottom"/>
  <anchor x="637" y="1160" name="top"/>
  <outline>
    <contour>
      <point x="78" y="0" type="line"/>
      <point x="871" y="0" type="line"/>
      <point x="871" y="210" type="line"/>
      <point x="637" y="210" type="line"/>
      <point x="637" y="769" type="line"/>
      <point x="597" y="761" type="line"/>
      <point x="597" y="1160" type="line"/>
      <point x="93" y="1160" type="line"/>
      <point x="93" y="950" type="line"/>
      <point x="237" y="950" type="line"/>
      <point x="237" y="210" type="line"/>
      <point x="78" y="210" type="line"/>
    </contour>
    <contour>
      <point x="527" y="719" type="curve"/>
      <point x="637" y="719" type="line"/>
      <point x="637" y="936"/>
      <point x="768" y="1025"/>
      <point x="893" y="1025" type="curve" smooth="yes"/>
      <point x="965" y="1025"/>
      <point x="1010" y="1002"/>
      <point x="1026" y="961" type="curve"/>
      <point x="1048" y="1091" type="line"/>
      <point x="888" y="1103"/>
      <point x="820" y="1040"/>
      <point x="820" y="927" type="curve" smooth="yes"/>
      <point x="820" y="830"/>
      <point x="897" y="761"/>
      <point x="1014" y="761" type="curve" smooth="yes"/>
      <point x="1149" y="761"/>
      <point x="1232" y="846"/>
      <point x="1232" y="966" type="curve" smooth="yes"/>
      <point x="1232" y="1095"/>
      <point x="1122" y="1192"/>
      <point x="956" y="1192" type="curve" smooth="yes"/>
      <point x="737" y="1192"/>
      <point x="533" y="1082"/>
    </contour>
  </outline>
</glyph>
<glyph name="u" format="2">
  <advance width="1522"/>
  <unicode hex="0075"/>
  <anchor x="766" y="0" name="bottom"/>
  <anchor x="1252" y="0" name="ogonek"/>
  <anchor x="740" y="1160" name="top"/>
  <anchor x="1304" y="1160" name="topright"/>
  <outline>
    <contour>
      <point x="581" y="-26" type="curve" smooth="yes"/>
      <point x="897" y="-26"/>
      <point x="979" y="156"/>
      <point x="979" y="437" type="curve"/>
      <point x="912" y="435" type="line"/>
      <point x="912" y="289"/>
      <point x="832" y="238"/>
      <point x="741" y="238" type="curve" smooth="yes"/>
      <point x="653" y="238"/>
      <point x="594" y="289"/>
      <point x="594" y="389" type="curve" smooth="yes"/>
      <point x="594" y="1160" type="line"/>
      <point x="80" y="1160" type="line"/>
      <point x="80" y="950" type="line"/>
      <point x="194" y="950" type="line"/>
      <point x="194" y="378" type="line" smooth="yes"/>
      <point x="194" y="97"/>
      <point x="355" y="-26"/>
    </contour>
    <contour>
      <point x="962" y="0" type="line"/>
      <point x="1450" y="0" type="line"/>
      <point x="1450" y="210" type="line"/>
      <point x="1312" y="210" type="line"/>
      <point x="1312" y="1160" type="line"/>
      <point x="768" y="1160" type="line"/>
      <point x="768" y="950" type="line"/>
      <point x="912" y="950" type="line"/>
      <point x="912" y="368" type="line"/>
      <point x="962" y="376" type="line"/>
    </contour>
  </outline>
</glyph>
<glyph name="v" format="2">
  <advance width="1442"/>
  <unicode hex="0076"/>
  <anchor x="721" y="0" name="bottom"/>
  <anchor x="721" y="1160" name="top"/>
  <outline>
    <contour>
      <point x="554" y="0" type="line"/>
      <point x="888" y="0" type="line"/>
      <point x="1294" y="950" type="line"/>
      <point x="1388" y="950" type="line"/>
      <point x="1388" y="1160" type="line"/>
      <point x="852" y="1160" type="line"/>
      <point x="852" y="950" type="line"/>
      <point x="1014" y="950" type="line"/>
      <point x="728" y="272" type="line"/>
      <point x="843" y="270" type="line"/>
      <point x="575" y="950" type="line"/>
      <point x="741" y="950" type="line"/>
      <point x="741" y="1160" type="line"/>
      <point x="54" y="1160" type="line"/>
      <point x="54" y="950" type="line"/>
      <point x="148" y="950" type="line"/>
    </contour>
  </outline>
</glyph>
<glyph name="w" format="2">
  <advance width="2109"/>
  <unicode hex="0077"/>
  <anchor x="1055" y="0" name="bottom"/>
  <anchor x="1055" y="1160" name="top"/>
  <outline>
    <contour>
      <point x="1258" y="0" type="line"/>
      <point x="1583" y="0" type="line"/>
      <point x="1965" y="950" type="line"/>
      <point x="2055" y="950" type="line"/>
      <point x="2055" y="1160" type="line"/>
      <point x="1536" y="1160" type="line"/>
      <point x="1536" y="950" type="line"/>
      <point x="1688" y="950" type="line"/>
      <point x="1419" y="272" type="line"/>
      <point x="1528" y="270" type="line"/>
      <point x="1275" y="950" type="line"/>
      <point x="1429" y="950" type="line"/>
      <point x="1429" y="1160" type="line"/>
      <point x="778" y="1160" type="line"/>
      <point x="778" y="950" type="line"/>
      <point x="876" y="950" type="line"/>
    </contour>
    <contour>
      <point x="526" y="0" type="line"/>
      <point x="854" y="0" type="line"/>
      <point x="1120" y="663" type="line"/>
      <point x="1001" y="1018" type="line"/>
      <point x="705" y="272" type="line"/>
      <point x="814" y="270" type="line"/>
      <point x="561" y="950" type="line"/>
      <point x="673" y="950" type="line"/>
      <point x="673" y="1160" type="line"/>
      <point x="54" y="1160" type="line"/>
      <point x="54" y="950" type="line"/>
      <point x="144" y="950" type="line"/>
    </contour>
  </outline>
</glyph>
<glyph name="x" format="2">
  <advance width="1431"/>
  <unicode hex="0078"/>
  <anchor x="716" y="0" name="bottom"/>
  <anchor x="716" y="1160" name="top"/>
  <outline>
    <contour>
      <point x="50" y="0" type="line"/>
      <point x="596" y="0" type="line"/>
      <point x="596" y="210" type="line"/>
      <point x="483" y="210" type="line"/>
      <point x="719" y="486" type="line"/>
      <point x="592" y="486" type="line"/>
      <point x="813" y="210" type="line"/>
      <point x="694" y="210" type="line"/>
      <point x="694" y="0" type="line"/>
      <point x="1380" y="0" type="line"/>
      <point x="1380" y="210" type="line"/>
      <point x="1280" y="210" type="line"/>
      <point x="903" y="664" type="line"/>
      <point x="552" y="664" type="line"/>
      <point x="155" y="210" type="line"/>
      <point x="50" y="210" type="line"/>
    </contour>
    <contour>
      <point x="515" y="510" type="line"/>
      <point x="872" y="510" type="line"/>
      <point x="1257" y="950" type="line"/>
      <point x="1359" y="950" type="line"/>
      <point x="1359" y="1160" type="line"/>
      <point x="828" y="1160" type="line"/>
      <point x="828" y="950" type="line"/>
      <point x="929" y="950" type="line"/>
      <point x="705" y="688" type="line"/>
      <point x="832" y="688" type="line"/>
      <point x="622" y="950" type="line"/>
      <point x="729" y="950" type="line"/>
      <point x="729" y="1160" type="line"/>
      <point x="58" y="1160" type="line"/>
      <point x="58" y="950" type="line"/>
      <point x="154" y="950" type="line"/>
    </contour>
  </outline>
</glyph>
<glyph name="z" format="2">
  <advance width="1292"/>
  <unicode hex="007A"/>
  <anchor x="648" y="0" name="bottom"/>
  <anchor x="648" y="580" name="center"/>
  <anchor x="665" y="1160" name="top"/>
  <outline>
    <contour>
      <point x="94" y="190" type="line"/>
      <point x="589" y="210" type="line"/>
      <point x="1188" y="970" type="line"/>
      <point x="693" y="950" type="line"/>
    </contour>
    <contour>
      <point x="94" y="0" type="line"/>
      <point x="1174" y="0" type="line"/>
      <point x="1174" y="210" type="line"/>
      <point x="589" y="210" type="line"/>
      <point x="94" y="190" type="line"/>
    </contour>
    <contour>
      <point x="142" y="700" type="line"/>
      <point x="370" y="700" type="line"/>
      <point x="370" y="750" type="line" smooth="yes"/>
      <point x="370" y="900"/>
      <point x="410" y="950"/>
      <point x="550" y="950" type="curve" smooth="yes"/>
      <point x="142" y="950" type="line"/>
    </contour>
    <contour>
      <point x="766" y="210" type="curve" smooth="yes"/>
      <point x="1174" y="210" type="line"/>
      <point x="1174" y="480" type="line"/>
      <point x="946" y="480" type="line"/>
      <point x="946" y="410" type="line" smooth="yes"/>
      <point x="946" y="260"/>
      <point x="906" y="210"/>
    </contour>
    <contour>
      <point x="142" y="950" type="line"/>
      <point x="693" y="950" type="line"/>
      <point x="1188" y="970" type="line"/>
      <point x="1188" y="1160" type="line"/>
      <point x="142" y="1160" type="line"/>
    </contour>
  </outline>
</glyph>
<glyph name="braceleft" format="2">
  <advance width="966"/>
  <unicode hex="007B"/>
  <outline>
    <contour>
      <point x="36" y="738" type="curve"/>
      <point x="36" y="630" type="line"/>
      <point x="298" y="630" type="line"/>
      <point x="534" y="651"/>
      <point x="664" y="735"/>
      <point x="664" y="1017" type="curve" smooth="yes"/>
      <point x="664" y="1228" type="line" smooth="yes"/>
      <point x="664" y="1394"/>
      <point x="739" y="1468"/>
      <point x="894" y="1468" type="curve"/>
      <point x="894" y="1680" type="line"/>
      <point x="734" y="1680" type="line" smooth="yes"/>
      <point x="414" y="1680"/>
      <point x="246" y="1539"/>
      <point x="254" y="1194" type="curve" smooth="yes"/>
      <point x="260" y="927" type="line" smooth="yes"/>
      <point x="263" y="810"/>
      <point x="214" y="738"/>
    </contour>
    <contour>
      <point x="734" y="-420" type="curve" smooth="yes"/>
      <point x="894" y="-420" type="line"/>
      <point x="894" y="-208" type="line"/>
      <point x="739" y="-208"/>
      <point x="664" y="-134"/>
      <point x="664" y="32" type="curve" smooth="yes"/>
      <point x="664" y="243" type="line" smooth="yes"/>
      <point x="664" y="525"/>
      <point x="534" y="609"/>
      <point x="298" y="630" type="curve"/>
      <point x="36" y="630" type="line"/>
      <point x="36" y="522" type="line"/>
      <point x="214" y="522"/>
      <point x="263" y="450"/>
      <point x="260" y="333" type="curve" smooth="yes"/>
      <point x="254" y="66" type="line" smooth="yes"/>
      <point x="246" y="-279"/>
      <point x="414" y="-420"/>
    </contour>
  </outline>
</glyph>
<glyph name="braceright" format="2">
  <advance width="966"/>
  <unicode hex="007D"/>
  <outline>
    <contour>
      <point x="930" y="738" type="line"/>
      <point x="752" y="738"/>
      <point x="703" y="810"/>
      <point x="706" y="927" type="curve" smooth="yes"/>
      <point x="712" y="1194" type="line" smooth="yes"/>
      <point x="720" y="1539"/>
      <point x="552" y="1680"/>
      <point x="232" y="1680" type="curve" smooth="yes"/>
      <point x="72" y="1680" type="line"/>
      <point x="72" y="1468" type="line"/>
      <point x="227" y="1468"/>
      <point x="302" y="1394"/>
      <point x="302" y="1228" type="curve" smooth="yes"/>
      <point x="302" y="1017" type="line" smooth="yes"/>
      <point x="302" y="735"/>
      <point x="432" y="651"/>
      <point x="668" y="630" type="curve"/>
      <point x="930" y="630" type="line"/>
    </contour>
    <contour>
      <point x="232" y="-420" type="line" smooth="yes"/>
      <point x="552" y="-420"/>
      <point x="720" y="-279"/>
      <point x="712" y="66" type="curve" smooth="yes"/>
      <point x="706" y="333" type="line" smooth="yes"/>
      <point x="703" y="450"/>
      <point x="752" y="522"/>
      <point x="930" y="522" type="curve"/>
      <point x="930" y="630" type="line"/>
      <point x="668" y="630" type="line"/>
      <point x="432" y="609"/>
      <point x="302" y="525"/>
      <point x="302" y="243" type="curve" smooth="yes"/>
      <point x="302" y="32" type="line" smooth="yes"/>
      <point x="302" y="-134"/>
      <point x="227" y="-208"/>
      <point x="72" y="-208" type="curve"/>
      <point x="72" y="-420" type="line"/>
    </contour>
  </outline>
</glyph>
<glyph name="exclamdown" format="2">
  <advance width="680"/>
  <unicode hex="00A1"/>
  <outline>
    <contour>
      <point x="453" y="588" type="curve"/>
      <point x="227" y="588" type="line"/>
      <point x="135" y="242"/>
      <point x="82" y="31"/>
      <point x="82" y="-87" type="curve" smooth="yes"/>
      <point x="82" y="-260"/>
      <point x="185" y="-362"/>
      <point x="340" y="-362" type="curve" smooth="yes"/>
      <point x="495" y="-362"/>
      <point x="598" y="-260"/>
      <point x="598" y="-87" type="curve" smooth="yes"/>
      <point x="598" y="31"/>
      <point x="545" y="242"/>
    </contour>
    <contour>
      <point x="340" y="1182" type="curve" smooth="yes"/>
      <point x="184" y="1182"/>
      <point x="83" y="1081"/>
      <point x="83" y="936" type="curve" smooth="yes"/>
      <point x="83" y="791"/>
      <point x="184" y="690"/>
      <point x="340" y="690" type="curve" smooth="yes"/>
      <point x="495" y="690"/>
      <point x="597" y="791"/>
      <point x="597" y="936" type="curve" smooth="yes"/>
      <point x="597" y="1081"/>
      <point x="495" y="1182"/>
    </contour>
  </outline>
</glyph>
<glyph name="cent" format="2">
  <advance width="1348"/>
  <unicode hex="00A2"/>
  <outline>
    <contour>
      <point x="713" y="146" type="curve" smooth="yes"/>
      <point x="1049" y="146"/>
      <point x="1251" y="365"/>
      <point x="1258" y="637" type="curve"/>
      <point x="1030" y="637" type="line"/>
      <point x="1008" y="530"/>
      <point x="924" y="446"/>
      <point x="790" y="446" type="curve" smooth="yes"/>
      <point x="592" y="446"/>
      <point x="481" y="598"/>
      <point x="481" y="811" type="curve" smooth="yes"/>
      <point x="481" y="1018"/>
      <point x="593" y="1160"/>
      <point x="776" y="1160" type="curve"/>
      <point x="723" y="1358" type="line"/>
      <point x="350" y="1358"/>
      <point x="82" y="1143"/>
      <point x="82" y="753" type="curve" smooth="yes"/>
      <point x="82" y="362"/>
      <point x="345" y="146"/>
    </contour>
    <contour>
      <point x="648" y="0" type="line"/>
      <point x="860" y="0" type="line"/>
      <point x="860" y="1500" type="line"/>
      <point x="648" y="1500" type="line"/>
    </contour>
    <contour>
      <point x="1093" y="841" type="curve" smooth="yes"/>
      <point x="1182" y="841"/>
      <point x="1250" y="899"/>
      <point x="1250" y="1002" type="curve" smooth="yes"/>
      <point x="1250" y="1184"/>
      <point x="1038" y="1358"/>
      <point x="723" y="1358" type="curve"/>
      <point x="776" y="1160" type="line"/>
      <point x="909" y="1160"/>
      <point x="986" y="1117"/>
      <point x="1066" y="1006" type="curve"/>
      <point x="1081" y="1112" type="line"/>
      <point x="1002" y="1122"/>
      <point x="935" y="1072"/>
      <point x="935" y="974" type="curve" smooth="yes"/>
      <point x="935" y="899"/>
      <point x="997" y="841"/>
    </contour>
  </outline>
</glyph>
<glyph name="yen" format="2">
  <advance width="1752"/>
  <unicode hex="00A5"/>
  <anchor x="876" y="0" name="bottom"/>
  <anchor x="952" y="1500" name="top"/>
  <anchor x="21" y="1500" name="topleft"/>
  <outline>
    <contour>
      <point x="176" y="388" type="line"/>
      <point x="1576" y="388" type="line"/>
      <point x="1576" y="618" type="line"/>
      <point x="176" y="618" type="line"/>
    </contour>
    <contour>
      <point x="176" y="768" type="line"/>
      <point x="608" y="768" type="line"/>
      <point x="452" y="998" type="line"/>
      <point x="176" y="998" type="line"/>
    </contour>
    <contour>
      <point x="1146" y="768" type="line"/>
      <point x="1576" y="768" type="line"/>
      <point x="1576" y="998" type="line"/>
      <point x="1303" y="998" type="line"/>
    </contour>
    <contour>
      <point x="681" y="528" type="line"/>
      <point x="1071" y="528" type="line"/>
      <point x="1586" y="1286" type="line"/>
      <point x="1718" y="1286" type="line"/>
      <point x="1718" y="1500" type="line"/>
      <point x="1105" y="1500" type="line"/>
      <point x="1105" y="1286" type="line"/>
      <point x="1283" y="1286" type="line"/>
      <point x="924" y="751" type="line"/>
      <point x="1025" y="751" type="line"/>
      <point x="669" y="1286" type="line"/>
      <point x="846" y="1286" type="line"/>
      <point x="846" y="1500" type="line"/>
      <point x="34" y="1500" type="line"/>
      <point x="34" y="1286" type="line"/>
      <point x="166" y="1286" type="line"/>
    </contour>
    <contour>
      <point x="456" y="0" type="line"/>
      <point x="1296" y="0" type="line"/>
      <point x="1296" y="214" type="line"/>
      <point x="1086" y="214" type="line"/>
      <point x="1086" y="772" type="line"/>
      <point x="666" y="772" type="line"/>
      <point x="666" y="214" type="line"/>
      <point x="456" y="214" type="line"/>
    </contour>
  </outline>
</glyph>
<glyph name="ordfeminine" format="2">
  <advance width="1179"/>
  <unicode hex="00AA"/>
  <outline>
    <contour>
      <point x="285" y="1207" type="curve" smooth="yes"/>
      <point x="368" y="1207"/>
      <point x="416" y="1250"/>
      <point x="418" y="1309" type="curve" smooth="yes"/>
      <point x="420" y="1368"/>
      <point x="376" y="1396"/>
      <point x="297" y="1404" type="curve"/>
      <point x="333" y="1295" type="line"/>
      <point x="350" y="1350"/>
      <point x="392" y="1377"/>
      <point x="453" y="1377" type="curve" smooth="yes"/>
      <point x="513" y="1377"/>
      <point x="561" y="1352"/>
      <point x="561" y="1292" type="curve"/>
      <point x="826" y="1208" type="line"/>
      <point x="828" y="1404"/>
      <point x="720" y="1512"/>
      <point x="502" y="1512" type="curve" smooth="yes"/>
      <point x="320" y="1512"/>
      <point x="139" y="1444"/>
      <point x="139" y="1320" type="curve" smooth="yes"/>
      <point x="139" y="1243"/>
      <point x="209" y="1207"/>
    </contour>
    <contour>
      <point x="847" y="678" type="curve" smooth="yes"/>
      <point x="1020" y="678"/>
      <point x="1104" y="784"/>
      <point x="1104" y="955" type="curve" smooth="yes"/>
      <point x="1104" y="1082" type="line"/>
      <point x="942" y="1082" type="line"/>
      <point x="942" y="938" type="line" smooth="yes"/>
      <point x="942" y="900"/>
      <point x="923" y="872"/>
      <point x="885" y="872" type="curve" smooth="yes"/>
      <point x="847" y="872"/>
      <point x="826" y="900"/>
      <point x="826" y="938" type="curve" smooth="yes"/>
      <point x="826" y="1208" type="line"/>
      <point x="561" y="1292" type="line"/>
      <point x="561" y="1212" type="line"/>
      <point x="552" y="1109" type="line"/>
      <point x="558" y="1109" type="line"/>
      <point x="558" y="950" type="line"/>
      <point x="580" y="950" type="line"/>
      <point x="580" y="949" type="line" smooth="yes"/>
      <point x="580" y="777"/>
      <point x="668" y="678"/>
    </contour>
    <contour>
      <point x="339" y="678" type="curve" smooth="yes"/>
      <point x="505" y="678"/>
      <point x="632" y="767"/>
      <point x="626" y="1010" type="curve"/>
      <point x="558" y="1010" type="line"/>
      <point x="558" y="912"/>
      <point x="505" y="878"/>
      <point x="457" y="878" type="curve" smooth="yes"/>
      <point x="409" y="878"/>
      <point x="374" y="904"/>
      <point x="374" y="951" type="curve" smooth="yes"/>
      <point x="374" y="999"/>
      <point x="409" y="1024"/>
      <point x="457" y="1046" type="curve" smooth="yes"/>
      <point x="479" y="1056" type="line" smooth="yes"/>
      <point x="519" y="1074"/>
      <point x="543" y="1085"/>
      <point x="558" y="1109" type="curve"/>
      <point x="564" y="1109" type="line"/>
      <point x="561" y="1291" type="line" smooth="yes"/>
      <point x="561" y="1230"/>
      <point x="516" y="1204"/>
      <point x="448" y="1185" type="curve" smooth="yes"/>
      <point x="312" y="1146" type="line" smooth="yes"/>
      <point x="172" y="1106"/>
      <point x="83" y="1043"/>
      <point x="83" y="896" type="curve" smooth="yes"/>
      <point x="83" y="755"/>
      <point x="197" y="678"/>
    </contour>
  </outline>
</glyph>
<glyph name="guillemetleft" format="2">
  <advance width="1074"/>
  <unicode hex="00AB"/>
  <outline>
    <contour>
      <point x="582" y="185" type="line"/>
      <point x="379" y="605" type="line"/>
      <point x="582" y="1025" type="line"/>
      <point x="356" y="1025" type="line"/>
      <point x="38" y="605" type="line"/>
      <point x="356" y="185" type="line"/>
    </contour>
    <contour>
      <point x="998" y="185" type="line"/>
      <point x="857" y="605" type="line"/>
      <point x="998" y="1025" type="line"/>
      <point x="778" y="1025" type="line"/>
      <point x="516" y="605" type="line"/>
      <point x="778" y="185" type="line"/>
    </contour>
  </outline>
</glyph>
<glyph name="macron" format="2">
  <advance width="900"/>
  <unicode hex="00AF"/>
  <anchor x="450" y="1160" name="_top"/>
  <outline>
    <contour>
      <point x="80" y="1310" type="line"/>
      <point x="820" y="1310" type="line"/>
      <point x="820" y="1510" type="line"/>
      <point x="80" y="1510" type="line"/>
    </contour>
  </outline>
</glyph>
<glyph name="plusminus" format="2">
  <advance width="1340"/>
  <unicode hex="00B1"/>
  <outline>
    <contour>
      <point x="139" y="692" type="line"/>
      <point x="1201" y="692" type="line"/>
      <point x="1201" y="1004" type="line"/>
      <point x="139" y="1004" type="line"/>
    </contour>
    <contour>
      <point x="139" y="0" type="line"/>
      <point x="1201" y="0" type="line"/>
      <point x="1201" y="312" type="line"/>
      <point x="139" y="312" type="line"/>
    </contour>
    <contour>
      <point x="505" y="406" type="line"/>
      <point x="835" y="406" type="line"/>
      <point x="835" y="1290" type="line"/>
      <point x="505" y="1290" type="line"/>
    </contour>
  </outline>
</glyph>
<glyph name="twosuperior" format="2">
  <advance width="851"/>
  <unicode hex="00B2"/>
  <outline>
    <contour>
      <point x="42" y="735" type="curve" smooth="yes"/>
      <point x="42" y="690" type="line"/>
      <point x="224" y="894" type="line"/>
      <point x="257" y="938"/>
      <point x="302" y="960"/>
      <point x="396" y="975" type="curve" smooth="yes"/>
      <point x="457" y="985" type="line" smooth="yes"/>
      <point x="628" y="1013"/>
      <point x="801" y="1065"/>
      <point x="801" y="1255" type="curve"/>
      <point x="501" y="1286" type="line"/>
      <point x="501" y="1228"/>
      <point x="459" y="1204"/>
      <point x="398" y="1177" type="curve" smooth="yes"/>
      <point x="335" y="1149" type="line" smooth="yes"/>
      <point x="155" y="1069"/>
      <point x="42" y="941"/>
    </contour>
    <contour>
      <point x="42" y="690" type="line"/>
      <point x="793" y="690" type="line"/>
      <point x="793" y="894" type="line"/>
      <point x="224" y="894" type="line"/>
      <point x="42" y="735" type="line"/>
    </contour>
    <contour>
      <point x="524" y="894" type="curve" smooth="yes"/>
      <point x="793" y="894" type="line"/>
      <point x="793" y="984" type="line"/>
      <point x="635" y="984" type="line"/>
      <point x="635" y="982" type="line" smooth="yes"/>
      <point x="635" y="927"/>
      <point x="620" y="894"/>
    </contour>
    <contour>
      <point x="212" y="1162" type="curve" smooth="yes"/>
      <point x="293" y="1162"/>
      <point x="337" y="1207"/>
      <point x="337" y="1264" type="curve" smooth="yes"/>
      <point x="337" y="1323"/>
      <point x="269" y="1355"/>
      <point x="189" y="1340" type="curve"/>
      <point x="207" y="1287" type="line"/>
      <point x="211" y="1343"/>
      <point x="284" y="1369"/>
      <point x="368" y="1369" type="curve" smooth="yes"/>
      <point x="451" y="1369"/>
      <point x="501" y="1342"/>
      <point x="501" y="1286" type="curve"/>
      <point x="801" y="1255" type="line"/>
      <point x="801" y="1433"/>
      <point x="642" y="1513"/>
      <point x="443" y="1513" type="curve" smooth="yes"/>
      <point x="231" y="1513"/>
      <point x="66" y="1432"/>
      <point x="66" y="1298" type="curve" smooth="yes"/>
      <point x="66" y="1202"/>
      <point x="139" y="1162"/>
    </contour>
  </outline>
</glyph>
<glyph name="acute" format="2">
  <advance width="700"/>
  <unicode hex="00B4"/>
  <anchor x="249" y="1160" name="_top"/>
  <outline>
    <contour>
      <point x="80" y="1290" type="line"/>
      <point x="342" y="1290" type="line"/>
      <point x="620" y="1590" type="line"/>
      <point x="212" y="1590" type="line"/>
    </contour>
  </outline>
</glyph>
<glyph name="cedilla" format="2">
  <advance width="662"/>
  <unicode hex="00B8"/>
  <anchor x="317" y="0" name="_bottom"/>
  <outline>
    <contour>
      <point x="339" y="-440" type="curve" smooth="yes"/>
      <point x="479" y="-440"/>
      <point x="582" y="-379"/>
      <point x="582" y="-246" type="curve" smooth="yes"/>
      <point x="582" y="-124"/>
      <point x="477" y="-84"/>
      <point x="392" y="-84" type="curve" smooth="yes"/>
      <point x="386" y="-84" type="line"/>
      <point x="395" y="10" type="line"/>
      <point x="241" y="10" type="line"/>
      <point x="216" y="-216" type="line"/>
      <point x="331" y="-216" type="line" smooth="yes"/>
      <point x="359" y="-216"/>
      <point x="380" y="-228"/>
      <point x="380" y="-253" type="curve" smooth="yes"/>
      <point x="380" y="-281"/>
      <point x="360" y="-297"/>
      <point x="311" y="-298" type="curve" smooth="yes"/>
      <point x="249" y="-299"/>
      <point x="189" y="-272"/>
      <point x="138" y="-243" type="curve"/>
      <point x="80" y="-355" type="line"/>
      <point x="142" y="-405"/>
      <point x="239" y="-440"/>
    </contour>
  </outline>
</glyph>
<glyph name="onesuperior" format="2">
  <advance width="659"/>
  <unicode hex="00B9"/>
  <outline>
    <contour>
      <point x="108" y="690" type="line"/>
      <point x="637" y="690" type="line"/>
      <point x="637" y="838" type="line"/>
      <point x="536" y="838" type="line"/>
      <point x="536" y="1500" type="line"/>
      <point x="301" y="1500" type="line"/>
      <point x="301" y="1498" type="line" smooth="yes"/>
      <point x="301" y="1397"/>
      <point x="225" y="1331"/>
      <point x="56" y="1331" type="curve" smooth="yes"/>
      <point x="46" y="1331" type="line"/>
      <point x="46" y="1191" type="line"/>
      <point x="236" y="1191" type="line"/>
      <point x="236" y="838" type="line"/>
      <point x="108" y="838" type="line"/>
    </contour>
  </outline>
</glyph>
<glyph name="ordmasculine" format="2">
  <advance width="1111"/>
  <unicode hex="00BA"/>
  <outline>
    <contour>
      <point x="556" y="678" type="curve" smooth="yes"/>
      <point x="824" y="678"/>
      <point x="1035" y="819"/>
      <point x="1035" y="1095" type="curve" smooth="yes"/>
      <point x="1035" y="1370"/>
      <point x="825" y="1512"/>
      <point x="556" y="1512" type="curve" smooth="yes"/>
      <point x="287" y="1512"/>
      <point x="76" y="1370"/>
      <point x="76" y="1095" type="curve" smooth="yes"/>
      <point x="76" y="819"/>
      <point x="286" y="678"/>
    </contour>
    <contour>
      <point x="556" y="838" type="curve" smooth="yes"/>
      <point x="458" y="838"/>
      <point x="396" y="927"/>
      <point x="396" y="1095" type="curve" smooth="yes"/>
      <point x="396" y="1262"/>
      <point x="459" y="1352"/>
      <point x="556" y="1352" type="curve" smooth="yes"/>
      <point x="651" y="1352"/>
      <point x="715" y="1267"/>
      <point x="715" y="1107" type="curve" smooth="yes"/>
      <point x="715" y="931"/>
      <point x="651" y="838"/>
    </contour>
  </outline>
</glyph>
<glyph name="onequarter" format="2">
  <advance width="3114"/>
  <unicode hex="00BC"/>
  <outline>
    <contour>
      <point x="108" y="690" type="line"/>
      <point x="637" y="690" type="line"/>
      <point x="637" y="838" type="line"/>
      <point x="536" y="838" type="line"/>
      <point x="536" y="1500" type="line"/>
      <point x="301" y="1500" type="line"/>
      <point x="301" y="1498" type="line" smooth="yes"/>
      <point x="301" y="1397"/>
      <point x="225" y="1331"/>
      <point x="56" y="1331" type="curve" smooth="yes"/>
      <point x="46" y="1331" type="line"/>
      <point x="46" y="1191" type="line"/>
      <point x="236" y="1191" type="line"/>
      <point x="236" y="838" type="line"/>
      <point x="108" y="838" type="line"/>
    </contour>
    <contour>
      <point x="713" y="0" type="line"/>
      <point x="1003" y="0" type="line"/>
      <point x="2127" y="1500" type="line"/>
      <point x="1837" y="1500" type="line"/>
    </contour>
    <contour>
      <point x="2481" y="0" type="line"/>
      <point x="3015" y="0" type="line"/>
      <point x="3015" y="148" type="line"/>
      <point x="2915" y="148" type="line"/>
      <point x="2915" y="810" type="line"/>
      <point x="2634" y="810" type="line"/>
      <point x="2621" y="766" type="line"/>
      <point x="2621" y="148" type="line"/>
      <point x="2481" y="148" type="line"/>
    </contour>
    <contour>
      <point x="2225" y="242" type="line"/>
      <point x="3072" y="242" type="line"/>
      <point x="3072" y="390" type="line"/>
      <point x="2276" y="390" type="line"/>
      <point x="2225" y="377" type="line"/>
    </contour>
    <contour>
      <point x="2225" y="377" type="line"/>
      <point x="2409" y="377" type="line"/>
      <point x="2631" y="612" type="line"/>
      <point x="2634" y="810" type="line"/>
    </contour>
  </outline>
</glyph>
<glyph name="onehalf" format="2">
  <advance width="3032"/>
  <unicode hex="00BD"/>
  <outline>
    <contour>
      <point x="108" y="690" type="line"/>
      <point x="637" y="690" type="line"/>
      <point x="637" y="838" type="line"/>
      <point x="536" y="838" type="line"/>
      <point x="536" y="1500" type="line"/>
      <point x="301" y="1500" type="line"/>
      <point x="301" y="1498" type="line" smooth="yes"/>
      <point x="301" y="1397"/>
      <point x="225" y="1331"/>
      <point x="56" y="1331" type="curve" smooth="yes"/>
      <point x="46" y="1331" type="line"/>
      <point x="46" y="1191" type="line"/>
      <point x="236" y="1191" type="line"/>
      <point x="236" y="838" type="line"/>
      <point x="108" y="838" type="line"/>
    </contour>
    <contour>
      <point x="713" y="0" type="line"/>
      <point x="1003" y="0" type="line"/>
      <point x="2127" y="1500" type="line"/>
      <point x="1837" y="1500" type="line"/>
    </contour>
    <contour>
      <point x="2223" y="45" type="curve" smooth="yes"/>
      <point x="2223" y="0" type="line"/>
      <point x="2405" y="204" type="line"/>
      <point x="2438" y="248"/>
      <point x="2483" y="270"/>
      <point x="2577" y="285" type="curve" smooth="yes"/>
      <point x="2638" y="295" type="line" smooth="yes"/>
      <point x="2809" y="323"/>
      <point x="2982" y="375"/>
      <point x="2982" y="565" type="curve"/>
      <point x="2682" y="596" type="line"/>
      <point x="2682" y="538"/>
      <point x="2640" y="514"/>
      <point x="2579" y="487" type="curve" smooth="yes"/>
      <point x="2516" y="459" type="line" smooth="yes"/>
      <point x="2336" y="379"/>
      <point x="2223" y="251"/>
    </contour>
    <contour>
      <point x="2223" y="0" type="line"/>
      <point x="2974" y="0" type="line"/>
      <point x="2974" y="204" type="line"/>
      <point x="2405" y="204" type="line"/>
      <point x="2223" y="45" type="line"/>
    </contour>
    <contour>
      <point x="2705" y="204" type="curve" smooth="yes"/>
      <point x="2974" y="204" type="line"/>
      <point x="2974" y="294" type="line"/>
      <point x="2816" y="294" type="line"/>
      <point x="2816" y="292" type="line" smooth="yes"/>
      <point x="2816" y="237"/>
      <point x="2801" y="204"/>
    </contour>
    <contour>
      <point x="2393" y="472" type="curve" smooth="yes"/>
      <point x="2474" y="472"/>
      <point x="2518" y="517"/>
      <point x="2518" y="574" type="curve" smooth="yes"/>
      <point x="2518" y="633"/>
      <point x="2450" y="665"/>
      <point x="2370" y="650" type="curve"/>
      <point x="2388" y="597" type="line"/>
      <point x="2392" y="653"/>
      <point x="2465" y="679"/>
      <point x="2549" y="679" type="curve" smooth="yes"/>
      <point x="2632" y="679"/>
      <point x="2682" y="652"/>
      <point x="2682" y="596" type="curve"/>
      <point x="2982" y="565" type="line"/>
      <point x="2982" y="743"/>
      <point x="2823" y="823"/>
      <point x="2624" y="823" type="curve" smooth="yes"/>
      <point x="2412" y="823"/>
      <point x="2247" y="742"/>
      <point x="2247" y="608" type="curve" smooth="yes"/>
      <point x="2247" y="512"/>
      <point x="2320" y="472"/>
    </contour>
  </outline>
</glyph>
<glyph name="threequarters" format="2">
  <advance width="3307"/>
  <unicode hex="00BE"/>
  <outline>
    <contour>
      <point x="432" y="677" type="curve" smooth="yes"/>
      <point x="682" y="677"/>
      <point x="800" y="803"/>
      <point x="800" y="944" type="curve" smooth="yes"/>
      <point x="800" y="1095"/>
      <point x="644" y="1190"/>
      <point x="312" y="1171" type="curve"/>
      <point x="312" y="1061" type="line"/>
      <point x="425" y="1059"/>
      <point x="500" y="1031"/>
      <point x="500" y="964" type="curve" smooth="yes"/>
      <point x="500" y="914"/>
      <point x="459" y="879"/>
      <point x="366" y="879" type="curve" smooth="yes"/>
      <point x="274" y="879"/>
      <point x="208" y="927"/>
      <point x="202" y="1018" type="curve"/>
      <point x="52" y="1018" type="line"/>
      <point x="31" y="800"/>
      <point x="188" y="677"/>
    </contour>
    <contour>
      <point x="312" y="1191" type="curve"/>
      <point x="312" y="1117" type="line"/>
      <point x="632" y="1109"/>
      <point x="772" y="1183"/>
      <point x="772" y="1313" type="curve" smooth="yes"/>
      <point x="772" y="1435"/>
      <point x="620" y="1513"/>
      <point x="420" y="1513" type="curve" smooth="yes"/>
      <point x="231" y="1513"/>
      <point x="72" y="1438"/>
      <point x="72" y="1328" type="curve" smooth="yes"/>
      <point x="72" y="1242"/>
      <point x="141" y="1208"/>
      <point x="212" y="1205" type="curve" smooth="yes"/>
      <point x="294" y="1202"/>
      <point x="343" y="1243"/>
      <point x="343" y="1291" type="curve" smooth="yes"/>
      <point x="343" y="1355"/>
      <point x="283" y="1386"/>
      <point x="201" y="1370" type="curve"/>
      <point x="207" y="1310" type="line"/>
      <point x="229" y="1352"/>
      <point x="281" y="1373"/>
      <point x="363" y="1373" type="curve" smooth="yes"/>
      <point x="437" y="1373"/>
      <point x="485" y="1345"/>
      <point x="485" y="1287" type="curve" smooth="yes"/>
      <point x="485" y="1218"/>
      <point x="423" y="1191"/>
    </contour>
    <contour>
      <point x="906" y="0" type="line"/>
      <point x="1196" y="0" type="line"/>
      <point x="2320" y="1500" type="line"/>
      <point x="2030" y="1500" type="line"/>
    </contour>
    <contour>
      <point x="2674" y="0" type="line"/>
      <point x="3208" y="0" type="line"/>
      <point x="3208" y="148" type="line"/>
      <point x="3108" y="148" type="line"/>
      <point x="3108" y="810" type="line"/>
      <point x="2827" y="810" type="line"/>
      <point x="2814" y="766" type="line"/>
      <point x="2814" y="148" type="line"/>
      <point x="2674" y="148" type="line"/>
    </contour>
    <contour>
      <point x="2418" y="242" type="line"/>
      <point x="3265" y="242" type="line"/>
      <point x="3265" y="390" type="line"/>
      <point x="2469" y="390" type="line"/>
      <point x="2418" y="377" type="line"/>
    </contour>
    <contour>
      <point x="2418" y="377" type="line"/>
      <point x="2602" y="377" type="line"/>
      <point x="2824" y="612" type="line"/>
      <point x="2827" y="810" type="line"/>
    </contour>
  </outline>
</glyph>
<glyph name="questiondown" format="2">
  <advance width="1228"/>
  <unicode hex="00BF"/>
  <outline>
    <contour>
      <point x="943" y="218" type="curve" smooth="yes"/>
      <point x="816" y="223"/>
      <point x="747" y="143"/>
      <point x="747" y="48" type="curve" smooth="yes"/>
      <point x="747" y="-57"/>
      <point x="847" y="-112"/>
      <point x="983" y="-88" type="curve"/>
      <point x="963" y="-5" type="line"/>
      <point x="936" y="-97"/>
      <point x="819" y="-144"/>
      <point x="662" y="-144" type="curve" smooth="yes"/>
      <point x="519" y="-144"/>
      <point x="436" y="-93"/>
      <point x="436" y="-2" type="curve"/>
      <point x="32" y="37" type="line"/>
      <point x="32" y="-218"/>
      <point x="278" y="-362"/>
      <point x="606" y="-362" type="curve" smooth="yes"/>
      <point x="938" y="-362"/>
      <point x="1174" y="-226"/>
      <point x="1174" y="-16" type="curve" smooth="yes"/>
      <point x="1174" y="146"/>
      <point x="1059" y="213"/>
    </contour>
    <contour>
      <point x="616" y="1182" type="curve" smooth="yes"/>
      <point x="460" y="1182"/>
      <point x="359" y="1081"/>
      <point x="359" y="936" type="curve" smooth="yes"/>
      <point x="359" y="791"/>
      <point x="460" y="690"/>
      <point x="616" y="690" type="curve" smooth="yes"/>
      <point x="772" y="690"/>
      <point x="873" y="791"/>
      <point x="873" y="936" type="curve" smooth="yes"/>
      <point x="873" y="1081"/>
      <point x="772" y="1182"/>
    </contour>
    <contour>
      <point x="729" y="588" type="curve"/>
      <point x="503" y="588" type="line"/>
      <point x="496" y="513"/>
      <point x="457" y="482"/>
      <point x="396" y="455" type="curve" smooth="yes"/>
      <point x="218" y="375"/>
      <point x="32" y="299"/>
      <point x="32" y="37" type="curve"/>
      <point x="436" y="-2" type="line"/>
      <point x="436" y="94"/>
      <point x="520" y="130"/>
      <point x="629" y="197" type="curve" smooth="yes"/>
      <point x="783" y="292"/>
      <point x="818" y="442"/>
    </contour>
  </outline>
</glyph>
<glyph name="Atilde" format="2">
  <advance width="1824"/>
  <unicode hex="00C3"/>
  <anchor x="912" y="0" name="bottom"/>
  <anchor x="1642" y="0" name="ogonek"/>
  <anchor x="912" y="1900" name="top"/>
  <outline>
    <contour>
      <point x="34" y="0" type="line"/>
      <point x="660" y="0" type="line"/>
      <point x="660" y="214" type="line"/>
      <point x="454" y="214" type="line"/>
      <point x="895" y="1269" type="line"/>
      <point x="764" y="1270" type="line"/>
      <point x="1194" y="214" type="line"/>
      <point x="986" y="214" type="line"/>
      <point x="986" y="0" type="line"/>
      <point x="1790" y="0" type="line"/>
      <point x="1790" y="214" type="line"/>
      <point x="1651" y="214" type="line"/>
      <point x="1106" y="1500" type="line"/>
      <point x="718" y="1500" type="line"/>
      <point x="173" y="214" type="line"/>
      <point x="34" y="214" type="line"/>
    </contour>
    <contour>
      <point x="486" y="425" type="line"/>
      <point x="1184" y="425" type="line"/>
      <point x="1184" y="649" type="line"/>
      <point x="486" y="649" type="line"/>
    </contour>
    <contour>
      <point x="1076" y="1608" type="curve" smooth="yes"/>
      <point x="1200" y="1608"/>
      <point x="1268" y="1693"/>
      <point x="1268" y="1844" type="curve" smooth="yes"/>
      <point x="1268" y="1930" type="line"/>
      <point x="1102" y="1930" type="line"/>
      <point x="1102" y="1894" type="line" smooth="yes"/>
      <point x="1102" y="1845"/>
      <point x="1087" y="1818"/>
      <point x="1050" y="1818" type="curve" smooth="yes"/>
      <point x="1021" y="1818"/>
      <point x="1002" y="1829"/>
      <point x="973" y="1850" type="curve" smooth="yes"/>
      <point x="939" y="1875" type="line"/>
      <point x="851" y="1710" type="line"/>
      <point x="885" y="1685" type="line" smooth="yes"/>
      <point x="943" y="1642"/>
      <point x="997" y="1608"/>
    </contour>
    <contour>
      <point x="556" y="1716" type="curve" smooth="yes"/>
      <point x="556" y="1630" type="line"/>
      <point x="722" y="1630" type="line"/>
      <point x="722" y="1666" type="line" smooth="yes"/>
      <point x="722" y="1715"/>
      <point x="737" y="1742"/>
      <point x="774" y="1742" type="curve" smooth="yes"/>
      <point x="803" y="1742"/>
      <point x="822" y="1731"/>
      <point x="851" y="1710" type="curve" smooth="yes"/>
      <point x="885" y="1685" type="line"/>
      <point x="973" y="1850" type="line"/>
      <point x="939" y="1875" type="line" smooth="yes"/>
      <point x="881" y="1918"/>
      <point x="827" y="1952"/>
      <point x="748" y="1952" type="curve" smooth="yes"/>
      <point x="624" y="1952"/>
      <point x="556" y="1867"/>
    </contour>
  </outline>
</glyph>
<glyph name="Adieresis" format="2">
  <advance width="1824"/>
  <unicode hex="00C4"/>
  <anchor x="912" y="0" name="bottom"/>
  <anchor x="1642" y="0" name="ogonek"/>
  <anchor x="912" y="1924" name="top"/>
  <outline>
    <contour>
      <point x="34" y="0" type="line"/>
      <point x="660" y="0" type="line"/>
      <point x="660" y="214" type="line"/>
      <point x="454" y="214" type="line"/>
      <point x="895" y="1269" type="line"/>
      <point x="764" y="1270" type="line"/>
      <point x="1194" y="214" type="line"/>
      <point x="986" y="214" type="line"/>
      <point x="986" y="0" type="line"/>
      <point x="1790" y="0" type="line"/>
      <point x="1790" y="214" type="line"/>
      <point x="1651" y="214" type="line"/>
      <point x="1106" y="1500" type="line"/>
      <point x="718" y="1500" type="line"/>
      <point x="173" y="214" type="line"/>
      <point x="34" y="214" type="line"/>
    </contour>
    <contour>
      <point x="486" y="425" type="line"/>
      <point x="1184" y="425" type="line"/>
      <point x="1184" y="649" type="line"/>
      <point x="486" y="649" type="line"/>
    </contour>
    <contour>
      <point x="1157" y="1592" type="curve" smooth="yes"/>
      <point x="1273" y="1592"/>
      <point x="1352" y="1668"/>
      <point x="1352" y="1792" type="curve" smooth="yes"/>
      <point x="1352" y="1915"/>
      <point x="1273" y="1991"/>
      <point x="1157" y="1991" type="curve" smooth="yes"/>
      <point x="1041" y="1991"/>
      <point x="962" y="1915"/>
      <point x="962" y="1792" type="curve" smooth="yes"/>
      <point x="962" y="1668"/>
      <point x="1041" y="1592"/>
    </contour>
    <contour>
      <point x="667" y="1592" type="curve" smooth="yes"/>
      <point x="783" y="1592"/>
      <point x="862" y="1668"/>
      <point x="862" y="1792" type="curve" smooth="yes"/>
      <point x="862" y="1915"/>
      <point x="783" y="1991"/>
      <point x="667" y="1991" type="curve" smooth="yes"/>
      <point x="551" y="1991"/>
      <point x="472" y="1915"/>
      <point x="472" y="1792" type="curve" smooth="yes"/>
      <point x="472" y="1668"/>
      <point x="551" y="1592"/>
    </contour>
  </outline>
</glyph>
<glyph name="AE" format="2">
  <advance width="2458"/>
  <unicode hex="00C6"/>
  <anchor x="1329" y="1500" name="top"/>
  <outline>
    <contour>
      <point x="34" y="0" type="line"/>
      <point x="684" y="0" type="line"/>
      <point x="684" y="214" type="line"/>
      <point x="500" y="214" type="line"/>
      <point x="1289" y="1500" type="line"/>
      <point x="990" y="1500" type="line"/>
      <point x="195" y="214" type="line"/>
      <point x="34" y="214" type="line"/>
    </contour>
    <contour>
      <point x="551" y="425" type="line"/>
      <point x="1119" y="425" type="line"/>
      <point x="1119" y="649" type="line"/>
      <point x="551" y="649" type="line"/>
    </contour>
    <contour>
      <point x="1539" y="0" type="line"/>
      <point x="2363" y="0" type="line"/>
      <point x="2363" y="224" type="line"/>
      <point x="1539" y="224" type="line"/>
    </contour>
    <contour>
      <point x="954" y="0" type="line"/>
      <point x="1539" y="0" type="line"/>
      <point x="1539" y="1500" type="line"/>
      <point x="684" y="1500" type="line"/>
      <point x="684" y="1286" type="line"/>
      <point x="1119" y="1286" type="line"/>
      <point x="1119" y="214" type="line"/>
      <point x="954" y="214" type="line"/>
    </contour>
    <contour>
      <point x="1720" y="432" type="curve" smooth="yes"/>
      <point x="1720" y="364" type="line"/>
      <point x="1944" y="364" type="line"/>
      <point x="1944" y="662" type="line"/>
      <point x="1548" y="662" type="line" smooth="yes"/>
      <point x="1666" y="662"/>
      <point x="1720" y="592"/>
    </contour>
    <contour>
      <point x="1539" y="662" type="line"/>
      <point x="1944" y="662" type="line"/>
      <point x="1944" y="882" type="line"/>
      <point x="1539" y="882" type="line"/>
    </contour>
    <contour>
      <point x="1911" y="224" type="curve" smooth="yes"/>
      <point x="2363" y="224" type="line"/>
      <point x="2363" y="560" type="line"/>
      <point x="2131" y="560" type="line"/>
      <point x="2131" y="464" type="line" smooth="yes"/>
      <point x="2131" y="294"/>
      <point x="2071" y="224"/>
    </contour>
    <contour>
      <point x="1548" y="882" type="curve" smooth="yes"/>
      <point x="1944" y="882" type="line"/>
      <point x="1944" y="1136" type="line"/>
      <point x="1720" y="1136" type="line"/>
      <point x="1720" y="1112" type="line" smooth="yes"/>
      <point x="1720" y="952"/>
      <point x="1666" y="882"/>
    </contour>
    <contour>
      <point x="1539" y="1276" type="line"/>
      <point x="2345" y="1276" type="line"/>
      <point x="2345" y="1500" type="line"/>
      <point x="1539" y="1500" type="line"/>
    </contour>
    <contour>
      <point x="2113" y="1036" type="curve" smooth="yes"/>
      <point x="2113" y="960" type="line"/>
      <point x="2345" y="960" type="line"/>
      <point x="2345" y="1276" type="line"/>
      <point x="1893" y="1276" type="line" smooth="yes"/>
      <point x="2053" y="1276"/>
      <point x="2113" y="1206"/>
    </contour>
  </outline>
</glyph>
<glyph name="Ccedilla" format="2">
  <advance width="1689"/>
  <unicode hex="00C7"/>
  <anchor x="837" y="0" name="bottom"/>
  <anchor x="869" y="1500" name="top"/>
  <outline>
    <contour>
      <point x="877" y="-32" type="curve" smooth="yes"/>
      <point x="1378" y="-32"/>
      <point x="1588" y="269"/>
      <point x="1605" y="603" type="curve"/>
      <point x="1363" y="603" type="line"/>
      <point x="1337" y="412"/>
      <point x="1216" y="262"/>
      <point x="969" y="262" type="curve" smooth="yes"/>
      <point x="698" y="262"/>
      <point x="522" y="462"/>
      <point x="522" y="772" type="curve" smooth="yes"/>
      <point x="522" y="1076"/>
      <point x="680" y="1278"/>
      <point x="957" y="1278" type="curve" smooth="yes"/>
      <point x="1210" y="1278"/>
      <point x="1316" y="1120"/>
      <point x="1337" y="983" type="curve"/>
      <point x="1474" y="983" type="line"/>
      <point x="1458" y="1323"/>
      <point x="1212" y="1532"/>
      <point x="837" y="1532" type="curve" smooth="yes"/>
      <point x="398" y="1532"/>
      <point x="64" y="1236"/>
      <point x="64" y="750" type="curve" smooth="yes"/>
      <point x="64" y="264"/>
      <point x="398" y="-32"/>
    </contour>
    <contour>
      <point x="1474" y="983" type="line"/>
      <point x="1587" y="983" type="line"/>
      <point x="1587" y="1500" type="line"/>
      <point x="1343" y="1500" type="line"/>
      <point x="1343" y="1164" type="line"/>
    </contour>
    <contour>
      <point x="859" y="-440" type="curve" smooth="yes"/>
      <point x="999" y="-440"/>
      <point x="1102" y="-379"/>
      <point x="1102" y="-246" type="curve" smooth="yes"/>
      <point x="1102" y="-124"/>
      <point x="997" y="-84"/>
      <point x="912" y="-84" type="curve" smooth="yes"/>
      <point x="906" y="-84" type="line"/>
      <point x="915" y="10" type="line"/>
      <point x="761" y="10" type="line"/>
      <point x="736" y="-216" type="line"/>
      <point x="851" y="-216" type="line" smooth="yes"/>
      <point x="879" y="-216"/>
      <point x="900" y="-228"/>
      <point x="900" y="-253" type="curve" smooth="yes"/>
      <point x="900" y="-281"/>
      <point x="880" y="-297"/>
      <point x="831" y="-298" type="curve" smooth="yes"/>
      <point x="769" y="-299"/>
      <point x="709" y="-272"/>
      <point x="658" y="-243" type="curve"/>
      <point x="600" y="-355" type="line"/>
      <point x="662" y="-405"/>
      <point x="759" y="-440"/>
    </contour>
  </outline>
</glyph>
<glyph name="Igrave" format="2">
  <advance width="896"/>
  <unicode hex="00CC"/>
  <anchor x="448" y="0" name="bottom"/>
  <anchor x="658" y="0" name="ogonek"/>
  <anchor x="448" y="1500" name="top"/>
  <anchor x="20" y="1500" name="topleft"/>
  <outline>
    <contour>
      <point x="58" y="0" type="line"/>
      <point x="838" y="0" type="line"/>
      <point x="838" y="214" type="line"/>
      <point x="658" y="214" type="line"/>
      <point x="658" y="1286" type="line"/>
      <point x="835" y="1286" type="line"/>
      <point x="835" y="1500" type="line"/>
      <point x="61" y="1500" type="line"/>
      <point x="61" y="1286" type="line"/>
      <point x="238" y="1286" type="line"/>
      <point x="238" y="214" type="line"/>
      <point x="58" y="214" type="line"/>
    </contour>
    <contour>
      <point x="349" y="1630" type="line"/>
      <point x="611" y="1630" type="line"/>
      <point x="479" y="1930" type="line"/>
      <point x="71" y="1930" type="line"/>
    </contour>
  </outline>
</glyph>
<glyph name="Icircumflex" format="2">
  <advance width="896"/>
  <unicode hex="00CE"/>
  <anchor x="448" y="0" name="bottom"/>
  <anchor x="658" y="0" name="ogonek"/>
  <anchor x="922" y="1700" name="side"/>
  <anchor x="448" y="1910" name="top"/>
  <anchor x="20" y="1500" name="topleft"/>
  <outline>
    <contour>
      <point x="58" y="0" type="line"/>
      <point x="838" y="0" type="line"/>
      <point x="838" y="214" type="line"/>
      <point x="658" y="214" type="line"/>
      <point x="658" y="1286" type="line"/>
      <point x="835" y="1286" type="line"/>
      <point x="835" y="1500" type="line"/>
      <point x="61" y="1500" type="line"/>
      <point x="61" y="1286" type="line"/>
      <point x="238" y="1286" type="line"/>
      <point x="238" y="214" type="line"/>
      <point x="58" y="214" type="line"/>
    </contour>
    <contour>
      <point x="34" y="1630" type="line"/>
      <point x="264" y="1630" type="line"/>
      <point x="508" y="1843" type="line"/>
      <point x="338" y="1843" type="line"/>
      <point x="578" y="1630" type="line"/>
      <point x="862" y="1630" type="line"/>
      <point x="656" y="1930" type="line"/>
      <point x="240" y="1930" type="line"/>
    </contour>
  </outline>
</glyph>
<glyph name="Idieresis" format="2">
  <advance width="896"/>
  <unicode hex="00CF"/>
  <anchor x="448" y="0" name="bottom"/>
  <anchor x="658" y="0" name="ogonek"/>
  <anchor x="448" y="1924" name="top"/>
  <anchor x="20" y="1500" name="topleft"/>
  <outline>
    <contour>
      <point x="58" y="0" type="line"/>
      <point x="838" y="0" type="line"/>
      <point x="838" y="214" type="line"/>
      <point x="658" y="214" type="line"/>
      <point x="658" y="1286" type="line"/>
      <point x="835" y="1286" type="line"/>
      <point x="835" y="1500" type="line"/>
      <point x="61" y="1500" type="line"/>
      <point x="61" y="1286" type="line"/>
      <point x="238" y="1286" type="line"/>
      <point x="238" y="214" type="line"/>
      <point x="58" y="214" type="line"/>
    </contour>
    <contour>
      <point x="693" y="1592" type="curve" smooth="yes"/>
      <point x="809" y="1592"/>
      <point x="888" y="1668"/>
      <point x="888" y="1792" type="curve" smooth="yes"/>
      <point x="888" y="1915"/>
      <point x="809" y="1991"/>
      <point x="693" y="1991" type="curve" smooth="yes"/>
      <point x="577" y="1991"/>
      <point x="498" y="1915"/>
      <point x="498" y="1792" type="curve" smooth="yes"/>
      <point x="498" y="1668"/>
      <point x="577" y="1592"/>
    </contour>
    <contour>
      <point x="203" y="1592" type="curve" smooth="yes"/>
      <point x="319" y="1592"/>
      <point x="398" y="1668"/>
      <point x="398" y="1792" type="curve" smooth="yes"/>
      <point x="398" y="1915"/>
      <point x="319" y="1991"/>
      <point x="203" y="1991" type="curve" smooth="yes"/>
      <point x="87" y="1991"/>
      <point x="8" y="1915"/>
      <point x="8" y="1792" type="curve" smooth="yes"/>
      <point x="8" y="1668"/>
      <point x="87" y="1592"/>
    </contour>
  </outline>
</glyph>
<glyph name="Ntilde" format="2">
  <advance width="1792"/>
  <unicode hex="00D1"/>
  <anchor x="896" y="0" name="bottom"/>
  <anchor x="928" y="1900" name="top"/>
  <outline>
    <contour>
      <point x="1316" y="0" type="line"/>
      <point x="1318" y="647" type="line"/>
      <point x="567" y="1500" type="line"/>
      <point x="487" y="944" type="line"/>
    </contour>
    <contour>
      <point x="62" y="0" type="line"/>
      <point x="667" y="0" type="line"/>
      <point x="667" y="214" type="line"/>
      <point x="487" y="214" type="line"/>
      <point x="487" y="944" type="line"/>
      <point x="567" y="1500" type="line"/>
      <point x="65" y="1500" type="line"/>
      <point x="65" y="1286" type="line"/>
      <point x="227" y="1286" type="line"/>
      <point x="227" y="214" type="line"/>
      <point x="62" y="214" type="line"/>
    </contour>
    <contour>
      <point x="1316" y="0" type="line"/>
      <point x="1578" y="0" type="line"/>
      <point x="1578" y="1286" type="line"/>
      <point x="1740" y="1286" type="line"/>
      <point x="1740" y="1500" type="line"/>
      <point x="1141" y="1500" type="line"/>
      <point x="1141" y="1286" type="line"/>
      <point x="1318" y="1286" type="line"/>
      <point x="1318" y="647" type="line"/>
      <point x="1308" y="647" type="line"/>
    </contour>
    <contour>
      <point x="1092" y="1608" type="curve" smooth="yes"/>
      <point x="1216" y="1608"/>
      <point x="1284" y="1693"/>
      <point x="1284" y="1844" type="curve" smooth="yes"/>
      <point x="1284" y="1930" type="line"/>
      <point x="1118" y="1930" type="line"/>
      <point x="1118" y="1894" type="line" smooth="yes"/>
      <point x="1118" y="1845"/>
      <point x="1103" y="1818"/>
      <point x="1066" y="1818" type="curve" smooth="yes"/>
      <point x="1037" y="1818"/>
      <point x="1018" y="1829"/>
      <point x="989" y="1850" type="curve" smooth="yes"/>
      <point x="955" y="1875" type="line"/>
      <point x="867" y="1710" type="line"/>
      <point x="901" y="1685" type="line" smooth="yes"/>
      <point x="959" y="1642"/>
      <point x="1013" y="1608"/>
    </contour>
    <contour>
      <point x="572" y="1716" type="curve" smooth="yes"/>
      <point x="572" y="1630" type="line"/>
      <point x="738" y="1630" type="line"/>
      <point x="738" y="1666" type="line" smooth="yes"/>
      <point x="738" y="1715"/>
      <point x="753" y="1742"/>
      <point x="790" y="1742" type="curve" smooth="yes"/>
      <point x="819" y="1742"/>
      <point x="838" y="1731"/>
      <point x="867" y="1710" type="curve" smooth="yes"/>
      <point x="901" y="1685" type="line"/>
      <point x="989" y="1850" type="line"/>
      <point x="955" y="1875" type="line" smooth="yes"/>
      <point x="897" y="1918"/>
      <point x="843" y="1952"/>
      <point x="764" y="1952" type="curve" smooth="yes"/>
      <point x="640" y="1952"/>
      <point x="572" y="1867"/>
    </contour>
  </outline>
</glyph>
<glyph name="Ograve" format="2">
  <advance width="1896"/>
  <unicode hex="00D2"/>
  <anchor x="948" y="0" name="bottom"/>
  <anchor x="1311" y="0" name="ogonek"/>
  <anchor x="948" y="1500" name="top"/>
  <anchor x="16" y="1500" name="topleft"/>
  <anchor x="1680" y="1270" name="topright"/>
  <outline>
    <contour>
      <point x="948" y="-32" type="curve" smooth="yes"/>
      <point x="1472" y="-32"/>
      <point x="1832" y="256"/>
      <point x="1832" y="750" type="curve" smooth="yes"/>
      <point x="1832" y="1244"/>
      <point x="1472" y="1532"/>
      <point x="948" y="1532" type="curve" smooth="yes"/>
      <point x="424" y="1532"/>
      <point x="64" y="1244"/>
      <point x="64" y="750" type="curve" smooth="yes"/>
      <point x="64" y="256"/>
      <point x="424" y="-32"/>
    </contour>
    <contour>
      <point x="948" y="202" type="curve" smooth="yes"/>
      <point x="686" y="202"/>
      <point x="532" y="400"/>
      <point x="532" y="750" type="curve" smooth="yes"/>
      <point x="532" y="1101"/>
      <point x="686" y="1298"/>
      <point x="948" y="1298" type="curve" smooth="yes"/>
      <point x="1211" y="1298"/>
      <point x="1364" y="1101"/>
      <point x="1364" y="750" type="curve" smooth="yes"/>
      <point x="1364" y="400"/>
      <point x="1211" y="202"/>
    </contour>
    <contour>
      <point x="849" y="1630" type="line"/>
      <point x="1111" y="1630" type="line"/>
      <point x="979" y="1930" type="line"/>
      <point x="571" y="1930" type="line"/>
    </contour>
  </outline>
</glyph>
<glyph name="multiply" format="2">
  <advance width="1200"/>
  <unicode hex="00D7"/>
  <outline>
    <contour>
      <point x="341" y="218" type="line"/>
      <point x="116" y="443" type="line"/>
      <point x="959" y="1286" type="line"/>
      <point x="1184" y="1061" type="line"/>
    </contour>
    <contour>
      <point x="959" y="218" type="line"/>
      <point x="1184" y="443" type="line"/>
      <point x="341" y="1286" type="line"/>
      <point x="116" y="1061" type="line"/>
    </contour>
  </outline>
</glyph>
<glyph name="Uacute" format="2">
  <advance width="1836"/>
  <unicode hex="00DA"/>
  <anchor x="918" y="0" name="bottom"/>
  <anchor x="1264" y="0" name="ogonek"/>
  <anchor x="975" y="1500" name="top"/>
  <anchor x="1622" y="1500" name="topright"/>
  <outline>
    <contour>
      <point x="918" y="-22" type="curve" smooth="yes"/>
      <point x="1381" y="-22"/>
      <point x="1622" y="214"/>
      <point x="1622" y="628" type="curve" smooth="yes"/>
      <point x="1622" y="1286" type="line"/>
      <point x="1784" y="1286" type="line"/>
      <point x="1784" y="1500" type="line"/>
      <point x="1125" y="1500" type="line"/>
      <point x="1125" y="1286" type="line"/>
      <point x="1302" y="1286" type="line"/>
      <point x="1302" y="586" type="line" smooth="yes"/>
      <point x="1302" y="363"/>
      <point x="1202" y="229"/>
      <point x="972" y="229" type="curve" smooth="yes"/>
      <point x="742" y="229"/>
      <point x="642" y="363"/>
      <point x="642" y="586" type="curve" smooth="yes"/>
      <point x="642" y="1286" type="line"/>
      <point x="819" y="1286" type="line"/>
      <point x="819" y="1500" type="line"/>
      <point x="52" y="1500" type="line"/>
      <point x="52" y="1286" type="line"/>
      <point x="214" y="1286" type="line"/>
      <point x="214" y="628" type="line" smooth="yes"/>
      <point x="214" y="214"/>
      <point x="455" y="-22"/>
    </contour>
    <contour>
      <point x="806" y="1630" type="line"/>
      <point x="1068" y="1630" type="line"/>
      <point x="1346" y="1930" type="line"/>
      <point x="938" y="1930" type="line"/>
    </contour>
  </outline>
</glyph>
<glyph name="Ucircumflex" format="2">
  <advance width="1836"/>
  <unicode hex="00DB"/>
  <anchor x="918" y="0" name="bottom"/>
  <anchor x="1264" y="0" name="ogonek"/>
  <anchor x="1449" y="1700" name="side"/>
  <anchor x="975" y="1910" name="top"/>
  <anchor x="1622" y="1500" name="topright"/>
  <outline>
    <contour>
      <point x="918" y="-22" type="curve" smooth="yes"/>
      <point x="1381" y="-22"/>
      <point x="1622" y="214"/>
      <point x="1622" y="628" type="curve" smooth="yes"/>
      <point x="1622" y="1286" type="line"/>
      <point x="1784" y="1286" type="line"/>
      <point x="1784" y="1500" type="line"/>
      <point x="1125" y="1500" type="line"/>
      <point x="1125" y="1286" type="line"/>
      <point x="1302" y="1286" type="line"/>
      <point x="1302" y="586" type="line" smooth="yes"/>
      <point x="1302" y="363"/>
      <point x="1202" y="229"/>
      <point x="972" y="229" type="curve" smooth="yes"/>
      <point x="742" y="229"/>
      <point x="642" y="363"/>
      <point x="642" y="586" type="curve" smooth="yes"/>
      <point x="642" y="1286" type="line"/>
      <point x="819" y="1286" type="line"/>
      <point x="819" y="1500" type="line"/>
      <point x="52" y="1500" type="line"/>
      <point x="52" y="1286" type="line"/>
      <point x="214" y="1286" type="line"/>
      <point x="214" y="628" type="line" smooth="yes"/>
      <point x="214" y="214"/>
      <point x="455" y="-22"/>
    </contour>
    <contour>
      <point x="561" y="1630" type="line"/>
      <point x="791" y="1630" type="line"/>
      <point x="1035" y="1843" type="line"/>
      <point x="865" y="1843" type="line"/>
      <point x="1105" y="1630" type="line"/>
      <point x="1389" y="1630" type="line"/>
      <point x="1183" y="1930" type="line"/>
      <point x="767" y="1930" type="line"/>
    </contour>
  </outline>
</glyph>
<glyph name="Udieresis" format="2">
  <advance width="1836"/>
  <unicode hex="00DC"/>
  <anchor x="918" y="0" name="bottom"/>
  <anchor x="1264" y="0" name="ogonek"/>
  <anchor x="975" y="1924" name="top"/>
  <anchor x="1622" y="1500" name="topright"/>
  <outline>
    <contour>
      <point x="918" y="-22" type="curve" smooth="yes"/>
      <point x="1381" y="-22"/>
      <point x="1622" y="214"/>
      <point x="1622" y="628" type="curve" smooth="yes"/>
      <point x="1622" y="1286" type="line"/>
      <point x="1784" y="1286" type="line"/>
      <point x="1784" y="1500" type="line"/>
      <point x="1125" y="1500" type="line"/>
      <point x="1125" y="1286" type="line"/>
      <point x="1302" y="1286" type="line"/>
      <point x="1302" y="586" type="line" smooth="yes"/>
      <point x="1302" y="363"/>
      <point x="1202" y="229"/>
      <point x="972" y="229" type="curve" smooth="yes"/>
      <point x="742" y="229"/>
      <point x="642" y="363"/>
      <point x="642" y="586" type="curve" smooth="yes"/>
      <point x="642" y="1286" type="line"/>
      <point x="819" y="1286" type="line"/>
      <point x="819" y="1500" type="line"/>
      <point x="52" y="1500" type="line"/>
      <point x="52" y="1286" type="line"/>
      <point x="214" y="1286" type="line"/>
      <point x="214" y="628" type="line" smooth="yes"/>
      <point x="214" y="214"/>
      <point x="455" y="-22"/>
    </contour>
    <contour>
      <point x="1220" y="1592" type="curve" smooth="yes"/>
      <point x="1336" y="1592"/>
      <point x="1415" y="1668"/>
      <point x="1415" y="1792" type="curve" smooth="yes"/>
      <point x="1415" y="1915"/>
      <point x="1336" y="1991"/>
      <point x="1220" y="1991" type="curve" smooth="yes"/>
      <point x="1104" y="1991"/>
      <point x="1025" y="1915"/>
      <point x="1025" y="1792" type="curve" smooth="yes"/>
      <point x="1025" y="1668"/>
      <point x="1104" y="1592"/>
    </contour>
    <contour>
      <point x="730" y="1592" type="curve" smooth="yes"/>
      <point x="846" y="1592"/>
      <point x="925" y="1668"/>
      <point x="925" y="1792" type="curve" smooth="yes"/>
      <point x="925" y="1915"/>
      <point x="846" y="1991"/>
      <point x="730" y="1991" type="curve" smooth="yes"/>
      <point x="614" y="1991"/>
      <point x="535" y="1915"/>
      <point x="535" y="1792" type="curve" smooth="yes"/>
      <point x="535" y="1668"/>
      <point x="614" y="1592"/>
    </contour>
  </outline>
</glyph>
<glyph name="Yacute" format="2">
  <advance width="1752"/>
  <unicode hex="00DD"/>
  <anchor x="876" y="0" name="bottom"/>
  <anchor x="952" y="1500" name="top"/>
  <anchor x="21" y="1500" name="topleft"/>
  <outline>
    <contour>
      <point x="681" y="528" type="line"/>
      <point x="1071" y="528" type="line"/>
      <point x="1586" y="1286" type="line"/>
      <point x="1718" y="1286" type="line"/>
      <point x="1718" y="1500" type="line"/>
      <point x="1105" y="1500" type="line"/>
      <point x="1105" y="1286" type="line"/>
      <point x="1283" y="1286" type="line"/>
      <point x="924" y="751" type="line"/>
      <point x="1025" y="751" type="line"/>
      <point x="669" y="1286" type="line"/>
      <point x="846" y="1286" type="line"/>
      <point x="846" y="1500" type="line"/>
      <point x="34" y="1500" type="line"/>
      <point x="34" y="1286" type="line"/>
      <point x="166" y="1286" type="line"/>
    </contour>
    <contour>
      <point x="456" y="0" type="line"/>
      <point x="1296" y="0" type="line"/>
      <point x="1296" y="214" type="line"/>
      <point x="1086" y="214" type="line"/>
      <point x="1086" y="772" type="line"/>
      <point x="666" y="772" type="line"/>
      <point x="666" y="214" type="line"/>
      <point x="456" y="214" type="line"/>
    </contour>
    <contour>
      <point x="783" y="1630" type="line"/>
      <point x="1045" y="1630" type="line"/>
      <point x="1323" y="1930" type="line"/>
      <point x="915" y="1930" type="line"/>
    </contour>
  </outline>
</glyph>
<glyph name="Thorn" format="2">
  <advance width="1585"/>
  <unicode hex="00DE"/>
  <outline>
    <contour>
      <point x="58" y="0" type="line"/>
      <point x="838" y="0" type="line"/>
      <point x="838" y="214" type="line"/>
      <point x="658" y="214" type="line"/>
      <point x="658" y="1286" type="line"/>
      <point x="835" y="1286" type="line"/>
      <point x="835" y="1500" type="line"/>
      <point x="61" y="1500" type="line"/>
      <point x="61" y="1286" type="line"/>
      <point x="238" y="1286" type="line"/>
      <point x="238" y="214" type="line"/>
      <point x="58" y="214" type="line"/>
    </contour>
    <contour>
      <point x="658" y="341" type="line"/>
      <point x="1040" y="341" type="line" smooth="yes"/>
      <point x="1349" y="341"/>
      <point x="1553" y="479"/>
      <point x="1553" y="752" type="curve" smooth="yes"/>
      <point x="1553" y="1025"/>
      <point x="1349" y="1163"/>
      <point x="1040" y="1163" type="curve" smooth="yes"/>
      <point x="658" y="1163" type="line"/>
      <point x="658" y="939" type="line"/>
      <point x="904" y="939" type="line" smooth="yes"/>
      <point x="1040" y="939"/>
      <point x="1123" y="879"/>
      <point x="1123" y="752" type="curve" smooth="yes"/>
      <point x="1123" y="625"/>
      <point x="1040" y="565"/>
      <point x="904" y="565" type="curve" smooth="yes"/>
      <point x="658" y="565" type="line"/>
    </contour>
  </outline>
</glyph>
<glyph name="ae" format="2">
  <advance width="2012"/>
  <unicode hex="00E6"/>
  <anchor x="998" y="1160" name="top"/>
  <outline>
    <contour>
      <point x="361" y="726" type="curve" smooth="yes"/>
      <point x="484" y="726"/>
      <point x="555" y="792"/>
      <point x="557" y="884" type="curve" smooth="yes"/>
      <point x="559" y="981"/>
      <point x="480" y="1023"/>
      <point x="351" y="1030" type="curve"/>
      <point x="341" y="847" type="line"/>
      <point x="388" y="939"/>
      <point x="483" y="1006"/>
      <point x="602" y="1006" type="curve" smooth="yes"/>
      <point x="710" y="1006"/>
      <point x="790" y="957"/>
      <point x="790" y="853" type="curve"/>
      <point x="1092" y="759" type="line"/>
      <point x="1095" y="1043"/>
      <point x="934" y="1186"/>
      <point x="625" y="1186" type="curve" smooth="yes"/>
      <point x="371" y="1186"/>
      <point x="130" y="1091"/>
      <point x="130" y="914" type="curve" smooth="yes"/>
      <point x="130" y="786"/>
      <point x="240" y="726"/>
    </contour>
    <contour>
      <point x="1092" y="332" type="line"/>
      <point x="1092" y="759" type="line"/>
      <point x="790" y="853" type="line"/>
      <point x="790" y="752" type="line"/>
      <point x="776" y="651" type="line"/>
      <point x="786" y="651" type="line"/>
      <point x="786" y="378" type="line"/>
      <point x="851" y="378" type="line"/>
    </contour>
    <contour>
      <point x="474" y="-26" type="curve" smooth="yes"/>
      <point x="727" y="-26"/>
      <point x="884" y="109"/>
      <point x="894" y="353" type="curve"/>
      <point x="786" y="463" type="line"/>
      <point x="786" y="309"/>
      <point x="698" y="258"/>
      <point x="616" y="258" type="curve" smooth="yes"/>
      <point x="544" y="258"/>
      <point x="488" y="299"/>
      <point x="488" y="376" type="curve" smooth="yes"/>
      <point x="488" y="453"/>
      <point x="533" y="492"/>
      <point x="626" y="531" type="curve" smooth="yes"/>
      <point x="662" y="546" type="line" smooth="yes"/>
      <point x="725" y="572"/>
      <point x="764" y="606"/>
      <point x="786" y="651" type="curve"/>
      <point x="796" y="651" type="line"/>
      <point x="790" y="854" type="line"/>
      <point x="790" y="760"/>
      <point x="730" y="724"/>
      <point x="617" y="693" type="curve" smooth="yes"/>
      <point x="423" y="640" type="line" smooth="yes"/>
      <point x="216" y="583"/>
      <point x="78" y="495"/>
      <point x="78" y="290" type="curve" smooth="yes"/>
      <point x="78" y="106"/>
      <point x="227" y="-26"/>
    </contour>
    <contour>
      <point x="1403" y="-26" type="curve" smooth="yes"/>
      <point x="1730" y="-26"/>
      <point x="1894" y="205"/>
      <point x="1908" y="440" type="curve"/>
      <point x="1656" y="440" type="line"/>
      <point x="1627" y="341"/>
      <point x="1562" y="267"/>
      <point x="1433" y="267" type="curve" smooth="yes"/>
      <point x="1276" y="267"/>
      <point x="1178" y="399"/>
      <point x="1178" y="610" type="curve" smooth="yes"/>
      <point x="1178" y="873"/>
      <point x="1247" y="970"/>
      <point x="1369" y="970" type="curve"/>
      <point x="1377" y="1186" type="line"/>
      <point x="1057" y="1186"/>
      <point x="826" y="970"/>
      <point x="826" y="580" type="curve" smooth="yes"/>
      <point x="826" y="189"/>
      <point x="1065" y="-26"/>
    </contour>
    <contour>
      <point x="966" y="560" type="line"/>
      <point x="1922" y="560" type="line"/>
      <point x="1922" y="637" type="line"/>
      <point x="1528" y="758" type="line"/>
      <point x="966" y="758" type="line"/>
    </contour>
    <contour>
      <point x="1528" y="758" type="curve"/>
      <point x="1922" y="637" type="line"/>
      <point x="1922" y="964"/>
      <point x="1721" y="1186"/>
      <point x="1377" y="1186" type="curve"/>
      <point x="1369" y="970" type="line"/>
      <point x="1473" y="970"/>
      <point x="1525" y="873"/>
    </contour>
  </outline>
</glyph>
<glyph name="ccedilla" format="2">
  <advance width="1348"/>
  <unicode hex="00E7"/>
  <anchor x="668" y="0" name="bottom"/>
  <anchor x="710" y="1160" name="top"/>
  <outline>
    <contour>
      <point x="713" y="-26" type="curve" smooth="yes"/>
      <point x="1049" y="-26"/>
      <point x="1251" y="193"/>
      <point x="1258" y="465" type="curve"/>
      <point x="1030" y="465" type="line"/>
      <point x="1008" y="358"/>
      <point x="924" y="274"/>
      <point x="790" y="274" type="curve" smooth="yes"/>
      <point x="592" y="274"/>
      <point x="481" y="426"/>
      <point x="481" y="639" type="curve" smooth="yes"/>
      <point x="481" y="846"/>
      <point x="593" y="988"/>
      <point x="776" y="988" type="curve"/>
      <point x="723" y="1186" type="line"/>
      <point x="350" y="1186"/>
      <point x="82" y="971"/>
      <point x="82" y="581" type="curve" smooth="yes"/>
      <point x="82" y="190"/>
      <point x="345" y="-26"/>
    </contour>
    <contour>
      <point x="1013" y="679" type="curve" smooth="yes"/>
      <point x="1142" y="679"/>
      <point x="1240" y="752"/>
      <point x="1240" y="880" type="curve" smooth="yes"/>
      <point x="1240" y="1058"/>
      <point x="1032" y="1186"/>
      <point x="723" y="1186" type="curve"/>
      <point x="776" y="988" type="line"/>
      <point x="891" y="988"/>
      <point x="949" y="949"/>
      <point x="1026" y="864" type="curve"/>
      <point x="1031" y="1000" type="line"/>
      <point x="894" y="1000"/>
      <point x="805" y="963"/>
      <point x="805" y="842" type="curve" smooth="yes"/>
      <point x="805" y="750"/>
      <point x="887" y="679"/>
    </contour>
    <contour>
      <point x="690" y="-440" type="curve" smooth="yes"/>
      <point x="830" y="-440"/>
      <point x="933" y="-379"/>
      <point x="933" y="-246" type="curve" smooth="yes"/>
      <point x="933" y="-124"/>
      <point x="828" y="-84"/>
      <point x="743" y="-84" type="curve" smooth="yes"/>
      <point x="737" y="-84" type="line"/>
      <point x="746" y="10" type="line"/>
      <point x="592" y="10" type="line"/>
      <point x="567" y="-216" type="line"/>
      <point x="682" y="-216" type="line" smooth="yes"/>
      <point x="710" y="-216"/>
      <point x="731" y="-228"/>
      <point x="731" y="-253" type="curve" smooth="yes"/>
      <point x="731" y="-281"/>
      <point x="711" y="-297"/>
      <point x="662" y="-298" type="curve" smooth="yes"/>
      <point x="600" y="-299"/>
      <point x="540" y="-272"/>
      <point x="489" y="-243" type="curve"/>
      <point x="431" y="-355" type="line"/>
      <point x="493" y="-405"/>
      <point x="590" y="-440"/>
    </contour>
  </outline>
</glyph>
<glyph name="igrave" format="2">
  <advance width="847"/>
  <unicode hex="00EC"/>
  <anchor x="424" y="0" name="bottom"/>
  <anchor x="637" y="0" name="ogonek"/>
  <anchor x="423" y="1160" name="top"/>
  <outline>
    <contour>
      <point x="78" y="0" type="line"/>
      <point x="775" y="0" type="line"/>
      <point x="775" y="210" type="line"/>
      <point x="637" y="210" type="line"/>
      <point x="637" y="1160" type="line"/>
      <point x="93" y="1160" type="line"/>
      <point x="93" y="950" type="line"/>
      <point x="237" y="950" type="line"/>
      <point x="237" y="210" type="line"/>
      <point x="78" y="210" type="line"/>
    </contour>
    <contour>
      <point x="324" y="1290" type="line"/>
      <point x="586" y="1290" type="line"/>
      <point x="454" y="1590" type="line"/>
      <point x="46" y="1590" type="line"/>
    </contour>
  </outline>
</glyph>
<glyph name="iacute" format="2">
  <advance width="847"/>
  <unicode hex="00ED"/>
  <anchor x="424" y="0" name="bottom"/>
  <anchor x="637" y="0" name="ogonek"/>
  <anchor x="423" y="1160" name="top"/>
  <outline>
    <contour>
      <point x="78" y="0" type="line"/>
      <point x="775" y="0" type="line"/>
      <point x="775" y="210" type="line"/>
      <point x="637" y="210" type="line"/>
      <point x="637" y="1160" type="line"/>
      <point x="93" y="1160" type="line"/>
      <point x="93" y="950" type="line"/>
      <point x="237" y="950" type="line"/>
      <point x="237" y="210" type="line"/>
      <point x="78" y="210" type="line"/>
    </contour>
    <contour>
      <point x="254" y="1290" type="line"/>
      <point x="516" y="1290" type="line"/>
      <point x="794" y="1590" type="line"/>
      <point x="386" y="1590" type="line"/>
    </contour>
  </outline>
</glyph>
<glyph name="icircumflex" format="2">
  <advance width="847"/>
  <unicode hex="00EE"/>
  <anchor x="424" y="0" name="bottom"/>
  <anchor x="637" y="0" name="ogonek"/>
  <anchor x="897" y="1360" name="side"/>
  <anchor x="423" y="1570" name="top"/>
  <outline>
    <contour>
      <point x="78" y="0" type="line"/>
      <point x="775" y="0" type="line"/>
      <point x="775" y="210" type="line"/>
      <point x="637" y="210" type="line"/>
      <point x="637" y="1160" type="line"/>
      <point x="93" y="1160" type="line"/>
      <point x="93" y="950" type="line"/>
      <point x="237" y="950" type="line"/>
      <point x="237" y="210" type="line"/>
      <point x="78" y="210" type="line"/>
    </contour>
    <contour>
      <point x="9" y="1290" type="line"/>
      <point x="239" y="1290" type="line"/>
      <point x="483" y="1503" type="line"/>
      <point x="313" y="1503" type="line"/>
      <point x="553" y="1290" type="line"/>
      <point x="837" y="1290" type="line"/>
      <point x="631" y="1590" type="line"/>
      <point x="215" y="1590" type="line"/>
    </contour>
  </outline>
</glyph>
<glyph name="idieresis" format="2">
  <advance width="847"/>
  <unicode hex="00EF"/>
  <anchor x="424" y="0" name="bottom"/>
  <anchor x="637" y="0" name="ogonek"/>
  <anchor x="423" y="1584" name="top"/>
  <outline>
    <contour>
      <point x="78" y="0" type="line"/>
      <point x="775" y="0" type="line"/>
      <point x="775" y="210" type="line"/>
      <point x="637" y="210" type="line"/>
      <point x="637" y="1160" type="line"/>
      <point x="93" y="1160" type="line"/>
      <point x="93" y="950" type="line"/>
      <point x="237" y="950" type="line"/>
      <point x="237" y="210" type="line"/>
      <point x="78" y="210" type="line"/>
    </contour>
    <contour>
      <point x="668" y="1252" type="curve" smooth="yes"/>
      <point x="784" y="1252"/>
      <point x="863" y="1328"/>
      <point x="863" y="1452" type="curve" smooth="yes"/>
      <point x="863" y="1575"/>
      <point x="784" y="1651"/>
      <point x="668" y="1651" type="curve" smooth="yes"/>
      <point x="552" y="1651"/>
      <point x="473" y="1575"/>
      <point x="473" y="1452" type="curve" smooth="yes"/>
      <point x="473" y="1328"/>
      <point x="552" y="1252"/>
    </contour>
    <contour>
      <point x="178" y="1252" type="curve" smooth="yes"/>
      <point x="294" y="1252"/>
      <point x="373" y="1328"/>
      <point x="373" y="1452" type="curve" smooth="yes"/>
      <point x="373" y="1575"/>
      <point x="294" y="1651"/>
      <point x="178" y="1651" type="curve" smooth="yes"/>
      <point x="62" y="1651"/>
      <point x="-17" y="1575"/>
      <point x="-17" y="1452" type="curve" smooth="yes"/>
      <point x="-17" y="1328"/>
      <point x="62" y="1252"/>
    </contour>
  </outline>
</glyph>
<glyph name="eth" format="2">
  <advance width="1500"/>
  <unicode hex="00F0"/>
  <outline>
    <contour>
      <point x="745" y="-26" type="curve" smooth="yes"/>
      <point x="1149" y="-26"/>
      <point x="1418" y="210"/>
      <point x="1418" y="640" type="curve" smooth="yes"/>
      <point x="1418" y="1076"/>
      <point x="1110" y="1493"/>
      <point x="674" y="1736" type="curve"/>
      <point x="551" y="1572" type="line"/>
      <point x="826" y="1340"/>
      <point x="1003" y="995"/>
      <point x="1000" y="546" type="curve"/>
      <point x="982" y="546" type="line"/>
      <point x="982" y="321"/>
      <point x="896" y="194"/>
      <point x="755" y="194" type="curve" smooth="yes"/>
      <point x="613" y="194"/>
      <point x="528" y="314"/>
      <point x="528" y="530" type="curve" smooth="yes"/>
      <point x="528" y="742"/>
      <point x="613" y="866"/>
      <point x="755" y="866" type="curve" smooth="yes"/>
      <point x="897" y="866"/>
      <point x="982" y="761"/>
      <point x="982" y="546" type="curve"/>
      <point x="1044" y="546" type="line"/>
      <point x="1044" y="949"/>
      <point x="865" y="1086"/>
      <point x="592" y="1086" type="curve" smooth="yes"/>
      <point x="311" y="1086"/>
      <point x="82" y="894"/>
      <point x="82" y="548" type="curve" smooth="yes"/>
      <point x="82" y="178"/>
      <point x="366" y="-26"/>
    </contour>
    <contour>
      <point x="472" y="1166" type="line"/>
      <point x="1390" y="1290" type="line"/>
      <point x="1390" y="1504" type="line"/>
      <point x="472" y="1380" type="line"/>
    </contour>
  </outline>
</glyph>
<glyph name="ntilde" format="2">
  <advance width="1547"/>
  <unicode hex="00F1"/>
  <anchor x="773" y="0" name="bottom"/>
  <anchor x="767" y="1560" name="top"/>
  <outline>
    <contour>
      <point x="856" y="0" type="line"/>
      <point x="1469" y="0" type="line"/>
      <point x="1469" y="210" type="line"/>
      <point x="1355" y="210" type="line"/>
      <point x="1355" y="783" type="line" smooth="yes"/>
      <point x="1355" y="1064"/>
      <point x="1194" y="1187"/>
      <point x="968" y="1187" type="curve" smooth="yes"/>
      <point x="652" y="1187"/>
      <point x="570" y="1005"/>
      <point x="570" y="724" type="curve"/>
      <point x="637" y="726" type="line"/>
      <point x="637" y="872"/>
      <point x="717" y="923"/>
      <point x="808" y="923" type="curve" smooth="yes"/>
      <point x="896" y="923"/>
      <point x="955" y="872"/>
      <point x="955" y="772" type="curve" smooth="yes"/>
      <point x="955" y="210" type="line"/>
      <point x="856" y="210" type="line"/>
    </contour>
    <contour>
      <point x="78" y="0" type="line"/>
      <point x="736" y="0" type="line"/>
      <point x="736" y="210" type="line"/>
      <point x="637" y="210" type="line"/>
      <point x="637" y="783" type="line"/>
      <point x="587" y="775" type="line"/>
      <point x="587" y="1160" type="line"/>
      <point x="93" y="1160" type="line"/>
      <point x="93" y="950" type="line"/>
      <point x="237" y="950" type="line"/>
      <point x="237" y="210" type="line"/>
      <point x="78" y="210" type="line"/>
    </contour>
    <contour>
      <point x="931" y="1268" type="curve" smooth="yes"/>
      <point x="1055" y="1268"/>
      <point x="1123" y="1353"/>
      <point x="1123" y="1504" type="curve" smooth="yes"/>
      <point x="1123" y="1590" type="line"/>
      <point x="957" y="1590" type="line"/>
      <point x="957" y="1554" type="line" smooth="yes"/>
      <point x="957" y="1505"/>
      <point x="942" y="1478"/>
      <point x="905" y="1478" type="curve" smooth="yes"/>
      <point x="876" y="1478"/>
      <point x="857" y="1489"/>
      <point x="828" y="1510" type="curve" smooth="yes"/>
      <point x="794" y="1535" type="line"/>
      <point x="706" y="1370" type="line"/>
      <point x="740" y="1345" type="line" smooth="yes"/>
      <point x="798" y="1302"/>
      <point x="852" y="1268"/>
    </contour>
    <contour>
      <point x="411" y="1376" type="curve" smooth="yes"/>
      <point x="411" y="1290" type="line"/>
      <point x="577" y="1290" type="line"/>
      <point x="577" y="1326" type="line" smooth="yes"/>
      <point x="577" y="1375"/>
      <point x="592" y="1402"/>
      <point x="629" y="1402" type="curve" smooth="yes"/>
      <point x="658" y="1402"/>
      <point x="677" y="1391"/>
      <point x="706" y="1370" type="curve" smooth="yes"/>
      <point x="740" y="1345" type="line"/>
      <point x="828" y="1510" type="line"/>
      <point x="794" y="1535" type="line" smooth="yes"/>
      <point x="736" y="1578"/>
      <point x="682" y="1612"/>
      <point x="603" y="1612" type="curve" smooth="yes"/>
      <point x="479" y="1612"/>
      <point x="411" y="1527"/>
    </contour>
  </outline>
</glyph>
<glyph name="otilde" format="2">
  <advance width="1530"/>
  <unicode hex="00F5"/>
  <anchor x="765" y="0" name="bottom"/>
  <anchor x="1089" y="0" name="ogonek"/>
  <anchor x="765" y="1560" name="top"/>
  <anchor x="1295" y="1030" name="topright"/>
  <outline>
    <contour>
      <point x="765" y="-26" type="curve" smooth="yes"/>
      <point x="1155" y="-26"/>
      <point x="1448" y="189"/>
      <point x="1448" y="580" type="curve" smooth="yes"/>
      <point x="1448" y="970"/>
      <point x="1155" y="1186"/>
      <point x="765" y="1186" type="curve" smooth="yes"/>
      <point x="375" y="1186"/>
      <point x="82" y="970"/>
      <point x="82" y="580" type="curve" smooth="yes"/>
      <point x="82" y="189"/>
      <point x="375" y="-26"/>
    </contour>
    <contour>
      <point x="765" y="194" type="curve" smooth="yes"/>
      <point x="617" y="194"/>
      <point x="528" y="332"/>
      <point x="528" y="580" type="curve" smooth="yes"/>
      <point x="528" y="824"/>
      <point x="617" y="966"/>
      <point x="765" y="966" type="curve" smooth="yes"/>
      <point x="912" y="966"/>
      <point x="1002" y="830"/>
      <point x="1002" y="596" type="curve" smooth="yes"/>
      <point x="1002" y="339"/>
      <point x="912" y="194"/>
    </contour>
    <contour>
      <point x="929" y="1268" type="curve" smooth="yes"/>
      <point x="1053" y="1268"/>
      <point x="1121" y="1353"/>
      <point x="1121" y="1504" type="curve" smooth="yes"/>
      <point x="1121" y="1590" type="line"/>
      <point x="955" y="1590" type="line"/>
      <point x="955" y="1554" type="line" smooth="yes"/>
      <point x="955" y="1505"/>
      <point x="940" y="1478"/>
      <point x="903" y="1478" type="curve" smooth="yes"/>
      <point x="874" y="1478"/>
      <point x="855" y="1489"/>
      <point x="826" y="1510" type="curve" smooth="yes"/>
      <point x="792" y="1535" type="line"/>
      <point x="704" y="1370" type="line"/>
      <point x="738" y="1345" type="line" smooth="yes"/>
      <point x="796" y="1302"/>
      <point x="850" y="1268"/>
    </contour>
    <contour>
      <point x="409" y="1376" type="curve" smooth="yes"/>
      <point x="409" y="1290" type="line"/>
      <point x="575" y="1290" type="line"/>
      <point x="575" y="1326" type="line" smooth="yes"/>
      <point x="575" y="1375"/>
      <point x="590" y="1402"/>
      <point x="627" y="1402" type="curve" smooth="yes"/>
      <point x="656" y="1402"/>
      <point x="675" y="1391"/>
      <point x="704" y="1370" type="curve" smooth="yes"/>
      <point x="738" y="1345" type="line"/>
      <point x="826" y="1510" type="line"/>
      <point x="792" y="1535" type="line" smooth="yes"/>
      <point x="734" y="1578"/>
      <point x="680" y="1612"/>
      <point x="601" y="1612" type="curve" smooth="yes"/>
      <point x="477" y="1612"/>
      <point x="409" y="1527"/>
    </contour>
  </outline>
</glyph>
<glyph name="odieresis" format="2">
  <advance width="1530"/>
  <unicode hex="00F6"/>
  <anchor x="765" y="0" name="bottom"/>
  <anchor x="1089" y="0" name="ogonek"/>
  <anchor x="765" y="1584" name="top"/>
  <anchor x="1295" y="1030" name="topright"/>
  <outline>
    <contour>
      <point x="765" y="-26" type="curve" smooth="yes"/>
      <point x="1155" y="-26"/>
      <point x="1448" y="189"/>
      <point x="1448" y="580" type="curve" smooth="yes"/>
      <point x="1448" y="970"/>
      <point x="1155" y="1186"/>
      <point x="765" y="1186" type="curve" smooth="yes"/>
      <point x="375" y="1186"/>
      <point x="82" y="970"/>
      <point x="82" y="580" type="curve" smooth="yes"/>
      <point x="82" y="189"/>
      <point x="375" y="-26"/>
    </contour>
    <contour>
      <point x="765" y="194" type="curve" smooth="yes"/>
      <point x="617" y="194"/>
      <point x="528" y="332"/>
      <point x="528" y="580" type="curve" smooth="yes"/>
      <point x="528" y="824"/>
      <point x="617" y="966"/>
      <point x="765" y="966" type="curve" smooth="yes"/>
      <point x="912" y="966"/>
      <point x="1002" y="830"/>
      <point x="1002" y="596" type="curve" smooth="yes"/>
      <point x="1002" y="339"/>
      <point x="912" y="194"/>
    </contour>
    <contour>
      <point x="1010" y="1252" type="curve" smooth="yes"/>
      <point x="1126" y="1252"/>
      <point x="1205" y="1328"/>
      <point x="1205" y="1452" type="curve" smooth="yes"/>
      <point x="1205" y="1575"/>
      <point x="1126" y="1651"/>
      <point x="1010" y="1651" type="curve" smooth="yes"/>
      <point x="894" y="1651"/>
      <point x="815" y="1575"/>
      <point x="815" y="1452" type="curve" smooth="yes"/>
      <point x="815" y="1328"/>
      <point x="894" y="1252"/>
    </contour>
    <contour>
      <point x="520" y="1252" type="curve" smooth="yes"/>
      <point x="636" y="1252"/>
      <point x="715" y="1328"/>
      <point x="715" y="1452" type="curve" smooth="yes"/>
      <point x="715" y="1575"/>
      <point x="636" y="1651"/>
      <point x="520" y="1651" type="curve" smooth="yes"/>
      <point x="404" y="1651"/>
      <point x="325" y="1575"/>
      <point x="325" y="1452" type="curve" smooth="yes"/>
      <point x="325" y="1328"/>
      <point x="404" y="1252"/>
    </contour>
  </outline>
</glyph>
<glyph name="divide" format="2">
  <advance width="1300"/>
  <unicode hex="00F7"/>
  <outline>
    <contour>
      <point x="139" y="596" type="line"/>
      <point x="1161" y="596" type="line"/>
      <point x="1161" y="908" type="line"/>
      <point x="139" y="908" type="line"/>
    </contour>
    <contour>
      <point x="650" y="142" type="curve" smooth="yes"/>
      <point x="781" y="142"/>
      <point x="867" y="219"/>
      <point x="867" y="334" type="curve" smooth="yes"/>
      <point x="867" y="449"/>
      <point x="781" y="526"/>
      <point x="650" y="526" type="curve" smooth="yes"/>
      <point x="519" y="526"/>
      <point x="433" y="449"/>
      <point x="433" y="334" type="curve" smooth="yes"/>
      <point x="433" y="219"/>
      <point x="519" y="142"/>
    </contour>
    <contour>
      <point x="650" y="978" type="curve" smooth="yes"/>
      <point x="781" y="978"/>
      <point x="867" y="1055"/>
      <point x="867" y="1170" type="curve" smooth="yes"/>
      <point x="867" y="1285"/>
      <point x="781" y="1362"/>
      <point x="650" y="1362" type="curve" smooth="yes"/>
      <point x="519" y="1362"/>
      <point x="433" y="1285"/>
      <point x="433" y="1170" type="curve" smooth="yes"/>
      <point x="433" y="1055"/>
      <point x="519" y="978"/>
    </contour>
  </outline>
</glyph>
<glyph name="yacute" format="2">
  <advance width="1454"/>
  <unicode hex="00FD"/>
  <anchor x="1121" y="0" name="bottom"/>
  <anchor x="795" y="1160" name="top"/>
  <outline>
    <contour>
      <point x="401" y="-244" type="curve"/>
      <point x="385" y="-440" type="line"/>
      <point x="631" y="-440"/>
      <point x="761" y="-310"/>
      <point x="879" y="-35" type="curve" smooth="yes"/>
      <point x="1300" y="950" type="line"/>
      <point x="1400" y="950" type="line"/>
      <point x="1400" y="1160" type="line"/>
      <point x="856" y="1160" type="line"/>
      <point x="856" y="950" type="line"/>
      <point x="1012" y="950" type="line"/>
      <point x="726" y="272" type="line"/>
      <point x="692" y="216" type="line"/>
      <point x="559" y="-98" type="line" smooth="yes"/>
      <point x="523" y="-183"/>
      <point x="478" y="-244"/>
    </contour>
    <contour>
      <point x="385" y="-440" type="curve"/>
      <point x="401" y="-244" type="line"/>
      <point x="335" y="-244"/>
      <point x="293" y="-217"/>
      <point x="270" y="-185" type="curve"/>
      <point x="261" y="-258" type="line"/>
      <point x="357" y="-269"/>
      <point x="454" y="-237"/>
      <point x="454" y="-135" type="curve" smooth="yes"/>
      <point x="454" y="-44"/>
      <point x="373" y="0"/>
      <point x="279" y="0" type="curve" smooth="yes"/>
      <point x="135" y="0"/>
      <point x="57" y="-92"/>
      <point x="57" y="-198" type="curve" smooth="yes"/>
      <point x="57" y="-344"/>
      <point x="189" y="-440"/>
    </contour>
    <contour>
      <point x="654" y="-221" type="line"/>
      <point x="852" y="270" type="line"/>
      <point x="582" y="950" type="line"/>
      <point x="741" y="950" type="line"/>
      <point x="741" y="1160" type="line"/>
      <point x="54" y="1160" type="line"/>
      <point x="54" y="950" type="line"/>
      <point x="154" y="950" type="line"/>
    </contour>
    <contour>
      <point x="626" y="1290" type="line"/>
      <point x="888" y="1290" type="line"/>
      <point x="1166" y="1590" type="line"/>
      <point x="758" y="1590" type="line"/>
    </contour>
  </outline>
</glyph>
<glyph name="thorn" format="2">
  <advance width="1566"/>
  <unicode hex="00FE"/>
  <outline>
    <contour>
      <point x="949" y="-22" type="curve" smooth="yes"/>
      <point x="1259" y="-22"/>
      <point x="1484" y="204"/>
      <point x="1484" y="580" type="curve" smooth="yes"/>
      <point x="1484" y="956"/>
      <point x="1259" y="1182"/>
      <point x="945" y="1182" type="curve" smooth="yes"/>
      <point x="623" y="1182"/>
      <point x="481" y="956"/>
      <point x="481" y="580" type="curve"/>
      <point x="509" y="580" type="line"/>
      <point x="509" y="194"/>
      <point x="623" y="-22"/>
    </contour>
    <contour>
      <point x="802" y="230" type="curve" smooth="yes"/>
      <point x="648" y="230"/>
      <point x="558" y="350"/>
      <point x="558" y="580" type="curve" smooth="yes"/>
      <point x="558" y="810"/>
      <point x="648" y="930"/>
      <point x="802" y="930" type="curve" smooth="yes"/>
      <point x="954" y="930"/>
      <point x="1044" y="810"/>
      <point x="1044" y="580" type="curve" smooth="yes"/>
      <point x="1044" y="350"/>
      <point x="954" y="230"/>
    </contour>
    <contour>
      <point x="28" y="-420" type="line"/>
      <point x="758" y="-420" type="line"/>
      <point x="758" y="-210" type="line"/>
      <point x="578" y="-210" type="line"/>
      <point x="578" y="334" type="line"/>
      <point x="523" y="581" type="line"/>
      <point x="578" y="875" type="line"/>
      <point x="578" y="1580" type="line"/>
      <point x="34" y="1580" type="line"/>
      <point x="34" y="1370" type="line"/>
      <point x="178" y="1370" type="line"/>
      <point x="178" y="-210" type="line"/>
      <point x="28" y="-210" type="line"/>
    </contour>
  </outline>
</glyph>
<glyph name="Amacron" format="2">
  <advance width="1824"/>
  <unicode hex="0100"/>
  <anchor x="912" y="0" name="bottom"/>
  <anchor x="1642" y="0" name="ogonek"/>
  <anchor x="912" y="1500" name="top"/>
  <outline>
    <contour>
      <point x="34" y="0" type="line"/>
      <point x="660" y="0" type="line"/>
      <point x="660" y="214" type="line"/>
      <point x="454" y="214" type="line"/>
      <point x="895" y="1269" type="line"/>
      <point x="764" y="1270" type="line"/>
      <point x="1194" y="214" type="line"/>
      <point x="986" y="214" type="line"/>
      <point x="986" y="0" type="line"/>
      <point x="1790" y="0" type="line"/>
      <point x="1790" y="214" type="line"/>
      <point x="1651" y="214" type="line"/>
      <point x="1106" y="1500" type="line"/>
      <point x="718" y="1500" type="line"/>
      <point x="173" y="214" type="line"/>
      <point x="34" y="214" type="line"/>
    </contour>
    <contour>
      <point x="486" y="425" type="line"/>
      <point x="1184" y="425" type="line"/>
      <point x="1184" y="649" type="line"/>
      <point x="486" y="649" type="line"/>
    </contour>
    <contour>
      <point x="542" y="1650" type="line"/>
      <point x="1282" y="1650" type="line"/>
      <point x="1282" y="1850" type="line"/>
      <point x="542" y="1850" type="line"/>
    </contour>
  </outline>
</glyph>
<glyph name="Aogonek" format="2">
  <advance width="1824"/>
  <unicode hex="0104"/>
  <anchor x="912" y="0" name="bottom"/>
  <anchor x="1642" y="0" name="ogonek"/>
  <anchor x="912" y="1500" name="top"/>
  <outline>
    <contour>
      <point x="34" y="0" type="line"/>
      <point x="660" y="0" type="line"/>
      <point x="660" y="214" type="line"/>
      <point x="454" y="214" type="line"/>
      <point x="895" y="1269" type="line"/>
      <point x="764" y="1270" type="line"/>
      <point x="1194" y="214" type="line"/>
      <point x="986" y="214" type="line"/>
      <point x="986" y="0" type="line"/>
      <point x="1790" y="0" type="line"/>
      <point x="1790" y="214" type="line"/>
      <point x="1651" y="214" type="line"/>
      <point x="1106" y="1500" type="line"/>
      <point x="718" y="1500" type="line"/>
      <point x="173" y="214" type="line"/>
      <point x="34" y="214" type="line"/>
    </contour>
    <contour>
      <point x="486" y="425" type="line"/>
      <point x="1184" y="425" type="line"/>
      <point x="1184" y="649" type="line"/>
      <point x="486" y="649" type="line"/>
    </contour>
    <contour>
      <point x="1467" y="-440" type="curve" smooth="yes"/>
      <point x="1553" y="-440"/>
      <point x="1621" y="-417"/>
      <point x="1663" y="-390" type="curve"/>
      <point x="1611" y="-251" type="line"/>
      <point x="1590" y="-261"/>
      <point x="1573" y="-267"/>
      <point x="1546" y="-267" type="curve" smooth="yes"/>
      <point x="1493" y="-267"/>
      <point x="1454" y="-239"/>
      <point x="1454" y="-188" type="curve" smooth="yes"/>
      <point x="1454" y="-113"/>
      <point x="1505" y="-52"/>
      <point x="1562" y="10" type="curve"/>
      <point x="1461" y="106" type="line"/>
      <point x="1335" y="20"/>
      <point x="1212" y="-89"/>
      <point x="1212" y="-228" type="curve" smooth="yes"/>
      <point x="1212" y="-360"/>
      <point x="1324" y="-440"/>
    </contour>
  </outline>
</glyph>
<glyph name="cdotaccent" format="2">
  <advance width="1348"/>
  <unicode hex="010B"/>
  <anchor x="668" y="0" name="bottom"/>
  <anchor x="710" y="1584" name="top"/>
  <outline>
    <contour>
      <point x="713" y="-26" type="curve" smooth="yes"/>
      <point x="1049" y="-26"/>
      <point x="1251" y="193"/>
      <point x="1258" y="465" type="curve"/>
      <point x="1030" y="465" type="line"/>
      <point x="1008" y="358"/>
      <point x="924" y="274"/>
      <point x="790" y="274" type="curve" smooth="yes"/>
      <point x="592" y="274"/>
      <point x="481" y="426"/>
      <point x="481" y="639" type="curve" smooth="yes"/>
      <point x="481" y="846"/>
      <point x="593" y="988"/>
      <point x="776" y="988" type="curve"/>
      <point x="723" y="1186" type="line"/>
      <point x="350" y="1186"/>
      <point x="82" y="971"/>
      <point x="82" y="581" type="curve" smooth="yes"/>
      <point x="82" y="190"/>
      <point x="345" y="-26"/>
    </contour>
    <contour>
      <point x="1013" y="679" type="curve" smooth="yes"/>
      <point x="1142" y="679"/>
      <point x="1240" y="752"/>
      <point x="1240" y="880" type="curve" smooth="yes"/>
      <point x="1240" y="1058"/>
      <point x="1032" y="1186"/>
      <point x="723" y="1186" type="curve"/>
      <point x="776" y="988" type="line"/>
      <point x="891" y="988"/>
      <point x="949" y="949"/>
      <point x="1026" y="864" type="curve"/>
      <point x="1031" y="1000" type="line"/>
      <point x="894" y="1000"/>
      <point x="805" y="963"/>
      <point x="805" y="842" type="curve" smooth="yes"/>
      <point x="805" y="750"/>
      <point x="887" y="679"/>
    </contour>
    <contour>
      <point x="710" y="1244" type="curve" smooth="yes"/>
      <point x="854" y="1244"/>
      <point x="954" y="1325"/>
      <point x="954" y="1458" type="curve" smooth="yes"/>
      <point x="954" y="1590"/>
      <point x="854" y="1672"/>
      <point x="710" y="1672" type="curve" smooth="yes"/>
      <point x="566" y="1672"/>
      <point x="466" y="1590"/>
      <point x="466" y="1458" type="curve" smooth="yes"/>
      <point x="466" y="1325"/>
      <point x="566" y="1244"/>
    </contour>
  </outline>
</glyph>
<glyph name="Ccaron" format="2">
  <advance width="1689"/>
  <unicode hex="010C"/>
  <anchor x="837" y="0" name="bottom"/>
  <anchor x="869" y="1500" name="top"/>
  <outline>
    <contour>
      <point x="877" y="-32" type="curve" smooth="yes"/>
      <point x="1378" y="-32"/>
      <point x="1588" y="269"/>
      <point x="1605" y="603" type="curve"/>
      <point x="1363" y="603" type="line"/>
      <point x="1337" y="412"/>
      <point x="1216" y="262"/>
      <point x="969" y="262" type="curve" smooth="yes"/>
      <point x="698" y="262"/>
      <point x="522" y="462"/>
      <point x="522" y="772" type="curve" smooth="yes"/>
      <point x="522" y="1076"/>
      <point x="680" y="1278"/>
      <point x="957" y="1278" type="curve" smooth="yes"/>
      <point x="1210" y="1278"/>
      <point x="1316" y="1120"/>
      <point x="1337" y="983" type="curve"/>
      <point x="1474" y="983" type="line"/>
      <point x="1458" y="1323"/>
      <point x="1212" y="1532"/>
      <point x="837" y="1532" type="curve" smooth="yes"/>
      <point x="398" y="1532"/>
      <point x="64" y="1236"/>
      <point x="64" y="750" type="curve" smooth="yes"/>
      <point x="64" y="264"/>
      <point x="398" y="-32"/>
    </contour>
    <contour>
      <point x="1474" y="983" type="line"/>
      <point x="1587" y="983" type="line"/>
      <point x="1587" y="1500" type="line"/>
      <point x="1343" y="1500" type="line"/>
      <point x="1343" y="1164" type="line"/>
    </contour>
    <contour>
      <point x="661" y="1630" type="line"/>
      <point x="1077" y="1630" type="line"/>
      <point x="1283" y="1930" type="line"/>
      <point x="1053" y="1930" type="line"/>
      <point x="809" y="1717" type="line"/>
      <point x="979" y="1717" type="line"/>
      <point x="739" y="1930" type="line"/>
      <point x="455" y="1930" type="line"/>
    </contour>
  </outline>
</glyph>
<glyph name="Dcaron" format="2">
  <advance width="1783"/>
  <unicode hex="010E"/>
  <anchor x="834" y="0" name="bottom"/>
  <anchor x="227" y="750" name="stroke"/>
  <anchor x="834" y="1500" name="top"/>
  <outline>
    <contour>
      <point x="647" y="0" type="line"/>
      <point x="883" y="0" type="line" smooth="yes"/>
      <point x="1385" y="0"/>
      <point x="1719" y="270"/>
      <point x="1719" y="750" type="curve" smooth="yes"/>
      <point x="1719" y="1230"/>
      <point x="1385" y="1500"/>
      <point x="883" y="1500" type="curve" smooth="yes"/>
      <point x="647" y="1500" type="line"/>
      <point x="647" y="1276" type="line"/>
      <point x="821" y="1276" type="line" smooth="yes"/>
      <point x="1084" y="1276"/>
      <point x="1257" y="1074"/>
      <point x="1257" y="750" type="curve" smooth="yes"/>
      <point x="1257" y="426"/>
      <point x="1084" y="224"/>
      <point x="821" y="224" type="curve" smooth="yes"/>
      <point x="647" y="224" type="line"/>
    </contour>
    <contour>
      <point x="62" y="0" type="line"/>
      <point x="647" y="0" type="line"/>
      <point x="647" y="1500" type="line"/>
      <point x="65" y="1500" type="line"/>
      <point x="65" y="1286" type="line"/>
      <point x="227" y="1286" type="line"/>
      <point x="227" y="214" type="line"/>
      <point x="62" y="214" type="line"/>
    </contour>
    <contour>
      <point x="626" y="1630" type="line"/>
      <point x="1042" y="1630" type="line"/>
      <point x="1248" y="1930" type="line"/>
      <point x="1018" y="1930" type="line"/>
      <point x="774" y="1717" type="line"/>
      <point x="944" y="1717" type="line"/>
      <point x="704" y="1930" type="line"/>
      <point x="420" y="1930" type="line"/>
    </contour>
  </outline>
</glyph>
<glyph name="dcaron" format="2">
  <advance width="1698"/>
  <unicode hex="010F"/>
  <anchor x="793" y="0" name="bottom"/>
  <anchor x="793" y="580" name="center"/>
  <anchor x="793" y="1580" name="top"/>
  <anchor x="1388" y="1580" name="topright"/>
  <outline>
    <contour>
      <point x="621" y="-22" type="curve" smooth="yes"/>
      <point x="943" y="-22"/>
      <point x="1085" y="214"/>
      <point x="1085" y="580" type="curve"/>
      <point x="1057" y="580" type="line"/>
      <point x="1057" y="956"/>
      <point x="943" y="1182"/>
      <point x="617" y="1182" type="curve" smooth="yes"/>
      <point x="307" y="1182"/>
      <point x="82" y="966"/>
      <point x="82" y="580" type="curve" smooth="yes"/>
      <point x="82" y="194"/>
      <point x="307" y="-22"/>
    </contour>
    <contour>
      <point x="764" y="230" type="curve" smooth="yes"/>
      <point x="612" y="230"/>
      <point x="522" y="350"/>
      <point x="522" y="580" type="curve" smooth="yes"/>
      <point x="522" y="810"/>
      <point x="612" y="930"/>
      <point x="764" y="930" type="curve" smooth="yes"/>
      <point x="918" y="930"/>
      <point x="1008" y="810"/>
      <point x="1008" y="580" type="curve" smooth="yes"/>
      <point x="1008" y="350"/>
      <point x="918" y="230"/>
    </contour>
    <contour>
      <point x="1018" y="0" type="line"/>
      <point x="1526" y="0" type="line"/>
      <point x="1526" y="210" type="line"/>
      <point x="1388" y="210" type="line"/>
      <point x="1388" y="1580" type="line"/>
      <point x="844" y="1580" type="line"/>
      <point x="844" y="1370" type="line"/>
      <point x="988" y="1370" type="line"/>
      <point x="988" y="838" type="line"/>
      <point x="1050" y="581" type="line"/>
      <point x="1018" y="280" type="line"/>
    </contour>
    <contour>
      <point x="1500" y="1130" type="line"/>
      <point x="1718" y="1130" type="line"/>
      <point x="1866" y="1580" type="line"/>
      <point x="1518" y="1580" type="line"/>
    </contour>
  </outline>
</glyph>
<glyph name="Dcroat" format="2">
  <advance width="1783"/>
  <unicode hex="0110"/>
  <anchor x="834" y="0" name="bottom"/>
  <anchor x="227" y="750" name="stroke"/>
  <anchor x="834" y="1500" name="top"/>
  <outline>
    <contour>
      <point x="647" y="0" type="line"/>
      <point x="883" y="0" type="line" smooth="yes"/>
      <point x="1385" y="0"/>
      <point x="1719" y="270"/>
      <point x="1719" y="750" type="curve" smooth="yes"/>
      <point x="1719" y="1230"/>
      <point x="1385" y="1500"/>
      <point x="883" y="1500" type="curve" smooth="yes"/>
      <point x="647" y="1500" type="line"/>
      <point x="647" y="1276" type="line"/>
      <point x="821" y="1276" type="line" smooth="yes"/>
      <point x="1084" y="1276"/>
      <point x="1257" y="1074"/>
      <point x="1257" y="750" type="curve" smooth="yes"/>
      <point x="1257" y="426"/>
      <point x="1084" y="224"/>
      <point x="821" y="224" type="curve" smooth="yes"/>
      <point x="647" y="224" type="line"/>
    </contour>
    <contour>
      <point x="62" y="0" type="line"/>
      <point x="647" y="0" type="line"/>
      <point x="647" y="1500" type="line"/>
      <point x="65" y="1500" type="line"/>
      <point x="65" y="1286" type="line"/>
      <point x="227" y="1286" type="line"/>
      <point x="227" y="214" type="line"/>
      <point x="62" y="214" type="line"/>
    </contour>
    <contour>
      <point x="62" y="662" type="line"/>
      <point x="912" y="662" type="line"/>
      <point x="912" y="840" type="line"/>
      <point x="62" y="840" type="line"/>
    </contour>
  </outline>
</glyph>
<glyph name="Edotaccent" format="2">
  <advance width="1606"/>
  <unicode hex="0116"/>
  <anchor x="803" y="0" name="bottom"/>
  <anchor x="1511" y="0" name="ogonek"/>
  <anchor x="827" y="1924" name="top"/>
  <outline>
    <contour>
      <point x="62" y="0" type="line"/>
      <point x="647" y="0" type="line"/>
      <point x="647" y="1500" type="line"/>
      <point x="65" y="1500" type="line"/>
      <point x="65" y="1286" type="line"/>
      <point x="227" y="1286" type="line"/>
      <point x="227" y="214" type="line"/>
      <point x="62" y="214" type="line"/>
    </contour>
    <contour>
      <point x="647" y="0" type="line"/>
      <point x="1511" y="0" type="line"/>
      <point x="1511" y="224" type="line"/>
      <point x="647" y="224" type="line"/>
    </contour>
    <contour>
      <point x="868" y="432" type="curve" smooth="yes"/>
      <point x="868" y="364" type="line"/>
      <point x="1092" y="364" type="line"/>
      <point x="1092" y="662" type="line"/>
      <point x="676" y="662" type="line" smooth="yes"/>
      <point x="808" y="662"/>
      <point x="868" y="592"/>
    </contour>
    <contour>
      <point x="647" y="662" type="line"/>
      <point x="1092" y="662" type="line"/>
      <point x="1092" y="882" type="line"/>
      <point x="647" y="882" type="line"/>
    </contour>
    <contour>
      <point x="1059" y="224" type="curve" smooth="yes"/>
      <point x="1511" y="224" type="line"/>
      <point x="1511" y="560" type="line"/>
      <point x="1279" y="560" type="line"/>
      <point x="1279" y="464" type="line" smooth="yes"/>
      <point x="1279" y="294"/>
      <point x="1219" y="224"/>
    </contour>
    <contour>
      <point x="676" y="882" type="curve" smooth="yes"/>
      <point x="1092" y="882" type="line"/>
      <point x="1092" y="1136" type="line"/>
      <point x="868" y="1136" type="line"/>
      <point x="868" y="1112" type="line" smooth="yes"/>
      <point x="868" y="952"/>
      <point x="808" y="882"/>
    </contour>
    <contour>
      <point x="647" y="1276" type="line"/>
      <point x="1493" y="1276" type="line"/>
      <point x="1493" y="1500" type="line"/>
      <point x="647" y="1500" type="line"/>
    </contour>
    <contour>
      <point x="1261" y="1036" type="curve" smooth="yes"/>
      <point x="1261" y="960" type="line"/>
      <point x="1493" y="960" type="line"/>
      <point x="1493" y="1276" type="line"/>
      <point x="1041" y="1276" type="line" smooth="yes"/>
      <point x="1201" y="1276"/>
      <point x="1261" y="1206"/>
    </contour>
    <contour>
      <point x="827" y="1584" type="curve" smooth="yes"/>
      <point x="971" y="1584"/>
      <point x="1071" y="1665"/>
      <point x="1071" y="1798" type="curve" smooth="yes"/>
      <point x="1071" y="1930"/>
      <point x="971" y="2012"/>
      <point x="827" y="2012" type="curve" smooth="yes"/>
      <point x="683" y="2012"/>
      <point x="583" y="1930"/>
      <point x="583" y="1798" type="curve" smooth="yes"/>
      <point x="583" y="1665"/>
      <point x="683" y="1584"/>
    </contour>
  </outline>
</glyph>
<glyph name="Eogonek" format="2">
  <advance width="1606"/>
  <unicode hex="0118"/>
  <anchor x="803" y="0" name="bottom"/>
  <anchor x="1511" y="0" name="ogonek"/>
  <anchor x="827" y="1500" name="top"/>
  <outline>
    <contour>
      <point x="62" y="0" type="line"/>
      <point x="647" y="0" type="line"/>
      <point x="647" y="1500" type="line"/>
      <point x="65" y="1500" type="line"/>
      <point x="65" y="1286" type="line"/>
      <point x="227" y="1286" type="line"/>
      <point x="227" y="214" type="line"/>
      <point x="62" y="214" type="line"/>
    </contour>
    <contour>
      <point x="647" y="0" type="line"/>
      <point x="1511" y="0" type="line"/>
      <point x="1511" y="224" type="line"/>
      <point x="647" y="224" type="line"/>
    </contour>
    <contour>
      <point x="868" y="432" type="curve" smooth="yes"/>
      <point x="868" y="364" type="line"/>
      <point x="1092" y="364" type="line"/>
      <point x="1092" y="662" type="line"/>
      <point x="676" y="662" type="line" smooth="yes"/>
      <point x="808" y="662"/>
      <point x="868" y="592"/>
    </contour>
    <contour>
      <point x="647" y="662" type="line"/>
      <point x="1092" y="662" type="line"/>
      <point x="1092" y="882" type="line"/>
      <point x="647" y="882" type="line"/>
    </contour>
    <contour>
      <point x="1059" y="224" type="curve" smooth="yes"/>
      <point x="1511" y="224" type="line"/>
      <point x="1511" y="560" type="line"/>
      <point x="1279" y="560" type="line"/>
      <point x="1279" y="464" type="line" smooth="yes"/>
      <point x="1279" y="294"/>
      <point x="1219" y="224"/>
    </contour>
    <contour>
      <point x="676" y="882" type="curve" smooth="yes"/>
      <point x="1092" y="882" type="line"/>
      <point x="1092" y="1136" type="line"/>
      <point x="868" y="1136" type="line"/>
      <point x="868" y="1112" type="line" smooth="yes"/>
      <point x="868" y="952"/>
      <point x="808" y="882"/>
    </contour>
    <contour>
      <point x="647" y="1276" type="line"/>
      <point x="1493" y="1276" type="line"/>
      <point x="1493" y="1500" type="line"/>
      <point x="647" y="1500" type="line"/>
    </contour>
    <contour>
      <point x="1261" y="1036" type="curve" smooth="yes"/>
      <point x="1261" y="960" type="line"/>
      <point x="1493" y="960" type="line"/>
      <point x="1493" y="1276" type="line"/>
      <point x="1041" y="1276" type="line" smooth="yes"/>
      <point x="1201" y="1276"/>
      <point x="1261" y="1206"/>
    </contour>
    <contour>
      <point x="1336" y="-440" type="curve" smooth="yes"/>
      <point x="1422" y="-440"/>
      <point x="1490" y="-417"/>
      <point x="1532" y="-390" type="curve"/>
      <point x="1480" y="-251" type="line"/>
      <point x="1459" y="-261"/>
      <point x="1442" y="-267"/>
      <point x="1415" y="-267" type="curve" smooth="yes"/>
      <point x="1362" y="-267"/>
      <point x="1323" y="-239"/>
      <point x="1323" y="-188" type="curve" smooth="yes"/>
      <point x="1323" y="-113"/>
      <point x="1374" y="-52"/>
      <point x="1431" y="10" type="curve"/>
      <point x="1330" y="106" type="line"/>
      <point x="1204" y="20"/>
      <point x="1081" y="-89"/>
      <point x="1081" y="-228" type="curve" smooth="yes"/>
      <point x="1081" y="-360"/>
      <point x="1193" y="-440"/>
    </contour>
  </outline>
</glyph>
<glyph name="ecaron" format="2">
  <advance width="1368"/>
  <unicode hex="011B"/>
  <anchor x="680" y="0" name="bottom"/>
  <anchor x="1005" y="0" name="ogonek"/>
  <anchor x="680" y="1160" name="top"/>
  <outline>
    <contour>
      <point x="699" y="-26" type="curve" smooth="yes"/>
      <point x="1069" y="-26"/>
      <point x="1251" y="207"/>
      <point x="1274" y="440" type="curve"/>
      <point x="1022" y="440" type="line"/>
      <point x="988" y="341"/>
      <point x="913" y="267"/>
      <point x="765" y="267" type="curve" smooth="yes"/>
      <point x="586" y="267"/>
      <point x="474" y="399"/>
      <point x="474" y="610" type="curve" smooth="yes"/>
      <point x="474" y="873"/>
      <point x="554" y="970"/>
      <point x="695" y="970" type="curve"/>
      <point x="683" y="1186" type="line"/>
      <point x="334" y="1186"/>
      <point x="82" y="970"/>
      <point x="82" y="580" type="curve" smooth="yes"/>
      <point x="82" y="189"/>
      <point x="337" y="-26"/>
    </contour>
    <contour>
      <point x="262" y="560" type="line"/>
      <point x="1278" y="560" type="line"/>
      <point x="1278" y="657" type="line"/>
      <point x="884" y="758" type="line"/>
      <point x="262" y="758" type="line"/>
    </contour>
    <contour>
      <point x="884" y="758" type="curve"/>
      <point x="1278" y="657" type="line"/>
      <point x="1278" y="972"/>
      <point x="1069" y="1186"/>
      <point x="683" y="1186" type="curve"/>
      <point x="695" y="970" type="line"/>
      <point x="818" y="970"/>
      <point x="880" y="873"/>
    </contour>
    <contour>
      <point x="472" y="1290" type="line"/>
      <point x="888" y="1290" type="line"/>
      <point x="1094" y="1590" type="line"/>
      <point x="864" y="1590" type="line"/>
      <point x="620" y="1377" type="line"/>
      <point x="790" y="1377" type="line"/>
      <point x="550" y="1590" type="line"/>
      <point x="266" y="1590" type="line"/>
    </contour>
  </outline>
</glyph>
<glyph name="gbreve" format="2">
  <advance width="1466"/>
  <unicode hex="011F"/>
  <anchor x="734" y="-440" name="bottom"/>
  <anchor x="734" y="1534" name="side"/>
  <anchor x="734" y="1570" name="top"/>
  <outline>
    <contour>
      <point x="532" y="-420" type="curve" smooth="yes"/>
      <point x="861" y="-420" type="line" smooth="yes"/>
      <point x="1204" y="-420"/>
      <point x="1380" y="-263"/>
      <point x="1380" y="0" type="curve" smooth="yes"/>
      <point x="1380" y="188"/>
      <point x="1242" y="310"/>
      <point x="991" y="310" type="curve" smooth="yes"/>
      <point x="461" y="310" type="line" smooth="yes"/>
      <point x="402" y="310"/>
      <point x="367" y="331"/>
      <point x="367" y="378" type="curve" smooth="yes"/>
      <point x="367" y="423"/>
      <point x="404" y="450"/>
      <point x="467" y="450" type="curve"/>
      <point x="449" y="524" type="line"/>
      <point x="225" y="526"/>
      <point x="76" y="419"/>
      <point x="76" y="238" type="curve" smooth="yes"/>
      <point x="76" y="65"/>
      <point x="225" y="-40"/>
      <point x="449" y="-40" type="curve" smooth="yes"/>
      <point x="895" y="-40" type="line" smooth="yes"/>
      <point x="958" y="-40"/>
      <point x="999" y="-64"/>
      <point x="999" y="-119" type="curve" smooth="yes"/>
      <point x="999" y="-181"/>
      <point x="953" y="-222"/>
      <point x="863" y="-222" type="curve" smooth="yes"/>
      <point x="607" y="-222" type="line" smooth="yes"/>
      <point x="512" y="-222"/>
      <point x="459" y="-189"/>
      <point x="459" y="-116" type="curve" smooth="yes"/>
      <point x="459" y="-81"/>
      <point x="477" y="-52"/>
      <point x="506" y="-27" type="curve"/>
      <point x="470" y="3" type="line"/>
      <point x="298" y="3"/>
      <point x="162" y="-60"/>
      <point x="162" y="-204" type="curve" smooth="yes"/>
      <point x="162" y="-356"/>
      <point x="305" y="-420"/>
    </contour>
    <contour>
      <point x="722" y="402" type="curve" smooth="yes"/>
      <point x="1052" y="402"/>
      <point x="1240" y="542"/>
      <point x="1240" y="750" type="curve" smooth="yes"/>
      <point x="1240" y="862"/>
      <point x="1176" y="927"/>
      <point x="1118" y="956" type="curve" smooth="yes"/>
      <point x="722" y="1170" type="line"/>
      <point x="386" y="1170"/>
      <point x="174" y="1030"/>
      <point x="174" y="786" type="curve" smooth="yes"/>
      <point x="174" y="542"/>
      <point x="386" y="402"/>
    </contour>
    <contour>
      <point x="722" y="598" type="curve" smooth="yes"/>
      <point x="628" y="598"/>
      <point x="574" y="674"/>
      <point x="574" y="786" type="curve" smooth="yes"/>
      <point x="574" y="894"/>
      <point x="628" y="974"/>
      <point x="722" y="974" type="curve" smooth="yes"/>
      <point x="816" y="974"/>
      <point x="870" y="894"/>
      <point x="870" y="786" type="curve" smooth="yes"/>
      <point x="870" y="674"/>
      <point x="816" y="598"/>
    </contour>
    <contour>
      <point x="1118" y="956" type="line"/>
      <point x="1356" y="956" type="line"/>
      <point x="1356" y="1170" type="line"/>
      <point x="722" y="1170" type="line"/>
    </contour>
    <contour>
      <point x="734" y="1260" type="curve" smooth="yes"/>
      <point x="973" y="1260"/>
      <point x="1102" y="1404"/>
      <point x="1108" y="1590" type="curve"/>
      <point x="928" y="1590" type="line"/>
      <point x="916" y="1528"/>
      <point x="864" y="1468"/>
      <point x="734" y="1468" type="curve" smooth="yes"/>
      <point x="604" y="1468"/>
      <point x="552" y="1528"/>
      <point x="540" y="1590" type="curve"/>
      <point x="360" y="1590" type="line"/>
      <point x="366" y="1404"/>
      <point x="495" y="1260"/>
    </contour>
  </outline>
</glyph>
<glyph name="Hcircumflex" format="2">
  <advance width="1837"/>
  <unicode hex="0124"/>
  <anchor x="919" y="0" name="bottom"/>
  <anchor x="919" y="750" name="center"/>
  <anchor x="1393" y="1700" name="side"/>
  <anchor x="919" y="1910" name="top"/>
  <anchor x="20" y="1500" name="topleft"/>
  <outline>
    <contour>
      <point x="62" y="0" type="line"/>
      <point x="824" y="0" type="line"/>
      <point x="824" y="214" type="line"/>
      <point x="647" y="214" type="line"/>
      <point x="647" y="1286" type="line"/>
      <point x="824" y="1286" type="line"/>
      <point x="824" y="1500" type="line"/>
      <point x="65" y="1500" type="line"/>
      <point x="65" y="1286" type="line"/>
      <point x="227" y="1286" type="line"/>
      <point x="227" y="214" type="line"/>
      <point x="62" y="214" type="line"/>
    </contour>
    <contour>
      <point x="1016" y="0" type="line"/>
      <point x="1775" y="0" type="line"/>
      <point x="1775" y="214" type="line"/>
      <point x="1613" y="214" type="line"/>
      <point x="1613" y="1286" type="line"/>
      <point x="1775" y="1286" type="line"/>
      <point x="1775" y="1500" type="line"/>
      <point x="1016" y="1500" type="line"/>
      <point x="1016" y="1286" type="line"/>
      <point x="1193" y="1286" type="line"/>
      <point x="1193" y="214" type="line"/>
      <point x="1016" y="214" type="line"/>
    </contour>
    <contour>
      <point x="647" y="639" type="line"/>
      <point x="1193" y="639" type="line"/>
      <point x="1193" y="847" type="line"/>
      <point x="647" y="847" type="line"/>
    </contour>
    <contour>
      <point x="505" y="1630" type="line"/>
      <point x="735" y="1630" type="line"/>
      <point x="979" y="1843" type="line"/>
      <point x="809" y="1843" type="line"/>
      <point x="1049" y="1630" type="line"/>
      <point x="1333" y="1630" type="line"/>
      <point x="1127" y="1930" type="line"/>
      <point x="711" y="1930" type="line"/>
    </contour>
  </outline>
</glyph>
<glyph name="hcircumflex" format="2">
  <advance width="1541"/>
  <unicode hex="0125"/>
  <anchor x="767" y="0" name="bottom"/>
  <anchor x="767" y="790" name="center"/>
  <anchor x="891" y="1780" name="side"/>
  <anchor x="417" y="1990" name="top"/>
  <outline>
    <contour>
      <point x="72" y="0" type="line"/>
      <point x="730" y="0" type="line"/>
      <point x="730" y="210" type="line"/>
      <point x="631" y="210" type="line"/>
      <point x="631" y="1580" type="line"/>
      <point x="87" y="1580" type="line"/>
      <point x="87" y="1370" type="line"/>
      <point x="231" y="1370" type="line"/>
      <point x="231" y="210" type="line"/>
      <point x="72" y="210" type="line"/>
    </contour>
    <contour>
      <point x="850" y="0" type="line"/>
      <point x="1463" y="0" type="line"/>
      <point x="1463" y="210" type="line"/>
      <point x="1349" y="210" type="line"/>
      <point x="1349" y="779" type="line" smooth="yes"/>
      <point x="1349" y="1060"/>
      <point x="1194" y="1183"/>
      <point x="976" y="1183" type="curve" smooth="yes"/>
      <point x="676" y="1183"/>
      <point x="598" y="1001"/>
      <point x="598" y="720" type="curve"/>
      <point x="631" y="722" type="line"/>
      <point x="631" y="868"/>
      <point x="711" y="919"/>
      <point x="802" y="919" type="curve" smooth="yes"/>
      <point x="890" y="919"/>
      <point x="949" y="868"/>
      <point x="949" y="768" type="curve" smooth="yes"/>
      <point x="949" y="210" type="line"/>
      <point x="850" y="210" type="line"/>
    </contour>
    <contour>
      <point x="3" y="1710" type="line"/>
      <point x="233" y="1710" type="line"/>
      <point x="477" y="1923" type="line"/>
      <point x="307" y="1923" type="line"/>
      <point x="547" y="1710" type="line"/>
      <point x="831" y="1710" type="line"/>
      <point x="625" y="2010" type="line"/>
      <point x="209" y="2010" type="line"/>
    </contour>
  </outline>
</glyph>
<glyph name="hbar" format="2">
  <advance width="1541"/>
  <unicode hex="0127"/>
  <outline>
    <contour>
      <point x="72" y="0" type="line"/>
      <point x="730" y="0" type="line"/>
      <point x="730" y="210" type="line"/>
      <point x="631" y="210" type="line"/>
      <point x="631" y="1580" type="line"/>
      <point x="231" y="1580" type="line"/>
      <point x="231" y="210" type="line"/>
      <point x="72" y="210" type="line"/>
    </contour>
    <contour>
      <point x="850" y="0" type="line"/>
      <point x="1463" y="0" type="line"/>
      <point x="1463" y="210" type="line"/>
      <point x="1349" y="210" type="line"/>
      <point x="1349" y="754" type="line" smooth="yes"/>
      <point x="1349" y="1035"/>
      <point x="1194" y="1158"/>
      <point x="976" y="1158" type="curve" smooth="yes"/>
      <point x="676" y="1158"/>
      <point x="598" y="976"/>
      <point x="598" y="695" type="curve"/>
      <point x="631" y="697" type="line"/>
      <point x="631" y="843"/>
      <point x="711" y="894"/>
      <point x="802" y="894" type="curve" smooth="yes"/>
      <point x="890" y="894"/>
      <point x="949" y="843"/>
      <point x="949" y="743" type="curve" smooth="yes"/>
      <point x="949" y="210" type="line"/>
      <point x="850" y="210" type="line"/>
    </contour>
    <contour>
      <point x="90" y="1272" type="line"/>
      <point x="900" y="1272" type="line"/>
      <point x="900" y="1450" type="line"/>
      <point x="90" y="1450" type="line"/>
    </contour>
  </outline>
</glyph>
<glyph name="Itilde" format="2">
  <advance width="896"/>
  <unicode hex="0128"/>
  <anchor x="448" y="0" name="bottom"/>
  <anchor x="658" y="0" name="ogonek"/>
  <anchor x="448" y="1900" name="top"/>
  <anchor x="20" y="1500" name="topleft"/>
  <outline>
    <contour>
      <point x="58" y="0" type="line"/>
      <point x="838" y="0" type="line"/>
      <point x="838" y="214" type="line"/>
      <point x="658" y="214" type="line"/>
      <point x="658" y="1286" type="line"/>
      <point x="835" y="1286" type="line"/>
      <point x="835" y="1500" type="line"/>
      <point x="61" y="1500" type="line"/>
      <point x="61" y="1286" type="line"/>
      <point x="238" y="1286" type="line"/>
      <point x="238" y="214" type="line"/>
      <point x="58" y="214" type="line"/>
    </contour>
    <contour>
      <point x="612" y="1608" type="curve" smooth="yes"/>
      <point x="736" y="1608"/>
      <point x="804" y="1693"/>
      <point x="804" y="1844" type="curve" smooth="yes"/>
      <point x="804" y="1930" type="line"/>
      <point x="638" y="1930" type="line"/>
      <point x="638" y="1894" type="line" smooth="yes"/>
      <point x="638" y="1845"/>
      <point x="623" y="1818"/>
      <point x="586" y="1818" type="curve" smooth="yes"/>
      <point x="557" y="1818"/>
      <point x="538" y="1829"/>
      <point x="509" y="1850" type="curve" smooth="yes"/>
      <point x="475" y="1875" type="line"/>
      <point x="387" y="1710" type="line"/>
      <point x="421" y="1685" type="line" smooth="yes"/>
      <point x="479" y="1642"/>
      <point x="533" y="1608"/>
    </contour>
    <contour>
      <point x="92" y="1716" type="curve" smooth="yes"/>
      <point x="92" y="1630" type="line"/>
      <point x="258" y="1630" type="line"/>
      <point x="258" y="1666" type="line" smooth="yes"/>
      <point x="258" y="1715"/>
      <point x="273" y="1742"/>
      <point x="310" y="1742" type="curve" smooth="yes"/>
      <point x="339" y="1742"/>
      <point x="358" y="1731"/>
      <point x="387" y="1710" type="curve" smooth="yes"/>
      <point x="421" y="1685" type="line"/>
      <point x="509" y="1850" type="line"/>
      <point x="475" y="1875" type="line" smooth="yes"/>
      <point x="417" y="1918"/>
      <point x="363" y="1952"/>
      <point x="284" y="1952" type="curve" smooth="yes"/>
      <point x="160" y="1952"/>
      <point x="92" y="1867"/>
    </contour>
  </outline>
</glyph>
<glyph name="itilde" format="2">
  <advance width="847"/>
  <unicode hex="0129"/>
  <anchor x="424" y="0" name="bottom"/>
  <anchor x="637" y="0" name="ogonek"/>
  <anchor x="423" y="1560" name="top"/>
  <outline>
    <contour>
      <point x="78" y="0" type="line"/>
      <point x="775" y="0" type="line"/>
      <point x="775" y="210" type="line"/>
      <point x="637" y="210" type="line"/>
      <point x="637" y="1160" type="line"/>
      <point x="93" y="1160" type="line"/>
      <point x="93" y="950" type="line"/>
      <point x="237" y="950" type="line"/>
      <point x="237" y="210" type="line"/>
      <point x="78" y="210" type="line"/>
    </contour>
    <contour>
      <point x="587" y="1268" type="curve" smooth="yes"/>
      <point x="711" y="1268"/>
      <point x="779" y="1353"/>
      <point x="779" y="1504" type="curve" smooth="yes"/>
      <point x="779" y="1590" type="line"/>
      <point x="613" y="1590" type="line"/>
      <point x="613" y="1554" type="line" smooth="yes"/>
      <point x="613" y="1505"/>
      <point x="598" y="1478"/>
      <point x="561" y="1478" type="curve" smooth="yes"/>
      <point x="532" y="1478"/>
      <point x="513" y="1489"/>
      <point x="484" y="1510" type="curve" smooth="yes"/>
      <point x="450" y="1535" type="line"/>
      <point x="362" y="1370" type="line"/>
      <point x="396" y="1345" type="line" smooth="yes"/>
      <point x="454" y="1302"/>
      <point x="508" y="1268"/>
    </contour>
    <contour>
      <point x="67" y="1376" type="curve" smooth="yes"/>
      <point x="67" y="1290" type="line"/>
      <point x="233" y="1290" type="line"/>
      <point x="233" y="1326" type="line" smooth="yes"/>
      <point x="233" y="1375"/>
      <point x="248" y="1402"/>
      <point x="285" y="1402" type="curve" smooth="yes"/>
      <point x="314" y="1402"/>
      <point x="333" y="1391"/>
      <point x="362" y="1370" type="curve" smooth="yes"/>
      <point x="396" y="1345" type="line"/>
      <point x="484" y="1510" type="line"/>
      <point x="450" y="1535" type="line" smooth="yes"/>
      <point x="392" y="1578"/>
      <point x="338" y="1612"/>
      <point x="259" y="1612" type="curve" smooth="yes"/>
      <point x="135" y="1612"/>
      <point x="67" y="1527"/>
    </contour>
  </outline>
</glyph>
<glyph name="Imacron" format="2">
  <advance width="896"/>
  <unicode hex="012A"/>
  <anchor x="448" y="0" name="bottom"/>
  <anchor x="658" y="0" name="ogonek"/>
  <anchor x="448" y="1500" name="top"/>
  <anchor x="20" y="1500" name="topleft"/>
  <outline>
    <contour>
      <point x="58" y="0" type="line"/>
      <point x="838" y="0" type="line"/>
      <point x="838" y="214" type="line"/>
      <point x="658" y="214" type="line"/>
      <point x="658" y="1286" type="line"/>
      <point x="835" y="1286" type="line"/>
      <point x="835" y="1500" type="line"/>
      <point x="61" y="1500" type="line"/>
      <point x="61" y="1286" type="line"/>
      <point x="238" y="1286" type="line"/>
      <point x="238" y="214" type="line"/>
      <point x="58" y="214" type="line"/>
    </contour>
    <contour>
      <point x="78" y="1650" type="line"/>
      <point x="818" y="1650" type="line"/>
      <point x="818" y="1850" type="line"/>
      <point x="78" y="1850" type="line"/>
    </contour>
  </outline>
</glyph>
<glyph name="imacron" format="2">
  <advance width="847"/>
  <unicode hex="012B"/>
  <anchor x="424" y="0" name="bottom"/>
  <anchor x="637" y="0" name="ogonek"/>
  <anchor x="423" y="1160" name="top"/>
  <outline>
    <contour>
      <point x="78" y="0" type="line"/>
      <point x="775" y="0" type="line"/>
      <point x="775" y="210" type="line"/>
      <point x="637" y="210" type="line"/>
      <point x="637" y="1160" type="line"/>
      <point x="93" y="1160" type="line"/>
      <point x="93" y="950" type="line"/>
      <point x="237" y="950" type="line"/>
      <point x="237" y="210" type="line"/>
      <point x="78" y="210" type="line"/>
    </contour>
    <contour>
      <point x="53" y="1310" type="line"/>
      <point x="793" y="1310" type="line"/>
      <point x="793" y="1510" type="line"/>
      <point x="53" y="1510" type="line"/>
    </contour>
  </outline>
</glyph>
<glyph name="Ibreve" format="2">
  <advance width="896"/>
  <unicode hex="012C"/>
  <anchor x="448" y="0" name="bottom"/>
  <anchor x="658" y="0" name="ogonek"/>
  <anchor x="448" y="1874" name="side"/>
  <anchor x="448" y="1910" name="top"/>
  <anchor x="20" y="1500" name="topleft"/>
  <outline>
    <contour>
      <point x="58" y="0" type="line"/>
      <point x="838" y="0" type="line"/>
      <point x="838" y="214" type="line"/>
      <point x="658" y="214" type="line"/>
      <point x="658" y="1286" type="line"/>
      <point x="835" y="1286" type="line"/>
      <point x="835" y="1500" type="line"/>
      <point x="61" y="1500" type="line"/>
      <point x="61" y="1286" type="line"/>
      <point x="238" y="1286" type="line"/>
      <point x="238" y="214" type="line"/>
      <point x="58" y="214" type="line"/>
    </contour>
    <contour>
      <point x="448" y="1600" type="curve" smooth="yes"/>
      <point x="687" y="1600"/>
      <point x="816" y="1744"/>
      <point x="822" y="1930" type="curve"/>
      <point x="642" y="1930" type="line"/>
      <point x="630" y="1868"/>
      <point x="578" y="1808"/>
      <point x="448" y="1808" type="curve" smooth="yes"/>
      <point x="318" y="1808"/>
      <point x="266" y="1868"/>
      <point x="254" y="1930" type="curve"/>
      <point x="74" y="1930" type="line"/>
      <point x="80" y="1744"/>
      <point x="209" y="1600"/>
    </contour>
  </outline>
</glyph>
<glyph name="ibreve" format="2">
  <advance width="847"/>
  <unicode hex="012D"/>
  <anchor x="424" y="0" name="bottom"/>
  <anchor x="637" y="0" name="ogonek"/>
  <anchor x="423" y="1534" name="side"/>
  <anchor x="423" y="1570" name="top"/>
  <outline>
    <contour>
      <point x="78" y="0" type="line"/>
      <point x="775" y="0" type="line"/>
      <point x="775" y="210" type="line"/>
      <point x="637" y="210" type="line"/>
      <point x="637" y="1160" type="line"/>
      <point x="93" y="1160" type="line"/>
      <point x="93" y="950" type="line"/>
      <point x="237" y="950" type="line"/>
      <point x="237" y="210" type="line"/>
      <point x="78" y="210" type="line"/>
    </contour>
    <contour>
      <point x="423" y="1260" type="curve" smooth="yes"/>
      <point x="662" y="1260"/>
      <point x="791" y="1404"/>
      <point x="797" y="1590" type="curve"/>
      <point x="617" y="1590" type="line"/>
      <point x="605" y="1528"/>
      <point x="553" y="1468"/>
      <point x="423" y="1468" type="curve" smooth="yes"/>
      <point x="293" y="1468"/>
      <point x="241" y="1528"/>
      <point x="229" y="1590" type="curve"/>
      <point x="49" y="1590" type="line"/>
      <point x="55" y="1404"/>
      <point x="184" y="1260"/>
    </contour>
  </outline>
</glyph>
<glyph name="Iogonek" format="2">
  <advance width="896"/>
  <unicode hex="012E"/>
  <anchor x="448" y="0" name="bottom"/>
  <anchor x="658" y="0" name="ogonek"/>
  <anchor x="448" y="1500" name="top"/>
  <anchor x="20" y="1500" name="topleft"/>
  <outline>
    <contour>
      <point x="58" y="0" type="line"/>
      <point x="838" y="0" type="line"/>
      <point x="838" y="214" type="line"/>
      <point x="658" y="214" type="line"/>
      <point x="658" y="1286" type="line"/>
      <point x="835" y="1286" type="line"/>
      <point x="835" y="1500" type="line"/>
      <point x="61" y="1500" type="line"/>
      <point x="61" y="1286" type="line"/>
      <point x="238" y="1286" type="line"/>
      <point x="238" y="214" type="line"/>
      <point x="58" y="214" type="line"/>
    </contour>
    <contour>
      <point x="483" y="-440" type="curve" smooth="yes"/>
      <point x="569" y="-440"/>
      <point x="637" y="-417"/>
      <point x="679" y="-390" type="curve"/>
      <point x="627" y="-251" type="line"/>
      <point x="606" y="-261"/>
      <point x="589" y="-267"/>
      <point x="562" y="-267" type="curve" smooth="yes"/>
      <point x="509" y="-267"/>
      <point x="470" y="-239"/>
      <point x="470" y="-188" type="curve" smooth="yes"/>
      <point x="470" y="-113"/>
      <point x="521" y="-52"/>
      <point x="578" y="10" type="curve"/>
      <point x="477" y="106" type="line"/>
      <point x="351" y="20"/>
      <point x="228" y="-89"/>
      <point x="228" y="-228" type="curve" smooth="yes"/>
      <point x="228" y="-360"/>
      <point x="340" y="-440"/>
    </contour>
  </outline>
</glyph>
<glyph name="iogonek" format="2">
  <advance width="847"/>
  <unicode hex="012F"/>
  <anchor x="424" y="0" name="bottom"/>
  <anchor x="637" y="0" name="ogonek"/>
  <anchor x="423" y="1584" name="top"/>
  <outline>
    <contour>
      <point x="78" y="0" type="line"/>
      <point x="775" y="0" type="line"/>
      <point x="775" y="210" type="line"/>
      <point x="637" y="210" type="line"/>
      <point x="637" y="1160" type="line"/>
      <point x="93" y="1160" type="line"/>
      <point x="93" y="950" type="line"/>
      <point x="237" y="950" type="line"/>
      <point x="237" y="210" type="line"/>
      <point x="78" y="210" type="line"/>
    </contour>
    <contour>
      <point x="423" y="1244" type="curve" smooth="yes"/>
      <point x="567" y="1244"/>
      <point x="667" y="1325"/>
      <point x="667" y="1458" type="curve" smooth="yes"/>
      <point x="667" y="1590"/>
      <point x="567" y="1672"/>
      <point x="423" y="1672" type="curve" smooth="yes"/>
      <point x="279" y="1672"/>
      <point x="179" y="1590"/>
      <point x="179" y="1458" type="curve" smooth="yes"/>
      <point x="179" y="1325"/>
      <point x="279" y="1244"/>
    </contour>
    <contour>
      <point x="462" y="-440" type="curve" smooth="yes"/>
      <point x="548" y="-440"/>
      <point x="616" y="-417"/>
      <point x="658" y="-390" type="curve"/>
      <point x="606" y="-251" type="line"/>
      <point x="585" y="-261"/>
      <point x="568" y="-267"/>
      <point x="541" y="-267" type="curve" smooth="yes"/>
      <point x="488" y="-267"/>
      <point x="449" y="-239"/>
      <point x="449" y="-188" type="curve" smooth="yes"/>
      <point x="449" y="-113"/>
      <point x="500" y="-52"/>
      <point x="557" y="10" type="curve"/>
      <point x="456" y="106" type="line"/>
      <point x="330" y="20"/>
      <point x="207" y="-89"/>
      <point x="207" y="-228" type="curve" smooth="yes"/>
      <point x="207" y="-360"/>
      <point x="319" y="-440"/>
    </contour>
  </outline>
</glyph>
<glyph name="Idotaccent" format="2">
  <advance width="896"/>
  <unicode hex="0130"/>
  <anchor x="448" y="0" name="bottom"/>
  <anchor x="658" y="0" name="ogonek"/>
  <anchor x="448" y="1924" name="top"/>
  <anchor x="20" y="1500" name="topleft"/>
  <outline>
    <contour>
      <point x="58" y="0" type="line"/>
      <point x="838" y="0" type="line"/>
      <point x="838" y="214" type="line"/>
      <point x="658" y="214" type="line"/>
      <point x="658" y="1286" type="line"/>
      <point x="835" y="1286" type="line"/>
      <point x="835" y="1500" type="line"/>
      <point x="61" y="1500" type="line"/>
      <point x="61" y="1286" type="line"/>
      <point x="238" y="1286" type="line"/>
      <point x="238" y="214" type="line"/>
      <point x="58" y="214" type="line"/>
    </contour>
    <contour>
      <point x="448" y="1584" type="curve" smooth="yes"/>
      <point x="592" y="1584"/>
      <point x="692" y="1665"/>
      <point x="692" y="1798" type="curve" smooth="yes"/>
      <point x="692" y="1930"/>
      <point x="592" y="2012"/>
      <point x="448" y="2012" type="curve" smooth="yes"/>
      <point x="304" y="2012"/>
      <point x="204" y="1930"/>
      <point x="204" y="1798" type="curve" smooth="yes"/>
      <point x="204" y="1665"/>
      <point x="304" y="1584"/>
    </contour>
  </outline>
</glyph>
<glyph name="Jcircumflex" format="2">
  <advance width="1344"/>
  <unicode hex="0134"/>
  <anchor x="673" y="0" name="bottom"/>
  <anchor x="1361" y="1700" name="side"/>
  <anchor x="887" y="1910" name="top"/>
  <outline>
    <contour>
      <point x="592" y="-32" type="curve" smooth="yes"/>
      <point x="932" y="-32"/>
      <point x="1130" y="140"/>
      <point x="1130" y="458" type="curve" smooth="yes"/>
      <point x="1130" y="1286" type="line"/>
      <point x="1292" y="1286" type="line"/>
      <point x="1292" y="1500" type="line"/>
      <point x="503" y="1500" type="line"/>
      <point x="503" y="1286" type="line"/>
      <point x="710" y="1286" type="line"/>
      <point x="710" y="494" type="line" smooth="yes"/>
      <point x="710" y="366"/>
      <point x="646" y="274"/>
      <point x="496" y="274" type="curve" smooth="yes"/>
      <point x="345" y="274"/>
      <point x="286" y="367"/>
      <point x="286" y="494" type="curve" smooth="yes"/>
      <point x="286" y="597" type="line"/>
      <point x="54" y="597" type="line"/>
      <point x="54" y="458" type="line" smooth="yes"/>
      <point x="54" y="139"/>
      <point x="272" y="-32"/>
    </contour>
    <contour>
      <point x="473" y="1630" type="line"/>
      <point x="703" y="1630" type="line"/>
      <point x="947" y="1843" type="line"/>
      <point x="777" y="1843" type="line"/>
      <point x="1017" y="1630" type="line"/>
      <point x="1301" y="1630" type="line"/>
      <point x="1095" y="1930" type="line"/>
      <point x="679" y="1930" type="line"/>
    </contour>
  </outline>
</glyph>
<glyph name="jcircumflex" format="2">
  <advance width="780"/>
  <unicode hex="0135"/>
  <anchor x="390" y="-440" name="bottom"/>
  <anchor x="894" y="1360" name="side"/>
  <anchor x="420" y="1570" name="top"/>
  <outline>
    <contour>
      <point x="226" y="-115" type="line"/>
      <point x="630" y="54" type="line"/>
      <point x="630" y="1160" type="line"/>
      <point x="82" y="1160" type="line"/>
      <point x="82" y="950" type="line"/>
      <point x="226" y="950" type="line"/>
    </contour>
    <contour>
      <point x="110" y="-452" type="curve"/>
      <point x="72" y="-282" type="line"/>
      <point x="20" y="-282"/>
      <point x="-18" y="-253"/>
      <point x="-39" y="-219" type="curve"/>
      <point x="-68" y="-320" type="line"/>
      <point x="53" y="-320"/>
      <point x="145" y="-296"/>
      <point x="145" y="-180" type="curve" smooth="yes"/>
      <point x="145" y="-86"/>
      <point x="60" y="-40"/>
      <point x="-40" y="-40" type="curve" smooth="yes"/>
      <point x="-178" y="-40"/>
      <point x="-252" y="-122"/>
      <point x="-252" y="-216" type="curve" smooth="yes"/>
      <point x="-252" y="-358"/>
      <point x="-103" y="-452"/>
    </contour>
    <contour>
      <point x="72" y="-282" type="curve"/>
      <point x="110" y="-452" type="line"/>
      <point x="384" y="-452"/>
      <point x="630" y="-295"/>
      <point x="630" y="54" type="curve"/>
      <point x="226" y="-115" type="line"/>
      <point x="226" y="-235"/>
      <point x="168" y="-282"/>
    </contour>
    <contour>
      <point x="6" y="1290" type="line"/>
      <point x="236" y="1290" type="line"/>
      <point x="480" y="1503" type="line"/>
      <point x="310" y="1503" type="line"/>
      <point x="550" y="1290" type="line"/>
      <point x="834" y="1290" type="line"/>
      <point x="628" y="1590" type="line"/>
      <point x="212" y="1590" type="line"/>
    </contour>
  </outline>
</glyph>
<glyph name="Kcommaaccent" format="2">
  <advance width="1730"/>
  <unicode hex="0136"/>
  <anchor x="857" y="0" name="bottom"/>
  <anchor x="857" y="1500" name="top"/>
  <outline>
    <contour>
      <point x="555" y="436" type="line"/>
      <point x="1510" y="1286" type="line"/>
      <point x="1643" y="1286" type="line"/>
      <point x="1643" y="1500" type="line"/>
      <point x="956" y="1500" type="line"/>
      <point x="956" y="1286" type="line"/>
      <point x="1145" y="1286" type="line"/>
      <point x="395" y="624" type="line"/>
    </contour>
    <contour>
      <point x="62" y="0" type="line"/>
      <point x="788" y="0" type="line"/>
      <point x="788" y="214" type="line"/>
      <point x="647" y="214" type="line"/>
      <point x="647" y="1286" type="line"/>
      <point x="809" y="1286" type="line"/>
      <point x="809" y="1500" type="line"/>
      <point x="65" y="1500" type="line"/>
      <point x="65" y="1286" type="line"/>
      <point x="227" y="1286" type="line"/>
      <point x="227" y="214" type="line"/>
      <point x="62" y="214" type="line"/>
    </contour>
    <contour>
      <point x="898" y="0" type="line"/>
      <point x="1679" y="0" type="line"/>
      <point x="1679" y="214" type="line"/>
      <point x="1559" y="214" type="line"/>
      <point x="999" y="942" type="line"/>
      <point x="708" y="676" type="line"/>
      <point x="1044" y="214" type="line"/>
      <point x="898" y="214" type="line"/>
    </contour>
    <contour>
      <point x="703" y="-693" type="curve"/>
      <point x="854" y="-693" type="line"/>
      <point x="955" y="-627"/>
      <point x="1085" y="-496"/>
      <point x="1085" y="-311" type="curve" smooth="yes"/>
      <point x="1085" y="-157"/>
      <point x="985" y="-82"/>
      <point x="849" y="-82" type="curve" smooth="yes"/>
      <point x="713" y="-82"/>
      <point x="629" y="-156"/>
      <point x="629" y="-262" type="curve" smooth="yes"/>
      <point x="629" y="-385"/>
      <point x="729" y="-455"/>
      <point x="880" y="-439" type="curve"/>
      <point x="864" y="-519"/>
      <point x="797" y="-611"/>
    </contour>
  </outline>
</glyph>
<glyph name="kcommaaccent" format="2">
  <advance width="1532"/>
  <unicode hex="0137"/>
  <anchor x="778" y="0" name="bottom"/>
  <anchor x="778" y="1580" name="top"/>
  <outline>
    <contour>
      <point x="72" y="0" type="line"/>
      <point x="709" y="0" type="line"/>
      <point x="709" y="210" type="line"/>
      <point x="622" y="210" type="line"/>
      <point x="623" y="1580" type="line"/>
      <point x="79" y="1580" type="line"/>
      <point x="79" y="1370" type="line"/>
      <point x="223" y="1370" type="line"/>
      <point x="222" y="210" type="line"/>
      <point x="72" y="210" type="line"/>
    </contour>
    <contour>
      <point x="814" y="0" type="line"/>
      <point x="1481" y="0" type="line"/>
      <point x="1481" y="210" type="line"/>
      <point x="1374" y="210" type="line"/>
      <point x="961" y="799" type="line"/>
      <point x="688" y="553" type="line"/>
      <point x="916" y="210" type="line"/>
      <point x="814" y="210" type="line"/>
    </contour>
    <contour>
      <point x="602" y="318" type="line"/>
      <point x="1309" y="950" type="line"/>
      <point x="1439" y="950" type="line"/>
      <point x="1439" y="1160" type="line"/>
      <point x="768" y="1160" type="line"/>
      <point x="768" y="950" type="line"/>
      <point x="959" y="950" type="line"/>
      <point x="444" y="482" type="line"/>
    </contour>
    <contour>
      <point x="624" y="-693" type="curve"/>
      <point x="775" y="-693" type="line"/>
      <point x="876" y="-627"/>
      <point x="1006" y="-496"/>
      <point x="1006" y="-311" type="curve" smooth="yes"/>
      <point x="1006" y="-157"/>
      <point x="906" y="-82"/>
      <point x="770" y="-82" type="curve" smooth="yes"/>
      <point x="634" y="-82"/>
      <point x="550" y="-156"/>
      <point x="550" y="-262" type="curve" smooth="yes"/>
      <point x="550" y="-385"/>
      <point x="650" y="-455"/>
      <point x="801" y="-439" type="curve"/>
      <point x="785" y="-519"/>
      <point x="718" y="-611"/>
    </contour>
  </outline>
</glyph>
<glyph name="kgreenlandic" format="2">
  <advance width="1556"/>
  <unicode hex="0138"/>
  <outline>
    <contour>
      <point x="78" y="0" type="line"/>
      <point x="724" y="0" type="line"/>
      <point x="724" y="210" type="line"/>
      <point x="637" y="210" type="line"/>
      <point x="637" y="950" type="line"/>
      <point x="718" y="950" type="line"/>
      <point x="718" y="1160" type="line"/>
      <point x="93" y="1160" type="line"/>
      <point x="93" y="950" type="line"/>
      <point x="237" y="950" type="line"/>
      <point x="237" y="210" type="line"/>
      <point x="78" y="210" type="line"/>
    </contour>
    <contour>
      <point x="617" y="318" type="line"/>
      <point x="1324" y="950" type="line"/>
      <point x="1454" y="950" type="line"/>
      <point x="1454" y="1160" type="line"/>
      <point x="822" y="1160" type="line"/>
      <point x="822" y="950" type="line"/>
      <point x="974" y="950" type="line"/>
      <point x="459" y="482" type="line"/>
    </contour>
    <contour>
      <point x="829" y="0" type="line"/>
      <point x="1505" y="0" type="line"/>
      <point x="1505" y="210" type="line"/>
      <point x="1389" y="210" type="line"/>
      <point x="976" y="799" type="line"/>
      <point x="703" y="553" type="line"/>
      <point x="931" y="210" type="line"/>
      <point x="829" y="210" type="line"/>
    </contour>
  </outline>
</glyph>
<glyph name="lacute" format="2">
  <advance width="836"/>
  <unicode hex="013A"/>
  <anchor x="422" y="0" name="bottom"/>
  <anchor x="432" y="1160" name="center"/>
  <anchor x="412" y="1580" name="top"/>
  <anchor x="626" y="1580" name="topright"/>
  <outline>
    <contour>
      <point x="72" y="0" type="line"/>
      <point x="764" y="0" type="line"/>
      <point x="764" y="210" type="line"/>
      <point x="626" y="210" type="line"/>
      <point x="626" y="1580" type="line"/>
      <point x="78" y="1580" type="line"/>
      <point x="78" y="1370" type="line"/>
      <point x="222" y="1370" type="line"/>
      <point x="222" y="210" type="line"/>
      <point x="72" y="210" type="line"/>
    </contour>
    <contour>
      <point x="243" y="1710" type="line"/>
      <point x="505" y="1710" type="line"/>
      <point x="783" y="2010" type="line"/>
      <point x="375" y="2010" type="line"/>
    </contour>
  </outline>
</glyph>
<glyph name="Lcommaaccent" format="2">
  <advance width="1535"/>
  <unicode hex="013B"/>
  <anchor x="768" y="0" name="bottom"/>
  <anchor x="437" y="1260" name="center"/>
  <anchor x="437" y="1500" name="top"/>
  <anchor x="835" y="1500" name="topright"/>
  <outline>
    <contour>
      <point x="62" y="0" type="line"/>
      <point x="647" y="0" type="line"/>
      <point x="647" y="1286" type="line"/>
      <point x="854" y="1286" type="line"/>
      <point x="854" y="1500" type="line"/>
      <point x="65" y="1500" type="line"/>
      <point x="65" y="1286" type="line"/>
      <point x="227" y="1286" type="line"/>
      <point x="227" y="214" type="line"/>
      <point x="62" y="214" type="line"/>
    </contour>
    <contour>
      <point x="647" y="0" type="line"/>
      <point x="1467" y="0" type="line"/>
      <point x="1467" y="224" type="line"/>
      <point x="647" y="224" type="line"/>
    </contour>
    <contour>
      <point x="1015" y="224" type="curve" smooth="yes"/>
      <point x="1467" y="224" type="line"/>
      <point x="1467" y="540" type="line"/>
      <point x="1235" y="540" type="line"/>
      <point x="1235" y="464" type="line" smooth="yes"/>
      <point x="1235" y="294"/>
      <point x="1175" y="224"/>
    </contour>
    <contour>
      <point x="614" y="-693" type="curve"/>
      <point x="765" y="-693" type="line"/>
      <point x="866" y="-627"/>
      <point x="996" y="-496"/>
      <point x="996" y="-311" type="curve" smooth="yes"/>
      <point x="996" y="-157"/>
      <point x="896" y="-82"/>
      <point x="760" y="-82" type="curve" smooth="yes"/>
      <point x="624" y="-82"/>
      <point x="540" y="-156"/>
      <point x="540" y="-262" type="curve" smooth="yes"/>
      <point x="540" y="-385"/>
      <point x="640" y="-455"/>
      <point x="791" y="-439" type="curve"/>
      <point x="775" y="-519"/>
      <point x="708" y="-611"/>
    </contour>
  </outline>
</glyph>
<glyph name="lcommaaccent" format="2">
  <advance width="836"/>
  <unicode hex="013C"/>
  <anchor x="422" y="0" name="bottom"/>
  <anchor x="432" y="1160" name="center"/>
  <anchor x="412" y="1580" name="top"/>
  <anchor x="626" y="1580" name="topright"/>
  <outline>
    <contour>
      <point x="72" y="0" type="line"/>
      <point x="764" y="0" type="line"/>
      <point x="764" y="210" type="line"/>
      <point x="626" y="210" type="line"/>
      <point x="626" y="1580" type="line"/>
      <point x="78" y="1580" type="line"/>
      <point x="78" y="1370" type="line"/>
      <point x="222" y="1370" type="line"/>
      <point x="222" y="210" type="line"/>
      <point x="72" y="210" type="line"/>
    </contour>
    <contour>
      <point x="268" y="-693" type="curve"/>
      <point x="419" y="-693" type="line"/>
      <point x="520" y="-627"/>
      <point x="650" y="-496"/>
      <point x="650" y="-311" type="curve" smooth="yes"/>
      <point x="650" y="-157"/>
      <point x="550" y="-82"/>
      <point x="414" y="-82" type="curve" smooth="yes"/>
      <point x="278" y="-82"/>
      <point x="194" y="-156"/>
      <point x="194" y="-262" type="curve" smooth="yes"/>
      <point x="194" y="-385"/>
      <point x="294" y="-455"/>
      <point x="445" y="-439" type="curve"/>
      <point x="429" y="-519"/>
      <point x="362" y="-611"/>
    </contour>
  </outline>
</glyph>
